<?xml version="1.0" encoding="UTF-8"?>
<!DOCTYPE svg PUBLIC "-//W3C//DTD SVG 1.1//EN" "http://www.w3.org/Graphics/SVG/1.1/DTD/svg11.dtd">
<!-- Creator: CorelDRAW 2018 (64-Bit) -->
<svg xmlns="http://www.w3.org/2000/svg" xml:space="preserve" width="240px" height="342px" version="1.1" style="shape-rendering:geometricPrecision; text-rendering:geometricPrecision; image-rendering:optimizeQuality; fill-rule:evenodd; clip-rule:evenodd"
viewBox="0 0 240 342"
 xmlns:xlink="http://www.w3.org/1999/xlink">
 <defs>
  <style type="text/css">
   <![CDATA[
    .fil0 {fill:#F58634}
   ]]>
  </style>
 </defs>
 <g id="Layer_x0020_1">
  <metadata id="CorelCorpID_0Corel-Layer"/>
  <path class="fil0" d="M11.14 13.06c1.83,-0.66 4.83,-1.33 8,-2.16 21.9,-5.86 78.01,-10.82 101.65,-10.84 32.03,-0.01 64.72,-0.67 95.85,8.17 4,1.17 7.67,2.5 10.5,4.17 2.83,1.66 4.84,3.67 6.67,6.33 1.83,2.67 3.5,6 4.5,9.84 1,3.83 1.33,8.16 1.5,12.33 0.16,4.17 0.16,8.16 0.16,12.16 0,4.01 0,8 0,11.17 0,3.17 0,5.5 -0.16,8.83 -0.17,3.34 -0.5,7.67 -0.67,11.17 -0.17,3.5 -0.17,6.17 -0.33,9 -0.17,2.83 -0.5,5.84 -1,8.83 -0.5,3.01 -1.17,6 -1.5,9.51 -0.34,3.5 -0.34,7.5 -0.84,11 -0.5,3.5 -1.5,6.5 -2.33,9.66 -0.62,2.35 -1.15,4.8 -1.65,7.06l-3.86 0 0.11 -5.3c2.96,-24.16 5.48,-69.38 5.99,-75.92 4.38,-56.54 -1.51,-37.48 -6.76,-0.88 -9.6,66.87 0.88,-6.63 -0.49,-18.53 -1.98,-17.21 3.89,-27.59 -5.5,-25.2 -2.64,17.94 -6.37,31 -9.24,50.6 -14.58,99.54 3.47,-49.4 -5.14,-52.17 -6.14,-1.97 -17.39,85 -18.52,92.04 -0.08,-7.14 1.12,-95.43 -3.4,-95.92 -3.65,-0.39 -13.14,51.87 -13.36,53.21 -14.82,89.66 -5.92,-4.38 -10.36,-33.96 -1.93,-12.89 -1.6,-15.31 -2.58,-17.68 -2.88,-7.02 -5.38,3.23 -7.6,8.85 -6.08,15.34 -11.48,59.76 -14.26,77.52 -4.58,-33.01 -10.39,-157.38 -21.27,-41.97 -3.34,35.45 -3.06,69.24 -11.19,9.82 -17.1,-125.14 -13.37,-13.64 -20.52,32.23 -6.13,-19.7 -11.69,-53.24 -16.04,-75.22 -9.22,-46.54 -9.09,67.34 -9.12,67.7 -1.57,-5.14 -15.27,-76.99 -17.41,-76.56 -10.1,2.04 2.66,92.29 -7.24,49.9 -0.4,-1.73 -8.94,-54.6 -11.26,-43.11 -3.2,15.85 3.48,89.58 -2.04,53.27 5.05,40.32 -7.62,-39.41 -7.8,-45.46 -0.6,-20.84 -6.05,4.33 -5.86,13.17 0.58,7.97 7.74,64.34 11.89,89.69l0 0 0.03 0.21c0.17,1 0.33,1.97 0.48,2.87l0.06 0.34 0.02 0.07c0.38,2.25 0.74,4.14 1.05,5.58l0.15 0.81 -4.09 0c-0.35,0 -0.7,0.05 -1.02,0.14 -0.67,-2.33 -1.39,-5.01 -2.2,-8.2 -2.5,-9.83 -5.83,-24.5 -7.83,-35.67 -2.01,-11.16 -2.67,-18.83 -3.34,-25.5 -0.66,-6.66 -1.33,-12.33 -1.66,-18.16 -0.34,-5.84 -0.34,-11.84 -0.17,-15.84 0.16,-4 0.5,-6 0.83,-8 0.34,-2 0.67,-4 1.5,-5.66 0.84,-1.67 2.17,-3 3.17,-4.17 1,-1.17 1.67,-2.17 2.33,-3 0.67,-0.83 1.34,-1.5 3.17,-2.17zm212.82 126.23l-5.06 0 1.2 -7.65c4.09,-20.97 9.3,-59.22 10.29,-65.51 -0.59,7.96 -4.08,46.56 -5.94,67.56l0 0 -0.02 0.24 -0.47 5.36zm-10.05 0l-8.37 0 0.15 -9.3 0 0c1.46,-6.93 3.29,-16.78 5.55,-30.16 21.39,-126.29 4.33,-10.43 3.2,31.65l0 0 -0.53 7.81zm-13.82 0l-12.78 0 1.47 -10.67 0 0c1.89,-10.48 4.45,-27.29 7.94,-51.81 15.42,-108.29 4.35,12.23 3.74,53.8l-0.37 8.68zm-17.65 0l-17.59 0 2.03 -13.2 0 0c7.3,-39.69 14.6,-150.34 16.02,-62.77 0.45,27.48 0.32,51.27 0.68,65.43l-1.14 10.54zm-21.56 0l-19.72 0 -0.66 -0.05 0 -13.92 -0.67 0.06c2.31,-25.39 4.5,-82.87 10.42,-94.57 13.04,-25.72 9.93,62.24 11.37,95.51l0 0 -0.74 12.97zm-25.4 -0.21l-20.98 0.11 -0.05 -14.37 -0.01 0 0.08 -1.08c3.66,-50.93 8.72,-167.36 18.19,-29.93 1.01,14.63 1.88,25.03 2.64,32.02l0 0 0.13 13.25zm-26.07 0.14l-13.72 0.07 -7.14 0 0.34 -10.82 0.07 -1.99 0.01 -0.28 -0.01 0c0.53,-20.43 -0.92,-63.61 2.15,-92.99 4.29,-41.05 11.73,56.01 17.49,91.75l-0.01 0 0.82 14.26zm-25.52 0.07l-16.97 0 -0.5 -14.81 0 0c0.14,-37.57 -10.45,-152.15 4.12,-67.1 5.97,34.83 10.03,56.47 12.78,68.4l0 0 0.57 13.51zm-20.08 0l-16.02 0 -1.09 0 -0.12 -4.51c0.05,-0.85 0.05,-2.13 -0.02,-3.95 -0.07,-2.02 -0.16,-4.09 -0.26,-6.18l0 -0.02c-3.17,-67.26 -18.24,-166.41 10.26,-20.66 1.8,9.16 3.28,16.02 4.51,21.02l0 0 2.74 14.3zm-20.13 0l-10.01 0c-0.02,-0.85 -0.15,-2.13 -0.39,-3.93l-0.12 -0.88 -0.41 -8.17 -0.65 0.19c-2.56,-19.9 -4.13,-36.12 -6.23,-57.73 -0.22,-2.28 -3,-28.52 -2.81,-29.14 3.66,-11.35 14.84,58.12 20.38,85.57l0 0c-1.34,-2.16 -1.12,0.71 -0.32,0.19 0.18,-0.12 0.05,-0.06 -0.02,-0.28l0.58 14.18zm-13.25 0l-7.37 0 -1.1 -10.42 0 0c-1.88,-25.85 -12.3,-82.29 -13.02,-93.37 -1.3,-20.03 16.27,76.91 17.85,85.37 0.18,0.97 0.88,3.62 1.77,6.67l1.87 11.75zm198.54 10.11c-0.66,2.67 -1.33,5.67 -2.16,8.33 -0.84,2.67 -1.84,5 -3,7.67l-1.07 2.44 -6.02 0 9.68 -18.63 2.57 0.19zm-17.34 18.44l-8.23 0 8.6 -12.52 -0.37 12.52zm-12.92 0l-7.28 0 6.57 -12.27 0.71 12.27zm-13.47 0l-14.35 0 12.86 -17.02 1.49 17.02zm-21.08 0l-14.54 0 11.13 -19.02 3.41 19.02zm-19.37 0l-16.39 0 9.35 -18.27 7.04 18.27zm-22.49 0l-21.26 0 11.25 -20.82 10.01 20.82zm-26.01 0l-16 0 7.71 -18.77 8.29 18.77zm-20.76 0l-12.28 0 -2.46 -0.01 4.25 -20.81 10.49 20.82zm-17.24 -0.02l-12.46 -0.05 3.67 -17.96 8.79 18.01zm-14.3 -0.06l-12.95 -0.05 1.96 -18.4 10.99 18.45zm-19.26 -0.07l-0.93 -2.79c-1.5,-4.5 -3.16,-9.17 -4.83,-14 -0.43,-1.26 -0.86,-2.52 -1.31,-3.88l11.7 0 -4.63 20.67zm10.36 -20.67l11.81 0 -3.15 14.05 -8.66 -14.05zm16.19 0l11.41 0 -3.94 16.54 -7.47 -16.54zm17.37 0l16.14 0 -6.79 17.55 -9.35 -17.55zm22.42 0l17.3 0 -9.62 18.05 -7.68 -18.05zm25.05 0l18.29 0 -9.66 18.8 -8.63 -18.8zm25.14 0l16.04 0 -10.05 17.3 -5.99 -17.3zm22.15 0l17.25 0 -13.41 18.3 -3.84 -18.3zm23.42 0l8.93 0 3.27 0.23 -11.03 17.57 -1.17 -17.8zm13.61 0.34l12.89 0.92 -11.33 16.04 -1.56 -16.96zm14.81 1.06l7.76 0.55 -7.76 15.1 0 -15.65zm4.32 27.15c-0.94,2.49 -1.79,4.97 -2.76,7.33 -1.17,2.83 -2.5,5.5 -3.84,8.17 -0.63,1.26 -1.26,2.53 -1.92,3.82l2.61 -19.32 5.91 0zm-11.84 18.99l-5.69 0 7.46 -12.24 -1.77 12.24zm-10 0l-9.23 0.01 9.25 -15.75 -0.02 15.74zm-13.23 0.01l-10.89 -0.01 10.89 -14.99 0 15zm-16.41 -0.01l-12.85 0 9.51 -17.24 3.34 17.24zm-16.62 0l-14.86 0 9.43 -18.99 5.43 18.99zm-18.98 0l-19.17 0 10.15 -19 9.02 19zm-24.57 0l-16.22 0 7.14 -18.99 1.37 -0.01 7.71 19zm-21.15 0l-16.08 0 8.84 -19 7.24 19zm-16.08 0l-12.4 0 -10.04 0 -15.97 -19 -1.5 0c-3.41,0 -3.06,0.99 -2.7,1.98 -0.36,-0.99 0,0 0.39,1.03 1.84,4.83 4.17,10.16 6,14.49l0.63 1.5 13.15 0 0 -17.25 10.04 17.25 12.4 0zm-33.91 -19l9.02 0 -0.05 12.75 -8.97 -12.75zm13.67 0l10.55 0 1.25 17.76 -11.8 -17.76zm14.28 0.01l10.57 -0.01 -10.05 17.01 -0.52 -17zm17.07 -0.01l14.22 0.01 -6.77 16 -7.45 -16.01zm20.96 0.01l17.43 0 -9.44 17.75 -7.99 -17.75zm25.64 0l14.51 0 -8.91 15.25 -5.6 -15.25zm22.14 0l12.99 0 -9.78 14.25 -3.21 -14.25zm17.4 0l14.61 0 -12.01 18.99 -2.6 -18.99zm20.06 0l7.88 0 -8.88 16 1 -16zm11.75 -0.25l9.29 0.25 -8.29 16 -1 -16.25zm11.78 26.74c-3.95,7.56 -5.46,34.46 -5.73,43.56 -0.5,14.89 -0.29,78.09 -16.35,86.82 -22.21,12.08 -107.35,13.67 -126.14,-1.15 -21.28,-16.78 -19.35,-90.43 -23.3,-118.78l-1.43 -10.22c39.4,0 78.8,0 118.2,0l54.75 -0.23z"/>
 </g>
</svg>
