<svg width="587" height="160" viewBox="0 0 587 160" fill="none" xmlns="http://www.w3.org/2000/svg">
<path d="M59 104.938V114.312L29.0625 132.562H59V141.938H13.5V132.562L43.5 114.281H13.5V104.938H59ZM13.5 62.3125H43.4688C48.4479 62.3125 52.3854 63.875 55.2813 67C58.1771 70.1042 59.625 74.3542 59.625 79.75C59.625 85.0625 58.2188 89.2812 55.4062 92.4062C52.5938 95.5312 48.7292 97.125 43.8125 97.1875H13.5V87.8125H43.5313C46.5104 87.8125 48.6875 87.1042 50.0625 85.6875C51.4167 84.25 52.0938 82.2708 52.0938 79.75C52.0938 74.4792 49.3229 71.8021 43.7813 71.7188H13.5V62.3125ZM47.0625 31.0312C45.2917 31.0312 43.9375 31.6562 43 32.9062C42.0417 34.1562 41.0417 36.4062 40 39.6562C38.9375 42.9062 37.8958 45.4792 36.875 47.375C34.0833 52.5417 30.3229 55.125 25.5938 55.125C23.1354 55.125 20.9479 54.4375 19.0313 53.0625C17.0938 51.6667 15.5833 49.6771 14.5 47.0938C13.4167 44.4896 12.875 41.5729 12.875 38.3438C12.875 35.0938 13.4688 32.1979 14.6563 29.6562C15.8229 27.1146 17.4792 25.1458 19.625 23.75C21.7708 22.3333 24.2083 21.625 26.9375 21.625V31C24.8542 31 23.2396 31.6562 22.0938 32.9688C20.9271 34.2812 20.3438 36.125 20.3438 38.5C20.3438 40.7917 20.8333 42.5729 21.8125 43.8438C22.7708 45.1146 24.0417 45.75 25.625 45.75C27.1042 45.75 28.3438 45.0104 29.3438 43.5312C30.3438 42.0312 31.2813 39.8333 32.1563 36.9375C33.7604 31.6042 35.75 27.7188 38.125 25.2812C40.5 22.8438 43.4583 21.625 47 21.625C50.9375 21.625 54.0313 23.1146 56.2813 26.0938C58.5104 29.0729 59.625 33.0833 59.625 38.125C59.625 41.625 58.9896 44.8125 57.7188 47.6875C56.4271 50.5625 54.6667 52.7604 52.4375 54.2812C50.2083 55.7812 47.625 56.5312 44.6875 56.5312V47.125C49.7083 47.125 52.2188 44.125 52.2188 38.125C52.2188 35.8958 51.7708 34.1562 50.875 32.9062C49.9583 31.6562 48.6875 31.0312 47.0625 31.0312Z" fill="#968482"/>
<path d="M107.062 124.078H89.9531V139.734H109.453V141H88.6875V106.875H109.453V108.141H89.9531V122.812H107.062V124.078ZM118.065 121.547C118.893 119.578 120.112 118.023 121.721 116.883C123.331 115.742 125.112 115.172 127.065 115.172C129.784 115.172 131.799 115.945 133.112 117.492C134.44 119.023 135.112 121.344 135.128 124.453V141H133.862V124.406C133.846 121.688 133.292 119.68 132.198 118.383C131.104 117.07 129.37 116.414 126.995 116.414C124.807 116.414 122.909 117.195 121.299 118.758C119.706 120.305 118.628 122.305 118.065 124.758V141H116.799V115.641H118.065V121.547ZM160.169 134.789C160.169 131.711 157.544 129.617 152.294 128.508C149.138 127.836 146.943 126.977 145.708 125.93C144.474 124.867 143.857 123.414 143.857 121.57C143.857 119.711 144.638 118.18 146.2 116.977C147.778 115.773 149.825 115.172 152.341 115.172C155.075 115.172 157.271 115.828 158.927 117.141C160.583 118.438 161.411 120.195 161.411 122.414H160.122C160.122 120.711 159.403 119.289 157.966 118.148C156.528 117.008 154.653 116.438 152.341 116.438C150.122 116.438 148.364 116.922 147.068 117.891C145.771 118.859 145.122 120.07 145.122 121.523C145.122 122.664 145.364 123.562 145.849 124.219C146.333 124.859 147.122 125.445 148.216 125.977C149.31 126.492 150.903 126.992 152.997 127.477C155.091 127.961 156.747 128.531 157.966 129.188C159.185 129.844 160.068 130.625 160.614 131.531C161.161 132.422 161.435 133.516 161.435 134.812C161.435 136.812 160.614 138.422 158.974 139.641C157.333 140.859 155.185 141.469 152.528 141.469C149.685 141.469 147.388 140.828 145.638 139.547C143.903 138.25 143.036 136.586 143.036 134.555H144.302C144.427 136.336 145.208 137.727 146.646 138.727C148.099 139.711 150.06 140.203 152.528 140.203C154.794 140.203 156.63 139.68 158.036 138.633C159.458 137.57 160.169 136.289 160.169 134.789ZM179 141.469C176.953 141.469 175.07 140.922 173.351 139.828C171.648 138.719 170.312 137.203 169.343 135.281C168.375 133.359 167.89 131.227 167.89 128.883V127.828C167.89 125.484 168.359 123.336 169.297 121.383C170.234 119.43 171.523 117.906 173.164 116.812C174.804 115.719 176.593 115.172 178.531 115.172C181.359 115.172 183.672 116.18 185.468 118.195C187.265 120.211 188.164 122.859 188.164 126.141V127.477H169.156V128.859C169.156 130.922 169.586 132.836 170.445 134.602C171.32 136.352 172.515 137.727 174.031 138.727C175.562 139.727 177.218 140.227 179 140.227C180.703 140.227 182.148 139.945 183.336 139.383C184.539 138.805 185.601 137.922 186.523 136.734L187.414 137.367C185.523 140.102 182.718 141.469 179 141.469ZM178.531 116.438C176.062 116.438 173.968 117.359 172.25 119.203C170.531 121.031 169.523 123.367 169.226 126.211H186.898V125.906C186.898 124.188 186.531 122.594 185.797 121.125C185.078 119.641 184.078 118.492 182.797 117.68C181.531 116.852 180.109 116.438 178.531 116.438ZM213.651 141H212.385V123.961C212.369 121.414 211.807 119.523 210.698 118.289C209.604 117.039 207.854 116.414 205.448 116.414C202.666 116.414 200.393 117.641 198.627 120.094C197.58 121.562 196.885 123.188 196.541 124.969V141H195.252V115.641H196.541V121.641C197.401 119.578 198.627 117.984 200.221 116.859C201.815 115.734 203.58 115.172 205.518 115.172C207.643 115.172 209.377 115.641 210.721 116.578C212.08 117.516 212.971 119.047 213.393 121.172C214.143 119.344 215.362 117.891 217.049 116.812C218.737 115.719 220.627 115.172 222.721 115.172C225.455 115.172 227.487 115.945 228.815 117.492C230.158 119.039 230.838 121.359 230.854 124.453V141H229.588V124.547C229.588 121.766 229.026 119.711 227.901 118.383C226.791 117.039 225.041 116.383 222.651 116.414C219.573 116.461 217.135 117.688 215.338 120.094C214.307 121.484 213.744 122.828 213.651 124.125V141ZM259.364 128.555C259.364 132.508 258.512 135.648 256.809 137.977C255.106 140.305 252.786 141.469 249.848 141.469C247.942 141.469 246.239 141.078 244.739 140.297C243.239 139.5 242.059 138.398 241.2 136.992V141H239.934V105H241.2V120.258C242.091 118.586 243.262 117.32 244.716 116.461C246.184 115.602 247.88 115.172 249.802 115.172C252.77 115.172 255.106 116.312 256.809 118.594C258.512 120.859 259.364 124.047 259.364 128.156V128.555ZM258.052 128.062C258.052 124.422 257.325 121.578 255.872 119.531C254.434 117.469 252.419 116.438 249.825 116.438C247.7 116.438 245.895 116.984 244.411 118.078C242.942 119.172 241.872 120.797 241.2 122.953V134.578C241.872 136.375 242.942 137.766 244.411 138.75C245.895 139.719 247.716 140.203 249.872 140.203C252.481 140.203 254.497 139.164 255.919 137.086C257.341 135.008 258.052 132 258.052 128.062ZM269.288 141H268.023V105H269.288V141ZM288.166 141.469C286.119 141.469 284.236 140.922 282.518 139.828C280.814 138.719 279.478 137.203 278.51 135.281C277.541 133.359 277.057 131.227 277.057 128.883V127.828C277.057 125.484 277.525 123.336 278.463 121.383C279.4 119.43 280.689 117.906 282.33 116.812C283.971 115.719 285.76 115.172 287.697 115.172C290.525 115.172 292.838 116.18 294.635 118.195C296.432 120.211 297.33 122.859 297.33 126.141V127.477H278.322V128.859C278.322 130.922 278.752 132.836 279.611 134.602C280.486 136.352 281.682 137.727 283.197 138.727C284.728 139.727 286.385 140.227 288.166 140.227C289.869 140.227 291.314 139.945 292.502 139.383C293.705 138.805 294.768 137.922 295.689 136.734L296.58 137.367C294.689 140.102 291.885 141.469 288.166 141.469ZM287.697 116.438C285.228 116.438 283.135 117.359 281.416 119.203C279.697 121.031 278.689 123.367 278.393 126.211H296.064V125.906C296.064 124.188 295.697 122.594 294.963 121.125C294.244 119.641 293.244 118.492 291.963 117.68C290.697 116.852 289.275 116.438 287.697 116.438Z" fill="white"/>
<path d="M129.484 78.3516H103.801L98.918 93H83.3418L109.807 21.9062H123.381L149.992 93H134.416L129.484 78.3516ZM107.756 66.4863H125.529L116.594 39.875L107.756 66.4863ZM209.445 93H194.797L166.281 46.2227V93H151.633V21.9062H166.281L194.846 68.7812V21.9062H209.445V93ZM273.488 84.0156C270.852 87.1732 267.124 89.6309 262.307 91.3887C257.489 93.1139 252.15 93.9766 246.291 93.9766C240.139 93.9766 234.735 92.6419 230.08 89.9727C225.458 87.2708 221.877 83.3646 219.338 78.2539C216.831 73.1432 215.546 67.1374 215.48 60.2363V55.4023C215.48 48.306 216.669 42.1699 219.045 36.9941C221.454 31.7858 224.904 27.8145 229.396 25.0801C233.921 22.3132 239.211 20.9297 245.266 20.9297C253.697 20.9297 260.288 22.9479 265.041 26.9844C269.794 30.9883 272.609 36.8314 273.488 44.5137H259.23C258.579 40.4447 257.131 37.4661 254.885 35.5781C252.671 33.6901 249.611 32.7461 245.705 32.7461C240.725 32.7461 236.932 34.6178 234.328 38.3613C231.724 42.1048 230.406 47.6712 230.373 55.0605V59.6016C230.373 67.056 231.789 72.6875 234.621 76.4961C237.453 80.3047 241.604 82.209 247.072 82.209C252.574 82.209 256.496 81.0371 258.84 78.6934V66.4375H245.51V55.6465H273.488V84.0156ZM302.668 64.4844L295.051 72.6875V93H280.402V21.9062H295.051V54.1328L301.496 45.2949L319.611 21.9062H337.629L312.385 53.498L338.361 93H320.93L302.668 64.4844ZM353.527 81.2324H384.631V93H338.879V21.9062H353.527V81.2324ZM440.715 21.9062V68.7324C440.715 76.5124 438.273 82.6647 433.391 87.1895C428.54 91.7142 421.9 93.9766 413.469 93.9766C405.168 93.9766 398.576 91.7793 393.693 87.3848C388.811 82.9902 386.32 76.9518 386.223 69.2695V21.9062H400.871V68.8301C400.871 73.485 401.978 76.8867 404.191 79.0352C406.438 81.151 409.53 82.209 413.469 82.209C421.704 82.209 425.887 77.8796 426.018 69.2207V21.9062H440.715ZM505.539 93H490.891L462.375 46.2227V93H447.727V21.9062H462.375L490.939 68.7812V21.9062H505.539V93ZM569.582 84.0156C566.945 87.1732 563.218 89.6309 558.4 91.3887C553.583 93.1139 548.244 93.9766 542.385 93.9766C536.232 93.9766 530.829 92.6419 526.174 89.9727C521.551 87.2708 517.971 83.3646 515.432 78.2539C512.925 73.1432 511.639 67.1374 511.574 60.2363V55.4023C511.574 48.306 512.762 42.1699 515.139 36.9941C517.548 31.7858 520.998 27.8145 525.49 25.0801C530.015 22.3132 535.305 20.9297 541.359 20.9297C549.79 20.9297 556.382 22.9479 561.135 26.9844C565.887 30.9883 568.703 36.8314 569.582 44.5137H555.324C554.673 40.4447 553.225 37.4661 550.979 35.5781C548.765 33.6901 545.705 32.7461 541.799 32.7461C536.818 32.7461 533.026 34.6178 530.422 38.3613C527.818 42.1048 526.499 47.6712 526.467 55.0605V59.6016C526.467 67.056 527.883 72.6875 530.715 76.4961C533.547 80.3047 537.697 82.209 543.166 82.209C548.667 82.209 552.59 81.0371 554.934 78.6934V66.4375H541.604V55.6465H569.582V84.0156Z" fill="url(#paint0_linear)"/>
<path d="M129.484 78.3516L130.346 78.0614L130.138 77.442H129.484V78.3516ZM103.801 78.3516V77.442H103.145L102.938 78.0639L103.801 78.3516ZM98.918 93V93.9095H99.5735L99.7808 93.2876L98.918 93ZM83.3418 93L82.4894 92.6827L82.0327 93.9095H83.3418V93ZM109.807 21.9062V20.9967H109.175L108.954 21.5889L109.807 21.9062ZM123.381 21.9062L124.233 21.5874L124.012 20.9967H123.381V21.9062ZM149.992 93V93.9095H151.304L150.844 92.6811L149.992 93ZM134.416 93L133.554 93.2902L133.763 93.9095H134.416V93ZM107.756 66.4863L106.893 66.1997L106.495 67.3959H107.756V66.4863ZM125.529 66.4863V67.3959H126.794L126.392 66.1968L125.529 66.4863ZM116.594 39.875L117.456 39.5855L116.589 37.0035L115.731 39.5883L116.594 39.875ZM129.484 77.442H103.801V79.2611H129.484V77.442ZM102.938 78.0639L98.0551 92.7124L99.7808 93.2876L104.664 78.6392L102.938 78.0639ZM98.918 92.0905H83.3418V93.9095H98.918V92.0905ZM84.1942 93.3173L110.659 22.2236L108.954 21.5889L82.4894 92.6827L84.1942 93.3173ZM109.807 22.8158H123.381V20.9967H109.807V22.8158ZM122.529 22.2251L149.14 93.3189L150.844 92.6811L124.233 21.5874L122.529 22.2251ZM149.992 92.0905H134.416V93.9095H149.992V92.0905ZM135.278 92.7098L130.346 78.0614L128.622 78.6418L133.554 93.2902L135.278 92.7098ZM107.756 67.3959H125.529V65.5768H107.756V67.3959ZM126.392 66.1968L117.456 39.5855L115.732 40.1645L124.667 66.7759L126.392 66.1968ZM115.731 39.5883L106.893 66.1997L108.619 66.773L117.457 40.1617L115.731 39.5883ZM209.445 93V93.9095H210.355V93H209.445ZM194.797 93L194.02 93.4734L194.286 93.9095H194.797V93ZM166.281 46.2227L167.058 45.7492L165.372 42.9832V46.2227H166.281ZM166.281 93V93.9095H167.191V93H166.281ZM151.633 93H150.723V93.9095H151.633V93ZM151.633 21.9062V20.9967H150.723V21.9062H151.633ZM166.281 21.9062L167.058 21.4329L166.792 20.9967H166.281V21.9062ZM194.846 68.7812L194.069 69.2546L195.755 72.0217V68.7812H194.846ZM194.846 21.9062V20.9967H193.936V21.9062H194.846ZM209.445 21.9062H210.355V20.9967H209.445V21.9062ZM209.445 92.0905H194.797V93.9095H209.445V92.0905ZM195.573 92.5266L167.058 45.7492L165.505 46.6961L194.02 93.4734L195.573 92.5266ZM165.372 46.2227V93H167.191V46.2227H165.372ZM166.281 92.0905H151.633V93.9095H166.281V92.0905ZM152.542 93V21.9062H150.723V93H152.542ZM151.633 22.8158H166.281V20.9967H151.633V22.8158ZM165.505 22.3796L194.069 69.2546L195.622 68.3079L167.058 21.4329L165.505 22.3796ZM195.755 68.7812V21.9062H193.936V68.7812H195.755ZM194.846 22.8158H209.445V20.9967H194.846V22.8158ZM208.536 21.9062V93H210.355V21.9062H208.536ZM273.488 84.0156L274.186 84.5986L274.398 84.3454V84.0156H273.488ZM262.307 91.3887L262.613 92.245L262.618 92.2431L262.307 91.3887ZM230.08 89.9727L229.621 90.7579L229.628 90.7617L230.08 89.9727ZM219.338 78.2539L218.521 78.6544L218.523 78.6586L219.338 78.2539ZM215.48 60.2363L214.571 60.2363L214.571 60.2449L215.48 60.2363ZM219.045 36.9941L218.219 36.6123L218.218 36.6146L219.045 36.9941ZM229.396 25.0801L229.869 25.857L229.871 25.856L229.396 25.0801ZM265.041 26.9844L264.452 27.6776L264.455 27.68L265.041 26.9844ZM273.488 44.5137V45.4232H274.508L274.392 44.4103L273.488 44.5137ZM259.23 44.5137L258.332 44.6574L258.455 45.4232H259.23V44.5137ZM254.885 35.5781L254.295 36.2702L254.3 36.2744L254.885 35.5781ZM234.328 38.3613L233.581 37.8419L234.328 38.3613ZM230.373 55.0605L229.463 55.0565V55.0605H230.373ZM258.84 78.6934L259.483 79.3365L259.749 79.0701V78.6934H258.84ZM258.84 66.4375H259.749V65.528H258.84V66.4375ZM245.51 66.4375H244.6V67.347H245.51V66.4375ZM245.51 55.6465V54.7369H244.6V55.6465H245.51ZM273.488 55.6465H274.398V54.7369H273.488V55.6465ZM272.79 83.4326C270.279 86.4404 266.699 88.8179 261.995 90.5342L262.618 92.2431C267.55 90.4438 271.425 87.906 274.186 84.5986L272.79 83.4326ZM262 90.5324C257.294 92.2177 252.061 93.067 246.291 93.067V94.8861C252.24 94.8861 257.684 94.0102 262.613 92.245L262 90.5324ZM246.291 93.067C240.274 93.067 235.031 91.763 230.533 89.1836L229.628 90.7617C234.439 93.5209 240.004 94.8861 246.291 94.8861V93.067ZM230.539 89.1874C226.08 86.5811 222.618 82.8121 220.152 77.8492L218.523 78.6586C221.136 83.9171 224.835 87.9606 229.621 90.7579L230.539 89.1874ZM220.155 77.8534C217.719 72.8879 216.454 67.0212 216.39 60.2277L214.571 60.2449C214.637 67.2535 215.944 73.3985 218.521 78.6544L220.155 77.8534ZM216.39 60.2363V55.4023H214.571V60.2363H216.39ZM216.39 55.4023C216.39 48.4056 217.562 42.4048 219.872 37.3736L218.218 36.6146C215.776 41.935 214.571 48.2063 214.571 55.4023H216.39ZM219.87 37.3759C222.211 32.3158 225.545 28.489 229.869 25.857L228.924 24.3031C224.263 27.1399 220.697 31.2558 218.219 36.6123L219.87 37.3759ZM229.871 25.856C234.234 23.1883 239.354 21.8392 245.266 21.8392V20.0201C239.068 20.0201 233.609 21.438 228.922 24.3041L229.871 25.856ZM245.266 21.8392C253.557 21.8392 259.914 23.8233 264.452 27.6776L265.63 26.2911C260.663 22.0725 253.836 20.0201 245.266 20.0201V21.8392ZM264.455 27.68C268.989 31.4999 271.725 37.1064 272.585 44.6171L274.392 44.4103C273.493 36.5564 270.598 30.4767 265.627 26.2888L264.455 27.68ZM273.488 43.6041H259.23V45.4232H273.488V43.6041ZM260.129 44.37C259.457 40.1718 257.94 36.9582 255.47 34.8819L254.3 36.2744C256.322 37.9741 257.702 40.7175 258.332 44.6574L260.129 44.37ZM255.475 34.8861C253.048 32.8158 249.753 31.8365 245.705 31.8365V33.6556C249.47 33.6556 252.295 34.5644 254.295 36.2701L255.475 34.8861ZM245.705 31.8365C240.459 31.8365 236.373 33.8287 233.581 37.8419L235.075 38.8807C237.491 35.4069 240.99 33.6556 245.705 33.6556V31.8365ZM233.581 37.8419C230.825 41.8043 229.496 47.5872 229.464 55.0565L231.283 55.0646C231.315 47.7552 232.623 42.4053 235.075 38.8807L233.581 37.8419ZM229.463 55.0605V59.6016H231.283V55.0605H229.463ZM229.463 59.6016C229.463 67.1475 230.893 73.0065 233.891 77.0388L235.351 75.9534C232.685 72.3685 231.283 66.9645 231.283 59.6016H229.463ZM233.891 77.0388C236.923 81.1155 241.366 83.1185 247.072 83.1185V81.2994C241.841 81.2994 237.984 79.4938 235.351 75.9534L233.891 77.0388ZM247.072 83.1185C252.664 83.1185 256.886 81.934 259.483 79.3365L258.197 78.0502C256.107 80.1403 252.483 81.2994 247.072 81.2994V83.1185ZM259.749 78.6934V66.4375H257.93V78.6934H259.749ZM258.84 65.528H245.51V67.347H258.84V65.528ZM246.419 66.4375V55.6465H244.6V66.4375H246.419ZM245.51 56.556H273.488V54.7369H245.51V56.556ZM272.579 55.6465V84.0156H274.398V55.6465H272.579ZM302.668 64.4844L303.434 63.9939L302.801 63.0049L302.001 63.8655L302.668 64.4844ZM295.051 72.6875L294.384 72.0686L294.141 72.3303V72.6875H295.051ZM295.051 93V93.9095H295.96V93H295.051ZM280.402 93H279.493V93.9095H280.402V93ZM280.402 21.9062V20.9967H279.493V21.9062H280.402ZM295.051 21.9062H295.96V20.9967H295.051V21.9062ZM295.051 54.1328H294.141V56.9236L295.786 54.6687L295.051 54.1328ZM301.496 45.2949L300.777 44.738L300.769 44.7484L300.761 44.759L301.496 45.2949ZM319.611 21.9062V20.9967H319.165L318.892 21.3493L319.611 21.9062ZM337.629 21.9062L338.339 22.474L339.52 20.9967H337.629V21.9062ZM312.385 53.498L311.674 52.9303L311.262 53.4461L311.625 53.9978L312.385 53.498ZM338.361 93V93.9095H340.048L339.121 92.5003L338.361 93ZM320.93 93L320.164 93.4905L320.432 93.9095H320.93V93ZM302.001 63.8655L294.384 72.0686L295.717 73.3064L303.334 65.1033L302.001 63.8655ZM294.141 72.6875V93H295.96V72.6875H294.141ZM295.051 92.0905H280.402V93.9095H295.051V92.0905ZM281.312 93V21.9062H279.493V93H281.312ZM280.402 22.8158H295.051V20.9967H280.402V22.8158ZM294.141 21.9062V54.1328H295.96V21.9062H294.141ZM295.786 54.6687L302.231 45.8309L300.761 44.759L294.316 53.5969L295.786 54.6687ZM302.215 45.8519L320.33 22.4632L318.892 21.3493L300.777 44.738L302.215 45.8519ZM319.611 22.8158H337.629V20.9967H319.611V22.8158ZM336.918 21.3385L311.674 52.9303L313.095 54.0658L338.339 22.474L336.918 21.3385ZM311.625 53.9978L337.601 93.4997L339.121 92.5003L313.145 52.9983L311.625 53.9978ZM338.361 92.0905H320.93V93.9095H338.361V92.0905ZM321.696 92.5095L303.434 63.9939L301.902 64.9749L320.164 93.4905L321.696 92.5095ZM353.527 81.2324H352.618V82.142H353.527V81.2324ZM384.631 81.2324H385.54V80.3229H384.631V81.2324ZM384.631 93V93.9095H385.54V93H384.631ZM338.879 93H337.969V93.9095H338.879V93ZM338.879 21.9062V20.9967H337.969V21.9062H338.879ZM353.527 21.9062H354.437V20.9967H353.527V21.9062ZM353.527 82.142H384.631V80.3229H353.527V82.142ZM383.721 81.2324V93H385.54V81.2324H383.721ZM384.631 92.0905H338.879V93.9095H384.631V92.0905ZM339.788 93V21.9062H337.969V93H339.788ZM338.879 22.8158H353.527V20.9967H338.879V22.8158ZM352.618 21.9062V81.2324H354.437V21.9062H352.618ZM440.715 21.9062H441.624V20.9967H440.715V21.9062ZM433.391 87.1895L432.772 86.5223L432.77 86.5244L433.391 87.1895ZM386.223 69.2695H385.313L385.313 69.2811L386.223 69.2695ZM386.223 21.9062V20.9967H385.313V21.9062H386.223ZM400.871 21.9062H401.781V20.9967H400.871V21.9062ZM404.191 79.0352L403.558 79.6879L403.568 79.6972L404.191 79.0352ZM426.018 69.2207L426.927 69.2344V69.2207H426.018ZM426.018 21.9062V20.9967H425.108V21.9062H426.018ZM439.805 21.9062V68.7324H441.624V21.9062H439.805ZM439.805 68.7324C439.805 76.3058 437.438 82.199 432.772 86.5223L434.009 87.8566C439.109 83.1304 441.624 76.7189 441.624 68.7324H439.805ZM432.77 86.5244C428.13 90.8527 421.734 93.067 413.469 93.067V94.8861C422.065 94.8861 428.95 92.5756 434.011 87.8545L432.77 86.5244ZM413.469 93.067C405.331 93.067 398.977 90.9164 394.302 86.7087L393.085 88.0608C398.175 92.6422 405.005 94.8861 413.469 94.8861V93.067ZM394.302 86.7087C389.64 82.5131 387.227 76.7335 387.132 69.258L385.313 69.2811C385.413 77.1702 387.981 83.4674 393.085 88.0608L394.302 86.7087ZM387.132 69.2695V21.9062H385.313V69.2695H387.132ZM386.223 22.8158H400.871V20.9967H386.223V22.8158ZM399.962 21.9062V68.8301H401.781V21.9062H399.962ZM399.962 68.8301C399.962 73.607 401.095 77.2976 403.558 79.6878L404.825 78.3825C402.86 76.4758 401.781 73.3631 401.781 68.8301H399.962ZM403.568 79.6972C406.026 82.0125 409.365 83.1185 413.469 83.1185V81.2994C409.695 81.2994 406.849 80.2896 404.815 78.3731L403.568 79.6972ZM413.469 83.1185C417.74 83.1185 421.118 81.9935 423.437 79.5939C425.747 77.2024 426.86 73.6941 426.927 69.2344L425.108 69.207C425.045 73.4062 424.001 76.392 422.129 78.3299C420.264 80.2597 417.433 81.2994 413.469 81.2994V83.1185ZM426.927 69.2207V21.9062H425.108V69.2207H426.927ZM426.018 22.8158H440.715V20.9967H426.018V22.8158ZM505.539 93V93.9095H506.449V93H505.539ZM490.891 93L490.114 93.4734L490.38 93.9095H490.891V93ZM462.375 46.2227L463.152 45.7492L461.465 42.9832V46.2227H462.375ZM462.375 93V93.9095H463.285V93H462.375ZM447.727 93H446.817V93.9095H447.727V93ZM447.727 21.9062V20.9967H446.817V21.9062H447.727ZM462.375 21.9062L463.152 21.4329L462.886 20.9967H462.375V21.9062ZM490.939 68.7812L490.163 69.2546L491.849 72.0217V68.7812H490.939ZM490.939 21.9062V20.9967H490.03V21.9062H490.939ZM505.539 21.9062H506.449V20.9967H505.539V21.9062ZM505.539 92.0905H490.891V93.9095H505.539V92.0905ZM491.667 92.5266L463.152 45.7492L461.598 46.6961L490.114 93.4734L491.667 92.5266ZM461.465 46.2227V93H463.285V46.2227H461.465ZM462.375 92.0905H447.727V93.9095H462.375V92.0905ZM448.636 93V21.9062H446.817V93H448.636ZM447.727 22.8158H462.375V20.9967H447.727V22.8158ZM461.598 22.3796L490.163 69.2546L491.716 68.3079L463.152 21.4329L461.598 22.3796ZM491.849 68.7812V21.9062H490.03V68.7812H491.849ZM490.939 22.8158H505.539V20.9967H490.939V22.8158ZM504.63 21.9062V93H506.449V21.9062H504.63ZM569.582 84.0156L570.28 84.5986L570.492 84.3454V84.0156H569.582ZM558.4 91.3887L558.707 92.245L558.712 92.2431L558.4 91.3887ZM526.174 89.9727L525.715 90.7579L525.721 90.7617L526.174 89.9727ZM515.432 78.2539L514.615 78.6544L514.617 78.6586L515.432 78.2539ZM511.574 60.2363L510.665 60.2363L510.665 60.2449L511.574 60.2363ZM515.139 36.9941L514.313 36.6123L514.312 36.6146L515.139 36.9941ZM525.49 25.0801L525.963 25.857L525.965 25.856L525.49 25.0801ZM561.135 26.9844L560.546 27.6776L560.549 27.68L561.135 26.9844ZM569.582 44.5137V45.4232H570.602L570.486 44.4103L569.582 44.5137ZM555.324 44.5137L554.426 44.6574L554.549 45.4232H555.324V44.5137ZM550.979 35.5781L550.388 36.2702L550.393 36.2744L550.979 35.5781ZM530.422 38.3613L529.675 37.8419L530.422 38.3613ZM526.467 55.0605L525.557 55.0565V55.0605H526.467ZM554.934 78.6934L555.577 79.3365L555.843 79.0701V78.6934H554.934ZM554.934 66.4375H555.843V65.528H554.934V66.4375ZM541.604 66.4375H540.694V67.347H541.604V66.4375ZM541.604 55.6465V54.7369H540.694V55.6465H541.604ZM569.582 55.6465H570.492V54.7369H569.582V55.6465ZM568.884 83.4326C566.372 86.4404 562.793 88.8179 558.089 90.5342L558.712 92.2431C563.644 90.4438 567.518 87.906 570.28 84.5986L568.884 83.4326ZM558.094 90.5324C553.388 92.2177 548.155 93.067 542.385 93.067V94.8861C548.334 94.8861 553.778 94.0102 558.707 92.245L558.094 90.5324ZM542.385 93.067C536.368 93.067 531.124 91.763 526.626 89.1836L525.721 90.7617C530.533 93.5209 536.097 94.8861 542.385 94.8861V93.067ZM526.633 89.1874C522.174 86.5811 518.712 82.8121 516.246 77.8492L514.617 78.6586C517.23 83.9171 520.929 87.9606 525.715 90.7579L526.633 89.1874ZM516.248 77.8534C513.813 72.8879 512.548 67.0212 512.484 60.2277L510.665 60.2449C510.731 67.2535 512.037 73.3985 514.615 78.6544L516.248 77.8534ZM512.484 60.2363V55.4023H510.665V60.2363H512.484ZM512.484 55.4023C512.484 48.4056 513.655 42.4048 515.965 37.3736L514.312 36.6146C511.869 41.935 510.665 48.2063 510.665 55.4023H512.484ZM515.964 37.3759C518.305 32.3158 521.639 28.489 525.963 25.857L525.017 24.3031C520.357 27.1399 516.791 31.2558 514.313 36.6123L515.964 37.3759ZM525.965 25.856C530.327 23.1883 535.448 21.8392 541.359 21.8392V20.0201C535.161 20.0201 529.703 21.438 525.016 24.3041L525.965 25.856ZM541.359 21.8392C549.651 21.8392 556.008 23.8233 560.546 27.6776L561.724 26.2911C556.757 22.0725 549.93 20.0201 541.359 20.0201V21.8392ZM560.549 27.68C565.083 31.4999 567.819 37.1064 568.678 44.6171L570.486 44.4103C569.587 36.5564 566.692 30.4767 561.721 26.2888L560.549 27.68ZM569.582 43.6041H555.324V45.4232H569.582V43.6041ZM556.222 44.37C555.551 40.1718 554.034 36.9582 551.564 34.8819L550.393 36.2744C552.415 37.9741 553.796 40.7175 554.426 44.6574L556.222 44.37ZM551.569 34.8861C549.142 32.8158 545.847 31.8365 541.799 31.8365V33.6556C545.563 33.6556 548.388 34.5644 550.388 36.2701L551.569 34.8861ZM541.799 31.8365C536.553 31.8365 532.467 33.8287 529.675 37.8419L531.169 38.8807C533.585 35.4069 537.084 33.6556 541.799 33.6556V31.8365ZM529.675 37.8419C526.919 41.8043 525.59 47.5872 525.557 55.0565L527.376 55.0646C527.409 47.7552 528.717 42.4053 531.169 38.8807L529.675 37.8419ZM525.557 55.0605V59.6016H527.376V55.0605H525.557ZM525.557 59.6016C525.557 67.1475 526.987 73.0065 529.985 77.0388L531.445 75.9534C528.779 72.3685 527.376 66.9645 527.376 59.6016H525.557ZM529.985 77.0388C533.016 81.1155 537.46 83.1185 543.166 83.1185V81.2994C537.935 81.2994 534.077 79.4938 531.445 75.9534L529.985 77.0388ZM543.166 83.1185C548.758 83.1185 552.979 81.934 555.577 79.3365L554.29 78.0502C552.2 80.1403 548.577 81.2994 543.166 81.2994V83.1185ZM555.843 78.6934V66.4375H554.024V78.6934H555.843ZM554.934 65.528H541.604V67.347H554.934V65.528ZM542.513 66.4375V55.6465H540.694V66.4375H542.513ZM541.604 56.556H569.582V54.7369H541.604V56.556ZM568.672 55.6465V84.0156H570.492V55.6465H568.672Z" fill="black"/>
<defs>
<linearGradient id="paint0_linear" x1="335" y1="0" x2="335" y2="97" gradientUnits="userSpaceOnUse">
<stop offset="0.9999" stop-color="#F2D4B9"/>
<stop offset="1" stop-color="white" stop-opacity="0"/>
</linearGradient>
</defs>
</svg>
