<svg width="548" height="160" viewBox="0 0 548 160" fill="none" xmlns="http://www.w3.org/2000/svg">
<path d="M28 126.752V131.146L13.9668 139.701H28V144.096H6.67188V139.701L20.7344 131.132H6.67188V126.752H28ZM6.67188 106.771H20.7197C23.0537 106.771 24.8994 107.504 26.2568 108.969C27.6143 110.424 28.293 112.416 28.293 114.945C28.293 117.436 27.6338 119.413 26.3154 120.878C24.9971 122.343 23.1855 123.09 20.8809 123.119H6.67188V118.725H20.749C22.1455 118.725 23.166 118.393 23.8105 117.729C24.4453 117.055 24.7627 116.127 24.7627 114.945C24.7627 112.475 23.4639 111.22 20.8662 111.181H6.67188L6.67188 106.771ZM22.4043 92.1084C21.5742 92.1084 20.9395 92.4014 20.5 92.9873C20.0508 93.5732 19.582 94.6279 19.0938 96.1514C18.5957 97.6748 18.1074 98.8809 17.6289 99.7695C16.3203 102.191 14.5576 103.402 12.3408 103.402C11.1885 103.402 10.1631 103.08 9.26465 102.436C8.35645 101.781 7.64844 100.849 7.14063 99.6377C6.63281 98.417 6.37891 97.0498 6.37891 95.5361C6.37891 94.0127 6.65723 92.6553 7.21387 91.4639C7.76074 90.2725 8.53711 89.3496 9.54297 88.6953C10.5488 88.0312 11.6914 87.6992 12.9707 87.6992V92.0938C11.9941 92.0938 11.2373 92.4014 10.7002 93.0166C10.1533 93.6318 9.87988 94.4961 9.87988 95.6094C9.87988 96.6836 10.1094 97.5186 10.5684 98.1143C11.0176 98.71 11.6133 99.0078 12.3555 99.0078C13.0488 99.0078 13.6299 98.6611 14.0986 97.9678C14.5674 97.2646 15.0068 96.2344 15.417 94.877C16.1689 92.377 17.1016 90.5557 18.2148 89.4131C19.3281 88.2705 20.7148 87.6992 22.375 87.6992C24.2207 87.6992 25.6709 88.3975 26.7256 89.7939C27.7705 91.1904 28.293 93.0703 28.293 95.4336C28.293 97.0742 27.9951 98.5684 27.3994 99.916C26.7939 101.264 25.9688 102.294 24.9238 103.007C23.8789 103.71 22.668 104.062 21.291 104.062V99.6523C23.6445 99.6523 24.8213 98.2461 24.8213 95.4336C24.8213 94.3887 24.6113 93.5732 24.1914 92.9873C23.7617 92.4014 23.166 92.1084 22.4043 92.1084ZM20.8955 60.4971C23.1904 60.6631 24.9971 61.5127 26.3154 63.0459C27.6338 64.5693 28.293 66.5811 28.293 69.0811C28.293 71.8154 27.375 73.9688 25.5391 75.541C23.6934 77.1035 21.1641 77.8848 17.9512 77.8848H16.6475C14.5967 77.8848 12.79 77.5234 11.2275 76.8008C9.66504 76.0781 8.46875 75.0479 7.63867 73.71C6.79883 72.3623 6.37891 70.7998 6.37891 69.0225C6.37891 66.5615 7.03809 64.5791 8.35645 63.0752C9.6748 61.5713 11.5254 60.7021 13.9082 60.4678V64.8623C12.5313 64.9697 11.5352 65.3555 10.9199 66.0195C10.2949 66.6738 9.98242 67.6748 9.98242 69.0225C9.98242 70.4873 10.5098 71.5859 11.5645 72.3184C12.6094 73.041 14.2354 73.4121 16.4424 73.4316H18.0537C20.3584 73.4316 22.043 73.085 23.1074 72.3916C24.1719 71.6885 24.7041 70.585 24.7041 69.0811C24.7041 67.7236 24.3965 66.7129 23.7813 66.0488C23.1563 65.375 22.1943 64.9893 20.8955 64.8916V60.4971ZM23.6055 45.5703V53.2754L28 54.7402L28 59.4131L6.67188 51.4736V47.4014L28 39.418V44.0908L23.6055 45.5703ZM20.0459 52.0889V46.7568L12.0625 49.4375L20.0459 52.0889ZM20.8955 21.0049C23.1904 21.1709 24.9971 22.0205 26.3154 23.5537C27.6338 25.0771 28.293 27.0889 28.293 29.5889C28.293 32.3232 27.375 34.4766 25.5391 36.0488C23.6934 37.6113 21.1641 38.3926 17.9512 38.3926H16.6475C14.5967 38.3926 12.79 38.0312 11.2275 37.3086C9.66504 36.5859 8.46875 35.5557 7.63867 34.2178C6.79883 32.8701 6.37891 31.3076 6.37891 29.5303C6.37891 27.0693 7.03809 25.0869 8.35645 23.583C9.6748 22.0791 11.5254 21.21 13.9082 20.9756V25.3701C12.5313 25.4775 11.5352 25.8633 10.9199 26.5273C10.2949 27.1816 9.98242 28.1826 9.98242 29.5303C9.98242 30.9951 10.5098 32.0938 11.5645 32.8262C12.6094 33.5488 14.2354 33.9199 16.4424 33.9395H18.0537C20.3584 33.9395 22.043 33.5928 23.1074 32.8994C24.1719 32.1963 24.7041 31.0928 24.7041 29.5889C24.7041 28.2314 24.3965 27.2207 23.7813 26.5566C23.1563 25.8828 22.1943 25.4971 20.8955 25.3994V21.0049Z" fill="#968482"/>
<path d="M67.0625 124.078H49.9531V139.734H69.4531V141H48.6875V106.875H69.4531V108.141H49.9531V122.812H67.0625V124.078ZM78.065 121.547C78.8931 119.578 80.1119 118.023 81.7213 116.883C83.3306 115.742 85.1119 115.172 87.065 115.172C89.7838 115.172 91.7994 115.945 93.1119 117.492C94.44 119.023 95.1119 121.344 95.1275 124.453V141H93.8619V124.406C93.8463 121.688 93.2916 119.68 92.1978 118.383C91.1041 117.07 89.3697 116.414 86.9947 116.414C84.8072 116.414 82.9088 117.195 81.2994 118.758C79.7056 120.305 78.6275 122.305 78.065 124.758V141H76.7994V115.641H78.065V121.547ZM120.169 134.789C120.169 131.711 117.544 129.617 112.294 128.508C109.138 127.836 106.943 126.977 105.708 125.93C104.474 124.867 103.857 123.414 103.857 121.57C103.857 119.711 104.638 118.18 106.2 116.977C107.778 115.773 109.825 115.172 112.341 115.172C115.075 115.172 117.271 115.828 118.927 117.141C120.583 118.438 121.411 120.195 121.411 122.414H120.122C120.122 120.711 119.403 119.289 117.966 118.148C116.528 117.008 114.653 116.438 112.341 116.438C110.122 116.438 108.364 116.922 107.068 117.891C105.771 118.859 105.122 120.07 105.122 121.523C105.122 122.664 105.364 123.562 105.849 124.219C106.333 124.859 107.122 125.445 108.216 125.977C109.31 126.492 110.903 126.992 112.997 127.477C115.091 127.961 116.747 128.531 117.966 129.188C119.185 129.844 120.068 130.625 120.614 131.531C121.161 132.422 121.435 133.516 121.435 134.812C121.435 136.812 120.614 138.422 118.974 139.641C117.333 140.859 115.185 141.469 112.528 141.469C109.685 141.469 107.388 140.828 105.638 139.547C103.903 138.25 103.036 136.586 103.036 134.555H104.302C104.427 136.336 105.208 137.727 106.646 138.727C108.099 139.711 110.06 140.203 112.528 140.203C114.794 140.203 116.63 139.68 118.036 138.633C119.458 137.57 120.169 136.289 120.169 134.789ZM139 141.469C136.953 141.469 135.07 140.922 133.351 139.828C131.648 138.719 130.312 137.203 129.343 135.281C128.375 133.359 127.89 131.227 127.89 128.883V127.828C127.89 125.484 128.359 123.336 129.297 121.383C130.234 119.43 131.523 117.906 133.164 116.812C134.804 115.719 136.593 115.172 138.531 115.172C141.359 115.172 143.672 116.18 145.468 118.195C147.265 120.211 148.164 122.859 148.164 126.141V127.477H129.156V128.859C129.156 130.922 129.586 132.836 130.445 134.602C131.32 136.352 132.515 137.727 134.031 138.727C135.562 139.727 137.218 140.227 139 140.227C140.703 140.227 142.148 139.945 143.336 139.383C144.539 138.805 145.601 137.922 146.523 136.734L147.414 137.367C145.523 140.102 142.718 141.469 139 141.469ZM138.531 116.438C136.062 116.438 133.968 117.359 132.25 119.203C130.531 121.031 129.523 123.367 129.226 126.211H146.898V125.906C146.898 124.188 146.531 122.594 145.797 121.125C145.078 119.641 144.078 118.492 142.797 117.68C141.531 116.852 140.109 116.438 138.531 116.438ZM173.651 141H172.385V123.961C172.369 121.414 171.807 119.523 170.698 118.289C169.604 117.039 167.854 116.414 165.448 116.414C162.666 116.414 160.393 117.641 158.627 120.094C157.58 121.562 156.885 123.188 156.541 124.969V141H155.252V115.641H156.541V121.641C157.401 119.578 158.627 117.984 160.221 116.859C161.815 115.734 163.58 115.172 165.518 115.172C167.643 115.172 169.377 115.641 170.721 116.578C172.08 117.516 172.971 119.047 173.393 121.172C174.143 119.344 175.362 117.891 177.049 116.812C178.737 115.719 180.627 115.172 182.721 115.172C185.455 115.172 187.487 115.945 188.815 117.492C190.158 119.039 190.838 121.359 190.854 124.453V141H189.588V124.547C189.588 121.766 189.026 119.711 187.901 118.383C186.791 117.039 185.041 116.383 182.651 116.414C179.573 116.461 177.135 117.688 175.338 120.094C174.307 121.484 173.744 122.828 173.651 124.125V141ZM219.364 128.555C219.364 132.508 218.512 135.648 216.809 137.977C215.106 140.305 212.786 141.469 209.848 141.469C207.942 141.469 206.239 141.078 204.739 140.297C203.239 139.5 202.059 138.398 201.2 136.992V141H199.934V105H201.2V120.258C202.091 118.586 203.262 117.32 204.716 116.461C206.184 115.602 207.88 115.172 209.802 115.172C212.77 115.172 215.106 116.312 216.809 118.594C218.512 120.859 219.364 124.047 219.364 128.156V128.555ZM218.052 128.062C218.052 124.422 217.325 121.578 215.872 119.531C214.434 117.469 212.419 116.438 209.825 116.438C207.7 116.438 205.895 116.984 204.411 118.078C202.942 119.172 201.872 120.797 201.2 122.953V134.578C201.872 136.375 202.942 137.766 204.411 138.75C205.895 139.719 207.716 140.203 209.872 140.203C212.481 140.203 214.497 139.164 215.919 137.086C217.341 135.008 218.052 132 218.052 128.062ZM229.288 141H228.023V105H229.288V141ZM248.166 141.469C246.119 141.469 244.236 140.922 242.518 139.828C240.814 138.719 239.478 137.203 238.51 135.281C237.541 133.359 237.057 131.227 237.057 128.883V127.828C237.057 125.484 237.525 123.336 238.463 121.383C239.4 119.43 240.689 117.906 242.33 116.812C243.971 115.719 245.76 115.172 247.697 115.172C250.525 115.172 252.838 116.18 254.635 118.195C256.432 120.211 257.33 122.859 257.33 126.141V127.477H238.322V128.859C238.322 130.922 238.752 132.836 239.611 134.602C240.486 136.352 241.682 137.727 243.197 138.727C244.728 139.727 246.385 140.227 248.166 140.227C249.869 140.227 251.314 139.945 252.502 139.383C253.705 138.805 254.768 137.922 255.689 136.734L256.58 137.367C254.689 140.102 251.885 141.469 248.166 141.469ZM247.697 116.438C245.228 116.438 243.135 117.359 241.416 119.203C239.697 121.031 238.689 123.367 238.393 126.211H256.064V125.906C256.064 124.188 255.697 122.594 254.963 121.125C254.244 119.641 253.244 118.492 251.963 117.68C250.697 116.852 249.275 116.438 247.697 116.438Z" fill="white"/>
<path d="M90.4844 78.3516H64.8008L59.918 93H44.3418L70.8066 21.9062H84.3809L110.992 93H95.416L90.4844 78.3516ZM68.7559 66.4863H86.5293L77.5938 39.875L68.7559 66.4863ZM170.445 93H155.797L127.281 46.2227V93H112.633V21.9062H127.281L155.846 68.7812V21.9062H170.445V93ZM234.488 84.0156C231.852 87.1732 228.124 89.6309 223.307 91.3887C218.489 93.1139 213.15 93.9766 207.291 93.9766C201.139 93.9766 195.735 92.6419 191.08 89.9727C186.458 87.2708 182.877 83.3646 180.338 78.2539C177.831 73.1432 176.546 67.1374 176.48 60.2363V55.4023C176.48 48.306 177.669 42.1699 180.045 36.9941C182.454 31.7858 185.904 27.8145 190.396 25.0801C194.921 22.3132 200.211 20.9297 206.266 20.9297C214.697 20.9297 221.288 22.9479 226.041 26.9844C230.794 30.9883 233.609 36.8314 234.488 44.5137H220.23C219.579 40.4447 218.131 37.4661 215.885 35.5781C213.671 33.6901 210.611 32.7461 206.705 32.7461C201.725 32.7461 197.932 34.6178 195.328 38.3613C192.724 42.1048 191.406 47.6712 191.373 55.0605V59.6016C191.373 67.056 192.789 72.6875 195.621 76.4961C198.453 80.3047 202.604 82.209 208.072 82.209C213.574 82.209 217.496 81.0371 219.84 78.6934V66.4375H206.51V55.6465H234.488V84.0156ZM263.668 64.4844L256.051 72.6875V93H241.402V21.9062H256.051V54.1328L262.496 45.2949L280.611 21.9062H298.629L273.385 53.498L299.361 93H281.93L263.668 64.4844ZM314.527 81.2324H345.631V93H299.879V21.9062H314.527V81.2324ZM401.715 21.9062V68.7324C401.715 76.5124 399.273 82.6647 394.391 87.1895C389.54 91.7142 382.9 93.9766 374.469 93.9766C366.168 93.9766 359.576 91.7793 354.693 87.3848C349.811 82.9902 347.32 76.9518 347.223 69.2695V21.9062H361.871V68.8301C361.871 73.485 362.978 76.8867 365.191 79.0352C367.438 81.151 370.53 82.209 374.469 82.209C382.704 82.209 386.887 77.8796 387.018 69.2207V21.9062H401.715ZM466.539 93H451.891L423.375 46.2227V93H408.727V21.9062H423.375L451.939 68.7812V21.9062H466.539V93ZM530.582 84.0156C527.945 87.1732 524.218 89.6309 519.4 91.3887C514.583 93.1139 509.244 93.9766 503.385 93.9766C497.232 93.9766 491.829 92.6419 487.174 89.9727C482.551 87.2708 478.971 83.3646 476.432 78.2539C473.925 73.1432 472.639 67.1374 472.574 60.2363V55.4023C472.574 48.306 473.762 42.1699 476.139 36.9941C478.548 31.7858 481.998 27.8145 486.49 25.0801C491.015 22.3132 496.305 20.9297 502.359 20.9297C510.79 20.9297 517.382 22.9479 522.135 26.9844C526.887 30.9883 529.703 36.8314 530.582 44.5137H516.324C515.673 40.4447 514.225 37.4661 511.979 35.5781C509.765 33.6901 506.705 32.7461 502.799 32.7461C497.818 32.7461 494.026 34.6178 491.422 38.3613C488.818 42.1048 487.499 47.6712 487.467 55.0605V59.6016C487.467 67.056 488.883 72.6875 491.715 76.4961C494.547 80.3047 498.697 82.209 504.166 82.209C509.667 82.209 513.59 81.0371 515.934 78.6934V66.4375H502.604V55.6465H530.582V84.0156Z" fill="url(#paint0_linear_10_33)"/>
<path d="M90.4844 78.3516L91.3464 78.0614L91.1379 77.442H90.4844V78.3516ZM64.8008 78.3516V77.442H64.1452L63.9379 78.0639L64.8008 78.3516ZM59.918 93V93.9095H60.5735L60.7808 93.2876L59.918 93ZM44.3418 93L43.4894 92.6827L43.0327 93.9095H44.3418V93ZM70.8066 21.9062V20.9967H70.1747L69.9542 21.5889L70.8066 21.9062ZM84.3809 21.9062L85.2327 21.5874L85.0116 20.9967H84.3809V21.9062ZM110.992 93V93.9095H112.304L111.844 92.6812L110.992 93ZM95.416 93L94.554 93.2902L94.7625 93.9095H95.416V93ZM68.7559 66.4863L67.8927 66.1997L67.4954 67.3959H68.7559V66.4863ZM86.5293 66.4863V67.3959H87.7942L87.3915 66.1968L86.5293 66.4863ZM77.5938 39.875L78.456 39.5855L77.589 37.0035L76.7306 39.5883L77.5938 39.875ZM90.4844 77.442H64.8008V79.2611H90.4844V77.442ZM63.9379 78.0639L59.0551 92.7124L60.7808 93.2876L65.6637 78.6392L63.9379 78.0639ZM59.918 92.0905H44.3418V93.9095H59.918V92.0905ZM45.1942 93.3173L71.659 22.2236L69.9542 21.5889L43.4894 92.6827L45.1942 93.3173ZM70.8066 22.8158H84.3809V20.9967H70.8066V22.8158ZM83.529 22.2251L110.14 93.3188L111.844 92.6812L85.2327 21.5874L83.529 22.2251ZM110.992 92.0905H95.416V93.9095H110.992V92.0905ZM96.278 92.7098L91.3464 78.0614L89.6224 78.6418L94.554 93.2902L96.278 92.7098ZM68.7559 67.3959H86.5293V65.5768H68.7559V67.3959ZM87.3915 66.1968L78.456 39.5855L76.7315 40.1645L85.6671 66.7758L87.3915 66.1968ZM76.7306 39.5883L67.8927 66.1997L69.619 66.773L78.4569 40.1617L76.7306 39.5883ZM170.445 93V93.9095H171.355V93H170.445ZM155.797 93L155.02 93.4734L155.286 93.9095H155.797V93ZM127.281 46.2227L128.058 45.7492L126.372 42.9832V46.2227H127.281ZM127.281 93V93.9095H128.191V93H127.281ZM112.633 93H111.723V93.9095H112.633V93ZM112.633 21.9062V20.9967H111.723V21.9062H112.633ZM127.281 21.9062L128.058 21.4329L127.792 20.9967H127.281V21.9062ZM155.846 68.7812L155.069 69.2546L156.755 72.0217V68.7812H155.846ZM155.846 21.9062V20.9967H154.936V21.9062H155.846ZM170.445 21.9062H171.355V20.9967H170.445V21.9062ZM170.445 92.0905H155.797V93.9095H170.445V92.0905ZM156.573 92.5266L128.058 45.7492L126.505 46.6961L155.02 93.4734L156.573 92.5266ZM126.372 46.2227V93H128.191V46.2227H126.372ZM127.281 92.0905H112.633V93.9095H127.281V92.0905ZM113.542 93V21.9062H111.723V93H113.542ZM112.633 22.8158H127.281V20.9967H112.633V22.8158ZM126.505 22.3796L155.069 69.2546L156.622 68.3079L128.058 21.4329L126.505 22.3796ZM156.755 68.7812V21.9062H154.936V68.7812H156.755ZM155.846 22.8158H170.445V20.9967H155.846V22.8158ZM169.536 21.9062V93H171.355V21.9062H169.536ZM234.488 84.0156L235.186 84.5986L235.398 84.3455V84.0156H234.488ZM223.307 91.3887L223.613 92.245L223.618 92.2431L223.307 91.3887ZM191.08 89.9727L190.621 90.7579L190.628 90.7617L191.08 89.9727ZM180.338 78.2539L179.521 78.6544L179.523 78.6586L180.338 78.2539ZM176.48 60.2363H175.571L175.571 60.2449L176.48 60.2363ZM180.045 36.9941L179.219 36.6123L179.218 36.6146L180.045 36.9941ZM190.396 25.0801L190.869 25.857L190.871 25.856L190.396 25.0801ZM226.041 26.9844L225.452 27.6776L225.455 27.68L226.041 26.9844ZM234.488 44.5137V45.4232H235.508L235.392 44.4103L234.488 44.5137ZM220.23 44.5137L219.332 44.6574L219.455 45.4232H220.23V44.5137ZM215.885 35.5781L215.295 36.2702L215.3 36.2744L215.885 35.5781ZM195.328 38.3613L194.581 37.8419L195.328 38.3613ZM191.373 55.0605L190.464 55.0565V55.0605H191.373ZM219.84 78.6934L220.483 79.3365L220.749 79.0701V78.6934H219.84ZM219.84 66.4375H220.749V65.528H219.84V66.4375ZM206.51 66.4375H205.6V67.347H206.51V66.4375ZM206.51 55.6465V54.7369H205.6V55.6465H206.51ZM234.488 55.6465H235.398V54.7369H234.488V55.6465ZM233.79 83.4326C231.279 86.4404 227.699 88.8179 222.995 90.5342L223.618 92.2431C228.55 90.4438 232.425 87.906 235.186 84.5986L233.79 83.4326ZM223 90.5324C218.294 92.2177 213.061 93.067 207.291 93.067V94.8861C213.24 94.8861 218.684 94.0102 223.613 92.245L223 90.5324ZM207.291 93.067C201.274 93.067 196.031 91.763 191.533 89.1836L190.628 90.7617C195.439 93.5209 201.004 94.8861 207.291 94.8861V93.067ZM191.539 89.1874C187.08 86.5811 183.618 82.8121 181.152 77.8492L179.523 78.6586C182.136 83.9171 185.835 87.9606 190.621 90.7579L191.539 89.1874ZM181.155 77.8534C178.719 72.8879 177.454 67.0212 177.39 60.2277L175.571 60.2449C175.637 67.2535 176.944 73.3985 179.521 78.6544L181.155 77.8534ZM177.39 60.2363V55.4023H175.571V60.2363H177.39ZM177.39 55.4023C177.39 48.4056 178.562 42.4049 180.872 37.3736L179.218 36.6146C176.776 41.935 175.571 48.2063 175.571 55.4023H177.39ZM180.87 37.3759C183.211 32.3158 186.545 28.489 190.869 25.857L189.924 24.3031C185.263 27.1399 181.697 31.2558 179.219 36.6123L180.87 37.3759ZM190.871 25.856C195.234 23.1883 200.354 21.8392 206.266 21.8392V20.0201C200.068 20.0201 194.609 21.438 189.922 24.3041L190.871 25.856ZM206.266 21.8392C214.557 21.8392 220.914 23.8233 225.452 27.6776L226.63 26.2911C221.663 22.0725 214.836 20.0201 206.266 20.0201V21.8392ZM225.455 27.68C229.989 31.4999 232.725 37.1064 233.585 44.6171L235.392 44.4103C234.493 36.5564 231.598 30.4767 226.627 26.2888L225.455 27.68ZM234.488 43.6041H220.23V45.4232H234.488V43.6041ZM221.129 44.37C220.457 40.1718 218.94 36.9582 216.47 34.8819L215.3 36.2744C217.322 37.9741 218.702 40.7175 219.332 44.6574L221.129 44.37ZM216.475 34.8861C214.048 32.8158 210.753 31.8365 206.705 31.8365V33.6556C210.47 33.6556 213.295 34.5644 215.295 36.2701L216.475 34.8861ZM206.705 31.8365C201.459 31.8365 197.373 33.8287 194.581 37.8419L196.075 38.8807C198.491 35.4069 201.99 33.6556 206.705 33.6556V31.8365ZM194.581 37.8419C191.825 41.8043 190.496 47.5872 190.464 55.0565L192.283 55.0646C192.315 47.7552 193.623 42.4053 196.075 38.8807L194.581 37.8419ZM190.464 55.0605V59.6016H192.283V55.0605H190.464ZM190.464 59.6016C190.464 67.1475 191.893 73.0065 194.891 77.0388L196.351 75.9534C193.685 72.3685 192.283 66.9645 192.283 59.6016H190.464ZM194.891 77.0388C197.923 81.1155 202.366 83.1185 208.072 83.1185V81.2994C202.841 81.2994 198.984 79.4938 196.351 75.9534L194.891 77.0388ZM208.072 83.1185C213.664 83.1185 217.886 81.934 220.483 79.3365L219.197 78.0502C217.107 80.1403 213.483 81.2994 208.072 81.2994V83.1185ZM220.749 78.6934V66.4375H218.93V78.6934H220.749ZM219.84 65.528H206.51V67.347H219.84V65.528ZM207.419 66.4375V55.6465H205.6V66.4375H207.419ZM206.51 56.556H234.488V54.7369H206.51V56.556ZM233.579 55.6465V84.0156H235.398V55.6465H233.579ZM263.668 64.4844L264.434 63.9939L263.801 63.0049L263.001 63.8655L263.668 64.4844ZM256.051 72.6875L255.384 72.0686L255.141 72.3303V72.6875H256.051ZM256.051 93V93.9095H256.96V93H256.051ZM241.402 93H240.493V93.9095H241.402V93ZM241.402 21.9062V20.9967H240.493V21.9062H241.402ZM256.051 21.9062H256.96V20.9967H256.051V21.9062ZM256.051 54.1328H255.141V56.9236L256.786 54.6687L256.051 54.1328ZM262.496 45.2949L261.777 44.738L261.769 44.7484L261.761 44.759L262.496 45.2949ZM280.611 21.9062V20.9967H280.165L279.892 21.3493L280.611 21.9062ZM298.629 21.9062L299.339 22.474L300.52 20.9967H298.629V21.9062ZM273.385 53.498L272.674 52.9303L272.262 53.4461L272.625 53.9978L273.385 53.498ZM299.361 93V93.9095H301.048L300.121 92.5003L299.361 93ZM281.93 93L281.164 93.4905L281.432 93.9095H281.93V93ZM263.001 63.8655L255.384 72.0686L256.717 73.3064L264.334 65.1033L263.001 63.8655ZM255.141 72.6875V93H256.96V72.6875H255.141ZM256.051 92.0905H241.402V93.9095H256.051V92.0905ZM242.312 93V21.9062H240.493V93H242.312ZM241.402 22.8158H256.051V20.9967H241.402V22.8158ZM255.141 21.9062V54.1328H256.96V21.9062H255.141ZM256.786 54.6687L263.231 45.8309L261.761 44.759L255.316 53.5969L256.786 54.6687ZM263.215 45.8519L281.33 22.4632L279.892 21.3493L261.777 44.738L263.215 45.8519ZM280.611 22.8158H298.629V20.9967H280.611V22.8158ZM297.918 21.3385L272.674 52.9303L274.095 54.0658L299.339 22.474L297.918 21.3385ZM272.625 53.9978L298.601 93.4997L300.121 92.5003L274.145 52.9983L272.625 53.9978ZM299.361 92.0905H281.93V93.9095H299.361V92.0905ZM282.696 92.5095L264.434 63.9939L262.902 64.9749L281.164 93.4905L282.696 92.5095ZM314.527 81.2324H313.618V82.142H314.527V81.2324ZM345.631 81.2324H346.54V80.3229H345.631V81.2324ZM345.631 93V93.9095H346.54V93H345.631ZM299.879 93H298.969V93.9095H299.879V93ZM299.879 21.9062V20.9967H298.969V21.9062H299.879ZM314.527 21.9062H315.437V20.9967H314.527V21.9062ZM314.527 82.142H345.631V80.3229H314.527V82.142ZM344.721 81.2324V93H346.54V81.2324H344.721ZM345.631 92.0905H299.879V93.9095H345.631V92.0905ZM300.788 93V21.9062H298.969V93H300.788ZM299.879 22.8158H314.527V20.9967H299.879V22.8158ZM313.618 21.9062V81.2324H315.437V21.9062H313.618ZM401.715 21.9062H402.624V20.9967H401.715V21.9062ZM394.391 87.1895L393.772 86.5223L393.77 86.5244L394.391 87.1895ZM347.223 69.2695H346.313L346.313 69.2811L347.223 69.2695ZM347.223 21.9062V20.9967H346.313V21.9062H347.223ZM361.871 21.9062H362.781V20.9967H361.871V21.9062ZM365.191 79.0352L364.558 79.6879L364.568 79.6972L365.191 79.0352ZM387.018 69.2207L387.927 69.2344V69.2207H387.018ZM387.018 21.9062V20.9967H386.108V21.9062H387.018ZM400.805 21.9062V68.7324H402.624V21.9062H400.805ZM400.805 68.7324C400.805 76.3058 398.438 82.199 393.772 86.5223L395.009 87.8566C400.109 83.1304 402.624 76.7189 402.624 68.7324H400.805ZM393.77 86.5244C389.13 90.8527 382.734 93.067 374.469 93.067V94.8861C383.065 94.8861 389.95 92.5756 395.011 87.8545L393.77 86.5244ZM374.469 93.067C366.331 93.067 359.977 90.9164 355.302 86.7087L354.085 88.0608C359.175 92.6422 366.005 94.8861 374.469 94.8861V93.067ZM355.302 86.7087C350.64 82.5131 348.227 76.7335 348.132 69.258L346.313 69.2811C346.413 77.1702 348.981 83.4674 354.085 88.0608L355.302 86.7087ZM348.132 69.2695V21.9062H346.313V69.2695H348.132ZM347.223 22.8158H361.871V20.9967H347.223V22.8158ZM360.962 21.9062V68.8301H362.781V21.9062H360.962ZM360.962 68.8301C360.962 73.607 362.095 77.2976 364.558 79.6878L365.825 78.3825C363.86 76.4758 362.781 73.3631 362.781 68.8301H360.962ZM364.568 79.6972C367.026 82.0125 370.365 83.1185 374.469 83.1185V81.2994C370.695 81.2994 367.849 80.2896 365.815 78.3731L364.568 79.6972ZM374.469 83.1185C378.74 83.1185 382.118 81.9935 384.437 79.5939C386.747 77.2024 387.86 73.6941 387.927 69.2344L386.108 69.207C386.045 73.4062 385.001 76.392 383.129 78.3299C381.264 80.2598 378.433 81.2994 374.469 81.2994V83.1185ZM387.927 69.2207V21.9062H386.108V69.2207H387.927ZM387.018 22.8158H401.715V20.9967H387.018V22.8158ZM466.539 93V93.9095H467.449V93H466.539ZM451.891 93L451.114 93.4734L451.38 93.9095H451.891V93ZM423.375 46.2227L424.152 45.7492L422.465 42.9832V46.2227H423.375ZM423.375 93V93.9095H424.285V93H423.375ZM408.727 93H407.817V93.9095H408.727V93ZM408.727 21.9062V20.9967H407.817V21.9062H408.727ZM423.375 21.9062L424.152 21.4329L423.886 20.9967H423.375V21.9062ZM451.939 68.7812L451.163 69.2546L452.849 72.0217V68.7812H451.939ZM451.939 21.9062V20.9967H451.03V21.9062H451.939ZM466.539 21.9062H467.449V20.9967H466.539V21.9062ZM466.539 92.0905H451.891V93.9095H466.539V92.0905ZM452.667 92.5266L424.152 45.7492L422.598 46.6961L451.114 93.4734L452.667 92.5266ZM422.465 46.2227V93H424.285V46.2227H422.465ZM423.375 92.0905H408.727V93.9095H423.375V92.0905ZM409.636 93V21.9062H407.817V93H409.636ZM408.727 22.8158H423.375V20.9967H408.727V22.8158ZM422.598 22.3796L451.163 69.2546L452.716 68.3079L424.152 21.4329L422.598 22.3796ZM452.849 68.7812V21.9062H451.03V68.7812H452.849ZM451.939 22.8158H466.539V20.9967H451.939V22.8158ZM465.63 21.9062V93H467.449V21.9062H465.63ZM530.582 84.0156L531.28 84.5986L531.492 84.3455V84.0156H530.582ZM519.4 91.3887L519.707 92.245L519.712 92.2431L519.4 91.3887ZM487.174 89.9727L486.715 90.7579L486.721 90.7617L487.174 89.9727ZM476.432 78.2539L475.615 78.6544L475.617 78.6586L476.432 78.2539ZM472.574 60.2363H471.665L471.665 60.2449L472.574 60.2363ZM476.139 36.9941L475.313 36.6123L475.312 36.6146L476.139 36.9941ZM486.49 25.0801L486.963 25.857L486.965 25.856L486.49 25.0801ZM522.135 26.9844L521.546 27.6776L521.549 27.68L522.135 26.9844ZM530.582 44.5137V45.4232H531.602L531.486 44.4103L530.582 44.5137ZM516.324 44.5137L515.426 44.6574L515.549 45.4232H516.324V44.5137ZM511.979 35.5781L511.388 36.2702L511.393 36.2744L511.979 35.5781ZM491.422 38.3613L490.675 37.8419L491.422 38.3613ZM487.467 55.0605L486.557 55.0565V55.0605H487.467ZM515.934 78.6934L516.577 79.3365L516.843 79.0701V78.6934H515.934ZM515.934 66.4375H516.843V65.528H515.934V66.4375ZM502.604 66.4375H501.694V67.347H502.604V66.4375ZM502.604 55.6465V54.7369H501.694V55.6465H502.604ZM530.582 55.6465H531.492V54.7369H530.582V55.6465ZM529.884 83.4326C527.372 86.4404 523.793 88.8179 519.089 90.5342L519.712 92.2431C524.644 90.4438 528.518 87.906 531.28 84.5986L529.884 83.4326ZM519.094 90.5324C514.388 92.2177 509.155 93.067 503.385 93.067V94.8861C509.334 94.8861 514.778 94.0102 519.707 92.245L519.094 90.5324ZM503.385 93.067C497.368 93.067 492.124 91.763 487.626 89.1836L486.721 90.7617C491.533 93.5209 497.097 94.8861 503.385 94.8861V93.067ZM487.633 89.1874C483.174 86.5811 479.712 82.8121 477.246 77.8492L475.617 78.6586C478.23 83.9171 481.929 87.9606 486.715 90.7579L487.633 89.1874ZM477.248 77.8534C474.813 72.8879 473.548 67.0212 473.484 60.2277L471.665 60.2449C471.731 67.2535 473.037 73.3985 475.615 78.6544L477.248 77.8534ZM473.484 60.2363V55.4023H471.665V60.2363H473.484ZM473.484 55.4023C473.484 48.4056 474.655 42.4049 476.965 37.3736L475.312 36.6146C472.869 41.935 471.665 48.2063 471.665 55.4023H473.484ZM476.964 37.3759C479.305 32.3158 482.639 28.489 486.963 25.857L486.017 24.3031C481.357 27.1399 477.791 31.2558 475.313 36.6123L476.964 37.3759ZM486.965 25.856C491.327 23.1883 496.448 21.8392 502.359 21.8392V20.0201C496.161 20.0201 490.703 21.438 486.016 24.3041L486.965 25.856ZM502.359 21.8392C510.651 21.8392 517.008 23.8233 521.546 27.6776L522.724 26.2911C517.757 22.0725 510.93 20.0201 502.359 20.0201V21.8392ZM521.549 27.68C526.083 31.4999 528.819 37.1064 529.678 44.6171L531.486 44.4103C530.587 36.5564 527.692 30.4767 522.721 26.2888L521.549 27.68ZM530.582 43.6041H516.324V45.4232H530.582V43.6041ZM517.222 44.37C516.551 40.1718 515.034 36.9582 512.564 34.8819L511.393 36.2744C513.415 37.9741 514.796 40.7175 515.426 44.6574L517.222 44.37ZM512.569 34.8861C510.142 32.8158 506.847 31.8365 502.799 31.8365V33.6556C506.563 33.6556 509.388 34.5644 511.388 36.2701L512.569 34.8861ZM502.799 31.8365C497.553 31.8365 493.467 33.8287 490.675 37.8419L492.169 38.8807C494.585 35.4069 498.084 33.6556 502.799 33.6556V31.8365ZM490.675 37.8419C487.919 41.8043 486.59 47.5872 486.557 55.0565L488.376 55.0646C488.409 47.7552 489.717 42.4053 492.169 38.8807L490.675 37.8419ZM486.557 55.0605V59.6016H488.376V55.0605H486.557ZM486.557 59.6016C486.557 67.1475 487.987 73.0065 490.985 77.0388L492.445 75.9534C489.779 72.3685 488.376 66.9645 488.376 59.6016H486.557ZM490.985 77.0388C494.016 81.1155 498.46 83.1185 504.166 83.1185V81.2994C498.935 81.2994 495.077 79.4938 492.445 75.9534L490.985 77.0388ZM504.166 83.1185C509.758 83.1185 513.979 81.934 516.577 79.3365L515.29 78.0502C513.2 80.1403 509.577 81.2994 504.166 81.2994V83.1185ZM516.843 78.6934V66.4375H515.024V78.6934H516.843ZM515.934 65.528H502.604V67.347H515.934V65.528ZM503.513 66.4375V55.6465H501.694V66.4375H503.513ZM502.604 56.556H530.582V54.7369H502.604V56.556ZM529.672 55.6465V84.0156H531.492V55.6465H529.672Z" fill="black"/>
<defs>
<linearGradient id="paint0_linear_10_33" x1="296" y1="0" x2="296" y2="97" gradientUnits="userSpaceOnUse">
<stop offset="0.9999" stop-color="#F2D4B9"/>
<stop offset="1" stop-color="white" stop-opacity="0"/>
</linearGradient>
</defs>
</svg>
