<?xml version="1.0" encoding="UTF-8"?>
<svg xmlns="http://www.w3.org/2000/svg" xmlns:xlink="http://www.w3.org/1999/xlink" width="327pt" height="535pt" viewBox="0 0 327 535" version="1.1">
<g id="surface1">
<path style="fill-rule:evenodd;fill:rgb(58.823529%,51.764706%,50.980392%);fill-opacity:1;stroke-width:2.08;stroke-linecap:butt;stroke-linejoin:miter;stroke:rgb(58.823529%,51.764706%,50.980392%);stroke-opacity:1;stroke-miterlimit:2.61313;" d="M 1216.533117 171.993942 C 1224.740317 171.993942 1231.451259 178.712339 1231.451259 186.913827 L 1231.451259 232.073916 C 1231.451259 240.275403 1224.740317 246.993801 1216.533117 246.993801 C 1094.447304 246.993801 23.896502 249.826503 15.05228 245.466218 C 2.148902 239.0741 6.622863 218.118039 6.608049 204.977862 C 6.563605 164.445014 11.704217 171.993942 56.917892 171.993942 C 443.4563 171.993942 829.994709 171.993942 1216.533117 171.993942 Z M 1097.217605 970.341264 C 1077.084779 1146.072592 1057.974149 1315.204171 1031.797031 1490.475741 C 1028.315637 1513.760254 999.175631 1737.558527 998.701569 1738.433551 C 993.842432 1747.228274 937.192007 1743.565042 925.784887 1743.565042 C 886.926607 1743.565042 848.083142 1743.565042 809.239676 1743.565042 C 820.217177 1659.992923 925.710815 814.705804 934.273562 810.212041 C 938.169761 808.165377 967.013478 816.114739 994.272051 782.389274 C 1033.29329 734.114696 1008.953162 690.244895 969.62082 654.576582 C 992.198029 618.789621 1015.130784 583.239955 1038.093169 547.70512 C 1049.115113 560.281723 1131.631552 654.413442 1132.550048 659.144499 C 1132.787079 660.375463 1100.373081 942.978254 1097.217605 970.341264 Z M 915.355521 634.658684 C 942.910382 590.670236 970.228212 546.533479 997.412712 502.322567 C 979.368722 481.58897 842.053664 321.978829 834.587185 317.143956 C 827.69847 312.679855 816.395051 326.709886 812.113678 330.447272 C 766.02595 370.564856 719.790078 410.53413 673.702351 450.666544 C 664.132221 459.016341 666.132171 455.516248 681.983623 469.902221 C 701.523872 487.610315 869.786299 641.035971 876.141694 642.17795 C 881.386006 643.127127 907.770527 643.512731 910.970446 640.739353 Z M 1069.825702 491.125238 C 1083.277215 470.302655 1127.364993 398.966028 1140.772063 385.544064 C 1143.394219 386.552565 1138.446196 557.730808 1138.06102 574.860497 C 1130.298253 566.184421 1069.144238 499.578851 1068.596104 495.722817 Z M 1046.092967 419.358515 C 1070.240507 379.567212 1094.402861 339.80557 1118.535586 300.014267 C 1046.744803 299.969774 974.909576 299.836296 903.103978 300.058759 C 914.392582 313.614202 1026.004584 449.61355 1029.085988 448.649542 C 1029.871154 448.412247 1044.892997 421.316194 1046.092967 419.358515 Z M 753.359603 1732.931287 C 793.788214 1425.397754 836.320475 1117.83456 873.889899 809.974747 C 827.846615 806.711949 790.558665 791.55477 779.521906 741.574638 C 772.66282 710.533566 791.284573 681.895099 809.002645 658.284307 C 746.767176 603.662104 683.93913 549.736953 620.977753 495.915619 C 558.283037 549.484828 495.810537 603.335824 433.634326 657.5131 C 459.915145 689.17707 473.722204 711.364096 460.492908 753.617329 C 447.885818 793.898052 405.635031 803.894078 369.087804 810.864601 C 399.9611 1085.414213 440.686 1361.995659 476.507319 1636.382131 C 481.084982 1671.501701 485.751531 1706.60644 490.595853 1741.696348 C 569.06795 1741.874319 647.569676 1741.800165 726.056587 1741.72601 C 744.604268 1741.711179 748.51528 1747.317259 753.359603 1732.931287 Z M 148.782244 1004.318855 C 155.478372 1062.782261 162.189314 1121.230836 168.885441 1179.694242 C 181.52216 1289.947149 195.906983 1394.104556 211.847322 1503.793889 C 214.973169 1525.23937 242.039153 1733.435537 242.483587 1734.251237 C 247.372352 1743.04596 303.963519 1739.41239 315.385453 1739.427221 C 354.19929 1739.442052 393.013127 1739.471713 431.826964 1739.264081 C 394.5242 1447.036037 358.139932 1151.723165 316.615052 860.266327 C 304.007962 771.844504 318.022424 826.02178 266.053363 795.306987 C 231.165353 774.677206 216.099066 726.847555 237.905924 689.384703 C 272.290243 630.328061 290.408305 679.344184 237.505934 596.943706 C 226.069185 579.146627 214.587993 561.364378 203.062358 543.611791 C 193.19594 554.987091 108.44252 652.277792 108.516592 654.413442 C 109.790634 685.854949 117.775618 736.176191 121.523672 768.80417 C 130.560481 847.304121 139.745435 925.804072 148.782244 1004.318855 Z M 325.829635 630.595017 C 298.378475 586.487922 270.853242 542.469812 243.816886 498.125423 C 261.846062 477.362163 398.924089 317.929993 406.583155 312.976473 C 413.486685 308.497541 424.790104 322.527572 429.071478 326.264959 C 475.159205 366.397373 521.395077 406.366647 567.482805 446.48423 C 577.052934 454.834027 575.067799 451.319104 559.216346 465.705076 C 540.239047 482.894089 370.613691 636.57187 365.60641 637.995636 C 361.76947 639.093123 332.807237 638.88549 330.214709 636.675686 Z M 168.989142 483.531817 C 145.952686 448.263938 122.605126 413.218523 99.242752 378.173107 C 99.568669 394.576082 103.183393 565.428045 103.435239 566.154759 C 104.916683 570.426058 112.590563 560.103752 114.531255 557.953271 C 122.116249 549.544151 171.981659 496.983443 172.055732 490.947267 Z M 615.214935 411.85408 C 571.541962 373.234418 527.913431 334.555432 484.329345 295.831953 C 575.423345 295.742968 666.546975 295.742968 757.640976 295.831953 C 718.412335 331.085001 671.86536 370.075436 634.725555 406.055198 C 623.925827 416.525813 627.525736 419.017404 615.214935 411.85408 Z M 218.91381 438.07511 C 209.343681 449.331763 213.847271 445.846502 199.625407 422.636144 C 174.707517 381.450736 154.026556 344.773921 127.064273 304.226242 C 120.323702 294.096738 131.893781 295.831953 139.952837 295.802291 C 202.973471 295.535335 266.157064 295.728137 329.177698 295.846784 L 338.125621 295.861615 C 298.482176 343.335324 258.97206 390.942512 218.91381 438.07511 Z M 1132.505605 91.565974 C 1142.401651 119.744683 1147.882995 111.824982 1105.024815 111.884306 C 767.937013 112.344064 430.834396 111.424548 93.746594 108.843972 C 146.856367 21.623452 119.064474 9.936703 244.913155 7.563759 C 398.672244 4.671733 555.127561 7.015015 709.405155 6.036176 C 804.128694 5.44294 898.807789 4.983182 993.531329 5.635742 C 1066.003577 6.154823 1106.402559 17.900896 1132.505605 91.565974 Z M 988.272202 1918.273038 C 751.522612 1917.546324 514.861909 1913.334349 278.112319 1915.82594 C 298.126629 1960.793227 311.992946 2013.917509 364.13978 2023.705903 C 388.613238 2028.303482 422.834598 2027.903048 447.974705 2028.244158 C 586.593434 2029.979374 725.804741 2030.216668 864.467914 2030.40947 C 943.947393 2030.513286 943.354815 2013.413259 983.013075 1946.896674 C 987.768511 1938.932481 995.397948 1928.773315 995.116474 1919.533665 Z M 1065.070267 1825.387114 C 1065.085081 1874.002803 1062.433296 1867.877642 1010.908668 1867.877642 C 924.051598 1867.907303 201.13648 1870.606527 190.514526 1866.913633 C 171.374267 1860.254559 173.181629 1812.424908 186.218338 1804.223421 C 197.43287 1797.178744 266.660755 1800.664005 284.675116 1800.634343 C 540.105717 1800.233909 795.314101 1799.43304 1050.729887 1801.494535 C 1062.833286 1801.583521 1064.936937 1816.533067 1065.070267 1825.387114 Z M 870.393691 753.854623 C 815.595071 744.792944 831.476153 700.226091 862.749439 695.242908 C 888.422866 691.164411 965.472776 685.039249 960.184021 727.633593 C 955.754503 763.123935 895.415282 756.034765 870.393691 753.854623 Z M 293.178606 746.720961 C 270.808799 726.313643 282.467764 697.126433 318.792775 694.308562 C 342.999572 692.425037 414.953315 686.53717 407.323877 728.775572 C 401.116626 763.03495 339.429292 756.657663 314.792876 753.409696 C 307.830088 752.505011 298.837722 751.33337 293.178606 746.720961 Z M 293.178606 746.720961 " transform="matrix(0.263679,0,0,0.263386,0.0193182,0)"/>
</g>
</svg>
