<?xml version="1.0" encoding="UTF-8"?>
<svg xmlns="http://www.w3.org/2000/svg" xmlns:xlink="http://www.w3.org/1999/xlink" width="399pt" height="535pt" viewBox="0 0 399 535" version="1.1">
<g id="surface1">
<path style=" stroke:none;fill-rule:evenodd;fill:rgb(87.058824%,64.705882%,55.294118%);fill-opacity:1;" d="M 127.238281 251.632812 C 134.539062 235.984375 141.828125 226.585938 159.148438 222.089844 C 167.042969 220.039062 184.136719 219.679688 191.828125 222.21875 C 193.566406 222.789062 195.871094 223.058594 198.054688 223.734375 C 204.546875 225.742188 209.148438 227.546875 215.179688 230.558594 C 216.644531 231.292969 219.933594 224.625 220.851562 223.15625 C 244.039062 185.972656 267.480469 148.96875 290.464844 111.652344 C 299.238281 97.40625 289.207031 85.164062 293.109375 77.84375 C 296.410156 71.636719 305.671875 66.621094 296.125 64.054688 C 291.867188 62.910156 286.054688 60.992188 285.703125 55.667969 C 285.328125 50.007812 294.394531 44.953125 301.5625 55.152344 C 302.53125 56.527344 306.257812 62.160156 308.378906 59.742188 C 309.847656 58.070312 320.375 45.464844 319.980469 44.308594 C 318.707031 40.59375 300.550781 42.582031 303.605469 30.898438 C 304.820312 26.242188 312.484375 23.554688 316.730469 28.6875 C 318.34375 30.644531 322.148438 39.378906 325.050781 36.390625 C 328.421875 32.925781 334.125 25.445312 335.984375 21.039062 C 331.054688 15.367188 324.773438 20.292969 321.390625 13.425781 C 317.726562 5.980469 327.984375 0.152344 333.585938 6.101562 C 335.980469 8.648438 338.300781 15.003906 342.328125 13.765625 C 345.121094 12.90625 349.746094 2.960938 352.496094 2.386719 C 359.121094 1 380.75 13.640625 384.386719 19.992188 C 386.71875 24.074219 385.339844 24.402344 383.550781 28.132812 C 382.328125 30.683594 378.425781 36.703125 381.300781 38.496094 C 386.621094 41.820312 394.84375 38.019531 397.132812 45.816406 C 398.734375 51.285156 388.4375 59.113281 383.34375 50.953125 C 382.679688 49.890625 377.847656 42.113281 376.191406 44.441406 C 374.8125 46.378906 368.296875 60.589844 368.554688 62.320312 C 369.378906 67.824219 387.710938 63.117188 385.25 75.066406 C 383.777344 82.214844 375.351562 82.839844 371.839844 77.140625 C 370.65625 75.222656 366.394531 69.894531 363.914062 70.699219 C 363.210938 70.925781 356.683594 87.304688 356.78125 88.136719 C 356.96875 89.699219 359.5 91.339844 361.128906 91.664062 C 365.273438 92.488281 370.765625 90.769531 373.445312 96.566406 C 377.054688 104.378906 364.652344 112.140625 359.757812 102.035156 C 358.742188 99.941406 356.53125 96.824219 353.765625 97.808594 C 352.753906 98.171875 350.855469 109.574219 344.867188 113.191406 C 336.207031 118.417969 327.964844 115.835938 320.375 127.179688 C 316.964844 132.277344 312.878906 140.605469 309.65625 146.300781 C 290.765625 179.6875 271.824219 213.050781 252.9375 246.441406 C 251.378906 249.195312 251.84375 250.484375 254.265625 252.820312 C 258.964844 257.351562 262.675781 259.371094 267.367188 264.832031 C 272.089844 270.339844 280.320312 277.410156 282.671875 283.980469 C 284.511719 289.121094 286.941406 291.796875 287.59375 297.65625 C 288.113281 302.304688 289.136719 302.285156 288.589844 308.875 C 286.230469 328.820312 273.199219 344.335938 262.324219 360.429688 C 242.3125 389.960938 244.261719 387.296875 240.339844 423.414062 C 238.574219 439.660156 236.34375 455.460938 232.816406 471.433594 C 228.632812 490.136719 218.949219 503.601562 204.777344 516.011719 C 191.648438 527.511719 185.085938 531.46875 167.25 532.933594 C 141.570312 535.042969 120.5625 528.148438 96.984375 518.898438 C 86.699219 514.863281 76.550781 507.824219 66.625 502.535156 C 58.015625 497.945312 41.570312 484.488281 34.558594 477.265625 C 20.222656 462.488281 5.316406 440.402344 4.46875 419.167969 C 3.613281 397.667969 7.925781 387.292969 19.5625 369.640625 C 27.5 357.601562 43.050781 342.769531 55.042969 334.34375 C 59.410156 331.273438 63.898438 328.359375 68.378906 325.453125 C 83.589844 315.605469 101.199219 303.859375 109.746094 287.414062 C 112.910156 281.328125 115.472656 274.910156 118.574219 268.75 C 121.507812 263.035156 124.488281 257.449219 127.238281 251.632812 Z M 163.214844 420.417969 C 161.828125 423.804688 156.789062 425.050781 153 423.121094 C 146.738281 419.933594 138.859375 414.964844 132.5625 411.332031 C 129.078125 409.320312 111.886719 399.839844 110.257812 398 C 105.234375 392.34375 110.964844 381.683594 120.800781 387.339844 C 126.085938 390.378906 160.558594 409.761719 162.328125 411.753906 C 164.4375 414.125 164.777344 417.667969 163.214844 420.417969 Z M 143.445312 339.6875 C 146.234375 303.933594 194.308594 300.402344 203.894531 332.320312 C 213.191406 363.277344 174.277344 385.917969 151.953125 362.550781 C 145.8125 356.121094 143.265625 348.480469 143.445312 339.6875 Z M 343.515625 13.308594 C 345.304688 10.90625 347.09375 8.503906 348.878906 6.101562 L 351.59375 2.449219 Z M 343.515625 13.308594 "/>
</g>
</svg>
