<?xml version="1.0" encoding="UTF-8"?>
<svg xmlns="http://www.w3.org/2000/svg" xmlns:xlink="http://www.w3.org/1999/xlink" width="711pt" height="535pt" viewBox="0 0 711 535" version="1.1">
<g id="surface1">
<path style=" stroke:none;fill-rule:evenodd;fill:rgb(60%,35.294118%,30.196078%);fill-opacity:1;" d="M 677.125 412.589844 L 677.125 243.03125 C 677.125 235.734375 677.09375 228.4375 677.132812 221.140625 C 677.175781 212.679688 676.5 214.71875 675.464844 214.105469 C 675.328125 214.6875 675.175781 220.691406 674.898438 221.492188 C 673.800781 224.691406 671.484375 225.1875 671.484375 225.1875 C 670.148438 225.175781 668.84375 225.101562 667.503906 225.214844 C 664.425781 225.472656 658.980469 225.898438 655.957031 225.121094 L 656.222656 244.089844 L 656.222656 412.589844 C 656.214844 419.074219 656.074219 425.410156 655.976562 431.878906 C 655.847656 440.148438 658.171875 440.195312 666.121094 440 C 678.804688 439.683594 677.40625 437.796875 677.164062 425.847656 C 677.078125 421.449219 677.125 416.992188 677.125 412.589844 Z M 44.605469 391.082031 C 47.726562 391.082031 50.253906 393.613281 50.253906 396.734375 C 50.253906 399.851562 47.726562 402.382812 44.605469 402.382812 C 41.492188 402.382812 38.960938 399.851562 38.960938 396.734375 C 38.960938 393.613281 41.492188 391.082031 44.605469 391.082031 Z M 667.277344 391.082031 C 670.398438 391.082031 672.921875 393.613281 672.921875 396.734375 C 672.921875 399.851562 670.398438 402.382812 667.277344 402.382812 C 664.160156 402.382812 661.632812 399.851562 661.632812 396.734375 C 661.632812 393.613281 664.160156 391.082031 667.277344 391.082031 Z M 667.277344 270.421875 C 670.398438 270.421875 672.921875 272.949219 672.921875 276.070312 C 672.921875 279.191406 670.398438 281.722656 667.277344 281.722656 C 664.160156 281.722656 661.632812 279.191406 661.632812 276.070312 C 661.632812 272.949219 664.160156 270.421875 667.277344 270.421875 Z M 667.277344 287.359375 C 670.398438 287.359375 672.921875 289.886719 672.921875 293.007812 C 672.921875 296.128906 670.398438 298.65625 667.277344 298.65625 C 664.160156 298.65625 661.632812 296.128906 661.632812 293.007812 C 661.632812 289.886719 664.160156 287.359375 667.277344 287.359375 Z M 667.277344 374.132812 C 670.398438 374.132812 672.921875 376.664062 672.921875 379.785156 C 672.921875 382.902344 670.398438 385.433594 667.277344 385.433594 C 664.160156 385.433594 661.632812 382.902344 661.632812 379.785156 C 661.632812 376.664062 664.160156 374.132812 667.277344 374.132812 Z M 636.460938 391.082031 C 639.574219 391.082031 642.105469 393.613281 642.105469 396.734375 C 642.105469 399.851562 639.574219 402.382812 636.460938 402.382812 C 633.339844 402.382812 630.8125 399.851562 630.8125 396.734375 C 630.8125 393.613281 633.339844 391.082031 636.460938 391.082031 Z M 636.460938 270.421875 C 639.574219 270.421875 642.105469 272.949219 642.105469 276.070312 C 642.105469 279.191406 639.574219 281.722656 636.460938 281.722656 C 633.339844 281.722656 630.8125 279.191406 630.8125 276.070312 C 630.8125 272.949219 633.339844 270.421875 636.460938 270.421875 Z M 636.460938 287.359375 C 639.574219 287.359375 642.105469 289.886719 642.105469 293.007812 C 642.105469 296.128906 639.574219 298.65625 636.460938 298.65625 C 633.339844 298.65625 630.8125 296.128906 630.8125 293.007812 C 630.8125 289.886719 633.339844 287.359375 636.460938 287.359375 Z M 636.460938 374.132812 C 639.574219 374.132812 642.105469 376.664062 642.105469 379.785156 C 642.105469 382.902344 639.574219 385.433594 636.460938 385.433594 C 633.339844 385.433594 630.8125 382.902344 630.8125 379.785156 C 630.8125 376.664062 633.339844 374.132812 636.460938 374.132812 Z M 604.621094 391.082031 C 607.738281 391.082031 610.265625 393.613281 610.265625 396.734375 C 610.265625 399.851562 607.738281 402.382812 604.621094 402.382812 C 601.503906 402.382812 598.976562 399.851562 598.976562 396.734375 C 598.976562 393.613281 601.503906 391.082031 604.621094 391.082031 Z M 604.621094 270.421875 C 607.738281 270.421875 610.265625 272.949219 610.265625 276.070312 C 610.265625 279.191406 607.738281 281.722656 604.621094 281.722656 C 601.503906 281.722656 598.976562 279.191406 598.976562 276.070312 C 598.976562 272.949219 601.503906 270.421875 604.621094 270.421875 Z M 604.621094 287.359375 C 607.738281 287.359375 610.265625 289.886719 610.265625 293.007812 C 610.265625 296.128906 607.738281 298.65625 604.621094 298.65625 C 601.503906 298.65625 598.976562 296.128906 598.976562 293.007812 C 598.976562 289.886719 601.503906 287.359375 604.621094 287.359375 Z M 604.621094 374.132812 C 607.738281 374.132812 610.265625 376.664062 610.265625 379.785156 C 610.265625 382.902344 607.738281 385.433594 604.621094 385.433594 C 601.503906 385.433594 598.976562 382.902344 598.976562 379.785156 C 598.976562 376.664062 601.503906 374.132812 604.621094 374.132812 Z M 574.480469 391.082031 C 577.597656 391.082031 580.125 393.613281 580.125 396.734375 C 580.125 399.851562 577.597656 402.382812 574.480469 402.382812 C 571.363281 402.382812 568.835938 399.851562 568.835938 396.734375 C 568.835938 393.613281 571.363281 391.082031 574.480469 391.082031 Z M 574.480469 270.421875 C 577.597656 270.421875 580.125 272.949219 580.125 276.070312 C 580.125 279.191406 577.597656 281.722656 574.480469 281.722656 C 571.363281 281.722656 568.835938 279.191406 568.835938 276.070312 C 568.835938 272.949219 571.363281 270.421875 574.480469 270.421875 Z M 574.480469 287.359375 C 577.597656 287.359375 580.125 289.886719 580.125 293.007812 C 580.125 296.128906 577.597656 298.65625 574.480469 298.65625 C 571.363281 298.65625 568.835938 296.128906 568.835938 293.007812 C 568.835938 289.886719 571.363281 287.359375 574.480469 287.359375 Z M 574.480469 374.132812 C 577.597656 374.132812 580.125 376.664062 580.125 379.785156 C 580.125 382.902344 577.597656 385.433594 574.480469 385.433594 C 571.363281 385.433594 568.835938 382.902344 568.835938 379.785156 C 568.835938 376.664062 571.363281 374.132812 574.480469 374.132812 Z M 543.660156 391.082031 C 546.777344 391.082031 549.304688 393.613281 549.304688 396.734375 C 549.304688 399.851562 546.777344 402.382812 543.660156 402.382812 C 540.542969 402.382812 538.015625 399.851562 538.015625 396.734375 C 538.015625 393.613281 540.542969 391.082031 543.660156 391.082031 Z M 543.660156 270.421875 C 546.777344 270.421875 549.304688 272.949219 549.304688 276.070312 C 549.304688 279.191406 546.777344 281.722656 543.660156 281.722656 C 540.542969 281.722656 538.015625 279.191406 538.015625 276.070312 C 538.015625 272.949219 540.542969 270.421875 543.660156 270.421875 Z M 543.660156 287.359375 C 546.777344 287.359375 549.304688 289.886719 549.304688 293.007812 C 549.304688 296.128906 546.777344 298.65625 543.660156 298.65625 C 540.542969 298.65625 538.015625 296.128906 538.015625 293.007812 C 538.015625 289.886719 540.542969 287.359375 543.660156 287.359375 Z M 543.660156 374.132812 C 546.777344 374.132812 549.304688 376.664062 549.304688 379.785156 C 549.304688 382.902344 546.777344 385.433594 543.660156 385.433594 C 540.542969 385.433594 538.015625 382.902344 538.015625 379.785156 C 538.015625 376.664062 540.542969 374.132812 543.660156 374.132812 Z M 511.992188 391.082031 C 515.109375 391.082031 517.636719 393.613281 517.636719 396.734375 C 517.636719 399.851562 515.109375 402.382812 511.992188 402.382812 C 508.875 402.382812 506.347656 399.851562 506.347656 396.734375 C 506.347656 393.613281 508.875 391.082031 511.992188 391.082031 Z M 511.992188 270.421875 C 515.109375 270.421875 517.636719 272.949219 517.636719 276.070312 C 517.636719 279.191406 515.109375 281.722656 511.992188 281.722656 C 508.875 281.722656 506.347656 279.191406 506.347656 276.070312 C 506.347656 272.949219 508.875 270.421875 511.992188 270.421875 Z M 511.992188 287.359375 C 515.109375 287.359375 517.636719 289.886719 517.636719 293.007812 C 517.636719 296.128906 515.109375 298.65625 511.992188 298.65625 C 508.875 298.65625 506.347656 296.128906 506.347656 293.007812 C 506.347656 289.886719 508.875 287.359375 511.992188 287.359375 Z M 511.992188 374.132812 C 515.109375 374.132812 517.636719 376.664062 517.636719 379.785156 C 517.636719 382.902344 515.109375 385.433594 511.992188 385.433594 C 508.875 385.433594 506.347656 382.902344 506.347656 379.785156 C 506.347656 376.664062 508.875 374.132812 511.992188 374.132812 Z M 481.171875 391.082031 C 484.289062 391.082031 486.816406 393.613281 486.816406 396.734375 C 486.816406 399.851562 484.289062 402.382812 481.171875 402.382812 C 478.054688 402.382812 475.527344 399.851562 475.527344 396.734375 C 475.527344 393.613281 478.054688 391.082031 481.171875 391.082031 Z M 481.171875 270.421875 C 484.289062 270.421875 486.816406 272.949219 486.816406 276.070312 C 486.816406 279.191406 484.289062 281.722656 481.171875 281.722656 C 478.054688 281.722656 475.527344 279.191406 475.527344 276.070312 C 475.527344 272.949219 478.054688 270.421875 481.171875 270.421875 Z M 481.171875 287.359375 C 484.289062 287.359375 486.816406 289.886719 486.816406 293.007812 C 486.816406 296.128906 484.289062 298.65625 481.171875 298.65625 C 478.054688 298.65625 475.527344 296.128906 475.527344 293.007812 C 475.527344 289.886719 478.054688 287.359375 481.171875 287.359375 Z M 481.171875 374.132812 C 484.289062 374.132812 486.816406 376.664062 486.816406 379.785156 C 486.816406 382.902344 484.289062 385.433594 481.171875 385.433594 C 478.054688 385.433594 475.527344 382.902344 475.527344 379.785156 C 475.527344 376.664062 478.054688 374.132812 481.171875 374.132812 Z M 450.351562 391.082031 C 453.46875 391.082031 455.996094 393.613281 455.996094 396.734375 C 455.996094 399.851562 453.46875 402.382812 450.351562 402.382812 C 447.234375 402.382812 444.707031 399.851562 444.707031 396.734375 C 444.707031 393.613281 447.234375 391.082031 450.351562 391.082031 Z M 450.351562 270.421875 C 453.46875 270.421875 455.996094 272.949219 455.996094 276.070312 C 455.996094 279.191406 453.46875 281.722656 450.351562 281.722656 C 447.234375 281.722656 444.707031 279.191406 444.707031 276.070312 C 444.707031 272.949219 447.234375 270.421875 450.351562 270.421875 Z M 450.351562 287.359375 C 453.46875 287.359375 455.996094 289.886719 455.996094 293.007812 C 455.996094 296.128906 453.46875 298.65625 450.351562 298.65625 C 447.234375 298.65625 444.707031 296.128906 444.707031 293.007812 C 444.707031 289.886719 447.234375 287.359375 450.351562 287.359375 Z M 450.351562 374.132812 C 453.46875 374.132812 455.996094 376.664062 455.996094 379.785156 C 455.996094 382.902344 453.46875 385.433594 450.351562 385.433594 C 447.234375 385.433594 444.707031 382.902344 444.707031 379.785156 C 444.707031 376.664062 447.234375 374.132812 450.351562 374.132812 Z M 418.855469 391.082031 C 421.972656 391.082031 424.5 393.613281 424.5 396.734375 C 424.5 399.851562 421.972656 402.382812 418.855469 402.382812 C 415.734375 402.382812 413.207031 399.851562 413.207031 396.734375 C 413.207031 393.613281 415.734375 391.082031 418.855469 391.082031 Z M 418.855469 270.421875 C 421.972656 270.421875 424.5 272.949219 424.5 276.070312 C 424.5 279.191406 421.972656 281.722656 418.855469 281.722656 C 415.734375 281.722656 413.207031 279.191406 413.207031 276.070312 C 413.207031 272.949219 415.734375 270.421875 418.855469 270.421875 Z M 418.855469 287.359375 C 421.972656 287.359375 424.5 289.886719 424.5 293.007812 C 424.5 296.128906 421.972656 298.65625 418.855469 298.65625 C 415.734375 298.65625 413.207031 296.128906 413.207031 293.007812 C 413.207031 289.886719 415.734375 287.359375 418.855469 287.359375 Z M 418.855469 374.132812 C 421.972656 374.132812 424.5 376.664062 424.5 379.785156 C 424.5 382.902344 421.972656 385.433594 418.855469 385.433594 C 415.734375 385.433594 413.207031 382.902344 413.207031 379.785156 C 413.207031 376.664062 415.734375 374.132812 418.855469 374.132812 Z M 388.035156 391.082031 C 391.152344 391.082031 393.679688 393.613281 393.679688 396.734375 C 393.679688 399.851562 391.152344 402.382812 388.035156 402.382812 C 384.917969 402.382812 382.390625 399.851562 382.390625 396.734375 C 382.390625 393.613281 384.917969 391.082031 388.035156 391.082031 Z M 388.035156 270.421875 C 391.152344 270.421875 393.679688 272.949219 393.679688 276.070312 C 393.679688 279.191406 391.152344 281.722656 388.035156 281.722656 C 384.917969 281.722656 382.390625 279.191406 382.390625 276.070312 C 382.390625 272.949219 384.917969 270.421875 388.035156 270.421875 Z M 388.035156 287.359375 C 391.152344 287.359375 393.679688 289.886719 393.679688 293.007812 C 393.679688 296.128906 391.152344 298.65625 388.035156 298.65625 C 384.917969 298.65625 382.390625 296.128906 382.390625 293.007812 C 382.390625 289.886719 384.917969 287.359375 388.035156 287.359375 Z M 388.035156 374.132812 C 391.152344 374.132812 393.679688 376.664062 393.679688 379.785156 C 393.679688 382.902344 391.152344 385.433594 388.035156 385.433594 C 384.917969 385.433594 382.390625 382.902344 382.390625 379.785156 C 382.390625 376.664062 384.917969 374.132812 388.035156 374.132812 Z M 355.519531 391.082031 C 358.636719 391.082031 361.164062 393.613281 361.164062 396.734375 C 361.164062 399.851562 358.636719 402.382812 355.519531 402.382812 C 352.402344 402.382812 349.875 399.851562 349.875 396.734375 C 349.875 393.613281 352.402344 391.082031 355.519531 391.082031 Z M 355.519531 270.421875 C 358.636719 270.421875 361.164062 272.949219 361.164062 276.070312 C 361.164062 279.191406 358.636719 281.722656 355.519531 281.722656 C 352.402344 281.722656 349.875 279.191406 349.875 276.070312 C 349.875 272.949219 352.402344 270.421875 355.519531 270.421875 Z M 355.519531 287.359375 C 358.636719 287.359375 361.164062 289.886719 361.164062 293.007812 C 361.164062 296.128906 358.636719 298.65625 355.519531 298.65625 C 352.402344 298.65625 349.875 296.128906 349.875 293.007812 C 349.875 289.886719 352.402344 287.359375 355.519531 287.359375 Z M 355.519531 374.132812 C 358.636719 374.132812 361.164062 376.664062 361.164062 379.785156 C 361.164062 382.902344 358.636719 385.433594 355.519531 385.433594 C 352.402344 385.433594 349.875 382.902344 349.875 379.785156 C 349.875 376.664062 352.402344 374.132812 355.519531 374.132812 Z M 326.054688 391.082031 C 329.171875 391.082031 331.699219 393.613281 331.699219 396.734375 C 331.699219 399.851562 329.171875 402.382812 326.054688 402.382812 C 322.9375 402.382812 320.410156 399.851562 320.410156 396.734375 C 320.410156 393.613281 322.9375 391.082031 326.054688 391.082031 Z M 326.054688 270.421875 C 329.171875 270.421875 331.699219 272.949219 331.699219 276.070312 C 331.699219 279.191406 329.171875 281.722656 326.054688 281.722656 C 322.9375 281.722656 320.410156 279.191406 320.410156 276.070312 C 320.410156 272.949219 322.9375 270.421875 326.054688 270.421875 Z M 326.054688 287.359375 C 329.171875 287.359375 331.699219 289.886719 331.699219 293.007812 C 331.699219 296.128906 329.171875 298.65625 326.054688 298.65625 C 322.9375 298.65625 320.410156 296.128906 320.410156 293.007812 C 320.410156 289.886719 322.9375 287.359375 326.054688 287.359375 Z M 326.054688 374.132812 C 329.171875 374.132812 331.699219 376.664062 331.699219 379.785156 C 331.699219 382.902344 329.171875 385.433594 326.054688 385.433594 C 322.9375 385.433594 320.410156 382.902344 320.410156 379.785156 C 320.410156 376.664062 322.9375 374.132812 326.054688 374.132812 Z M 294.21875 391.082031 C 297.335938 391.082031 299.863281 393.613281 299.863281 396.734375 C 299.863281 399.851562 297.335938 402.382812 294.21875 402.382812 C 291.101562 402.382812 288.574219 399.851562 288.574219 396.734375 C 288.574219 393.613281 291.101562 391.082031 294.21875 391.082031 Z M 294.21875 270.421875 C 297.335938 270.421875 299.863281 272.949219 299.863281 276.070312 C 299.863281 279.191406 297.335938 281.722656 294.21875 281.722656 C 291.101562 281.722656 288.574219 279.191406 288.574219 276.070312 C 288.574219 272.949219 291.101562 270.421875 294.21875 270.421875 Z M 294.21875 287.359375 C 297.335938 287.359375 299.863281 289.886719 299.863281 293.007812 C 299.863281 296.128906 297.335938 298.65625 294.21875 298.65625 C 291.101562 298.65625 288.574219 296.128906 288.574219 293.007812 C 288.574219 289.886719 291.101562 287.359375 294.21875 287.359375 Z M 294.21875 374.132812 C 297.335938 374.132812 299.863281 376.664062 299.863281 379.785156 C 299.863281 382.902344 297.335938 385.433594 294.21875 385.433594 C 291.101562 385.433594 288.574219 382.902344 288.574219 379.785156 C 288.574219 376.664062 291.101562 374.132812 294.21875 374.132812 Z M 263.734375 391.082031 C 266.855469 391.082031 269.382812 393.613281 269.382812 396.734375 C 269.382812 399.851562 266.855469 402.382812 263.734375 402.382812 C 260.617188 402.382812 258.089844 399.851562 258.089844 396.734375 C 258.089844 393.613281 260.617188 391.082031 263.734375 391.082031 Z M 263.734375 270.421875 C 266.855469 270.421875 269.382812 272.949219 269.382812 276.070312 C 269.382812 279.191406 266.855469 281.722656 263.734375 281.722656 C 260.617188 281.722656 258.089844 279.191406 258.089844 276.070312 C 258.089844 272.949219 260.617188 270.421875 263.734375 270.421875 Z M 263.734375 287.359375 C 266.855469 287.359375 269.382812 289.886719 269.382812 293.007812 C 269.382812 296.128906 266.855469 298.65625 263.734375 298.65625 C 260.617188 298.65625 258.089844 296.128906 258.089844 293.007812 C 258.089844 289.886719 260.617188 287.359375 263.734375 287.359375 Z M 263.734375 374.132812 C 266.855469 374.132812 269.382812 376.664062 269.382812 379.785156 C 269.382812 382.902344 266.855469 385.433594 263.734375 385.433594 C 260.617188 385.433594 258.089844 382.902344 258.089844 379.785156 C 258.089844 376.664062 260.617188 374.132812 263.734375 374.132812 Z M 231.5625 391.082031 C 234.679688 391.082031 237.207031 393.613281 237.207031 396.734375 C 237.207031 399.851562 234.679688 402.382812 231.5625 402.382812 C 228.445312 402.382812 225.917969 399.851562 225.917969 396.734375 C 225.917969 393.613281 228.445312 391.082031 231.5625 391.082031 Z M 231.5625 270.421875 C 234.679688 270.421875 237.207031 272.949219 237.207031 276.070312 C 237.207031 279.191406 234.679688 281.722656 231.5625 281.722656 C 228.445312 281.722656 225.917969 279.191406 225.917969 276.070312 C 225.917969 272.949219 228.445312 270.421875 231.5625 270.421875 Z M 231.5625 287.359375 C 234.679688 287.359375 237.207031 289.886719 237.207031 293.007812 C 237.207031 296.128906 234.679688 298.65625 231.5625 298.65625 C 228.445312 298.65625 225.917969 296.128906 225.917969 293.007812 C 225.917969 289.886719 228.445312 287.359375 231.5625 287.359375 Z M 231.5625 374.132812 C 234.679688 374.132812 237.207031 376.664062 237.207031 379.785156 C 237.207031 382.902344 234.679688 385.433594 231.5625 385.433594 C 228.445312 385.433594 225.917969 382.902344 225.917969 379.785156 C 225.917969 376.664062 228.445312 374.132812 231.5625 374.132812 Z M 200.402344 391.082031 C 203.519531 391.082031 206.046875 393.613281 206.046875 396.734375 C 206.046875 399.851562 203.519531 402.382812 200.402344 402.382812 C 197.285156 402.382812 194.757812 399.851562 194.757812 396.734375 C 194.757812 393.613281 197.285156 391.082031 200.402344 391.082031 Z M 200.402344 270.421875 C 203.519531 270.421875 206.046875 272.949219 206.046875 276.070312 C 206.046875 279.191406 203.519531 281.722656 200.402344 281.722656 C 197.285156 281.722656 194.757812 279.191406 194.757812 276.070312 C 194.757812 272.949219 197.285156 270.421875 200.402344 270.421875 Z M 200.402344 287.359375 C 203.519531 287.359375 206.046875 289.886719 206.046875 293.007812 C 206.046875 296.128906 203.519531 298.65625 200.402344 298.65625 C 197.285156 298.65625 194.757812 296.128906 194.757812 293.007812 C 194.757812 289.886719 197.285156 287.359375 200.402344 287.359375 Z M 200.402344 374.132812 C 203.519531 374.132812 206.046875 376.664062 206.046875 379.785156 C 206.046875 382.902344 203.519531 385.433594 200.402344 385.433594 C 197.285156 385.433594 194.757812 382.902344 194.757812 379.785156 C 194.757812 376.664062 197.285156 374.132812 200.402344 374.132812 Z M 169.242188 391.082031 C 172.363281 391.082031 174.886719 393.613281 174.886719 396.734375 C 174.886719 399.851562 172.363281 402.382812 169.242188 402.382812 C 166.125 402.382812 163.597656 399.851562 163.597656 396.734375 C 163.597656 393.613281 166.125 391.082031 169.242188 391.082031 Z M 169.242188 270.421875 C 172.363281 270.421875 174.886719 272.949219 174.886719 276.070312 C 174.886719 279.191406 172.363281 281.722656 169.242188 281.722656 C 166.125 281.722656 163.597656 279.191406 163.597656 276.070312 C 163.597656 272.949219 166.125 270.421875 169.242188 270.421875 Z M 169.242188 287.359375 C 172.363281 287.359375 174.886719 289.886719 174.886719 293.007812 C 174.886719 296.128906 172.363281 298.65625 169.242188 298.65625 C 166.125 298.65625 163.597656 296.128906 163.597656 293.007812 C 163.597656 289.886719 166.125 287.359375 169.242188 287.359375 Z M 169.242188 374.132812 C 172.363281 374.132812 174.886719 376.664062 174.886719 379.785156 C 174.886719 382.902344 172.363281 385.433594 169.242188 385.433594 C 166.125 385.433594 163.597656 382.902344 163.597656 379.785156 C 163.597656 376.664062 166.125 374.132812 169.242188 374.132812 Z M 137.746094 391.082031 C 140.863281 391.082031 143.390625 393.613281 143.390625 396.734375 C 143.390625 399.851562 140.863281 402.382812 137.746094 402.382812 C 134.628906 402.382812 132.101562 399.851562 132.101562 396.734375 C 132.101562 393.613281 134.628906 391.082031 137.746094 391.082031 Z M 137.746094 270.421875 C 140.863281 270.421875 143.390625 272.949219 143.390625 276.070312 C 143.390625 279.191406 140.863281 281.722656 137.746094 281.722656 C 134.628906 281.722656 132.101562 279.191406 132.101562 276.070312 C 132.101562 272.949219 134.628906 270.421875 137.746094 270.421875 Z M 137.746094 287.359375 C 140.863281 287.359375 143.390625 289.886719 143.390625 293.007812 C 143.390625 296.128906 140.863281 298.65625 137.746094 298.65625 C 134.628906 298.65625 132.101562 296.128906 132.101562 293.007812 C 132.101562 289.886719 134.628906 287.359375 137.746094 287.359375 Z M 137.746094 374.132812 C 140.863281 374.132812 143.390625 376.664062 143.390625 379.785156 C 143.390625 382.902344 140.863281 385.433594 137.746094 385.433594 C 134.628906 385.433594 132.101562 382.902344 132.101562 379.785156 C 132.101562 376.664062 134.628906 374.132812 137.746094 374.132812 Z M 107.265625 391.082031 C 110.382812 391.082031 112.910156 393.613281 112.910156 396.734375 C 112.910156 399.851562 110.382812 402.382812 107.265625 402.382812 C 104.148438 402.382812 101.621094 399.851562 101.621094 396.734375 C 101.621094 393.613281 104.148438 391.082031 107.265625 391.082031 Z M 107.265625 270.421875 C 110.382812 270.421875 112.910156 272.949219 112.910156 276.070312 C 112.910156 279.191406 110.382812 281.722656 107.265625 281.722656 C 104.148438 281.722656 101.621094 279.191406 101.621094 276.070312 C 101.621094 272.949219 104.148438 270.421875 107.265625 270.421875 Z M 107.265625 287.359375 C 110.382812 287.359375 112.910156 289.886719 112.910156 293.007812 C 112.910156 296.128906 110.382812 298.65625 107.265625 298.65625 C 104.148438 298.65625 101.621094 296.128906 101.621094 293.007812 C 101.621094 289.886719 104.148438 287.359375 107.265625 287.359375 Z M 107.265625 374.132812 C 110.382812 374.132812 112.910156 376.664062 112.910156 379.785156 C 112.910156 382.902344 110.382812 385.433594 107.265625 385.433594 C 104.148438 385.433594 101.621094 382.902344 101.621094 379.785156 C 101.621094 376.664062 104.148438 374.132812 107.265625 374.132812 Z M 75.429688 391.082031 C 78.546875 391.082031 81.074219 393.613281 81.074219 396.734375 C 81.074219 399.851562 78.546875 402.382812 75.429688 402.382812 C 72.308594 402.382812 69.785156 399.851562 69.785156 396.734375 C 69.785156 393.613281 72.308594 391.082031 75.429688 391.082031 Z M 75.429688 270.421875 C 78.546875 270.421875 81.074219 272.949219 81.074219 276.070312 C 81.074219 279.191406 78.546875 281.722656 75.429688 281.722656 C 72.308594 281.722656 69.785156 279.191406 69.785156 276.070312 C 69.785156 272.949219 72.308594 270.421875 75.429688 270.421875 Z M 75.429688 287.359375 C 78.546875 287.359375 81.074219 289.886719 81.074219 293.007812 C 81.074219 296.128906 78.546875 298.65625 75.429688 298.65625 C 72.308594 298.65625 69.785156 296.128906 69.785156 293.007812 C 69.785156 289.886719 72.308594 287.359375 75.429688 287.359375 Z M 75.429688 374.132812 C 78.546875 374.132812 81.074219 376.664062 81.074219 379.785156 C 81.074219 382.902344 78.546875 385.433594 75.429688 385.433594 C 72.308594 385.433594 69.785156 382.902344 69.785156 379.785156 C 69.785156 376.664062 72.308594 374.132812 75.429688 374.132812 Z M 44.605469 270.421875 C 47.726562 270.421875 50.253906 272.949219 50.253906 276.070312 C 50.253906 279.191406 47.726562 281.722656 44.605469 281.722656 C 41.492188 281.722656 38.960938 279.191406 38.960938 276.070312 C 38.960938 272.949219 41.492188 270.421875 44.605469 270.421875 Z M 44.605469 287.359375 C 47.726562 287.359375 50.253906 289.886719 50.253906 293.007812 C 50.253906 296.128906 47.726562 298.65625 44.605469 298.65625 C 41.492188 298.65625 38.960938 296.128906 38.960938 293.007812 C 38.960938 289.886719 41.492188 287.359375 44.605469 287.359375 Z M 44.605469 374.132812 C 47.726562 374.132812 50.253906 376.664062 50.253906 379.785156 C 50.253906 382.902344 47.726562 385.433594 44.605469 385.433594 C 41.492188 385.433594 38.960938 382.902344 38.960938 379.785156 C 38.960938 376.664062 41.492188 374.132812 44.605469 374.132812 Z M 398.15625 412.761719 L 398.15625 220.699219 C 398.15625 217.0625 395.929688 214.089844 393.207031 214.089844 L 382.203125 214.089844 C 379.480469 214.089844 377.253906 217.066406 377.253906 220.699219 L 377.253906 412.761719 C 377.253906 422.652344 377.222656 432.429688 377.105469 442.320312 C 377.074219 444.839844 377.164062 446.238281 377.746094 448.6875 C 381.902344 449.429688 390.25 449.71875 394.21875 448.597656 C 397.820312 447.582031 398.257812 445.042969 398.386719 441.589844 C 398.554688 437.152344 398.15625 431.65625 398.15625 426.996094 C 398.15625 422.25 398.15625 417.503906 398.15625 412.761719 Z M 273.722656 412.335938 L 273.722656 220.273438 C 273.722656 216.640625 271.496094 213.667969 268.773438 213.667969 L 257.769531 213.667969 C 255.046875 213.667969 252.820312 216.640625 252.820312 220.273438 L 252.820312 433.691406 C 252.820312 436.910156 252.382812 449.082031 253.078125 451.183594 C 253.664062 452.96875 254.839844 453.1875 256.695312 453.449219 C 259.867188 453.898438 270.566406 453.910156 272.683594 451.289062 C 274.609375 447.996094 273.777344 438.757812 273.722656 434.695312 C 273.722656 427.578125 273.722656 420.464844 273.722656 413.351562 Z M 553.726562 412.730469 L 553.726562 220.667969 C 553.726562 217.035156 551.5 214.0625 548.777344 214.0625 L 537.773438 214.0625 C 535.050781 214.0625 532.824219 217.039062 532.824219 220.667969 L 532.824219 412.730469 C 532.820312 416.726562 532.34375 439.984375 532.925781 441.914062 C 533.445312 443.640625 533.972656 443.492188 535.84375 443.742188 C 538.410156 444.082031 552.679688 444.46875 553.347656 441.296875 C 554.609375 434.339844 553.761719 422.359375 553.726562 414.867188 C 553.726562 414.15625 553.726562 413.445312 553.726562 412.730469 Z M 54.566406 433.125 L 54.566406 242.8125 C 54.480469 242.820312 54.390625 242.828125 54.300781 242.828125 L 42.300781 242.828125 C 40.414062 242.828125 38.875 240.359375 38.875 237.339844 L 38.875 213.101562 L 38.613281 213.101562 C 35.890625 213.101562 33.664062 216.078125 33.664062 219.710938 L 33.664062 433.128906 C 33.664062 436.820312 33.242188 457.535156 34.070312 459.410156 C 34.929688 461.34375 38.046875 460.789062 39.789062 460.765625 C 41.5625 460.742188 51.8125 460.457031 52.855469 459.957031 C 55.558594 457.683594 54.566406 450.832031 54.566406 447.445312 C 54.566406 442.671875 54.566406 437.898438 54.566406 433.125 Z M 85.640625 434.03125 L 85.640625 241.136719 L 80.710938 241.136719 C 78.824219 241.136719 77.28125 238.667969 77.28125 235.648438 L 77.28125 214.007812 L 70.449219 214.007812 L 70.449219 235.644531 C 70.449219 238.664062 68.90625 241.132812 67.023438 241.132812 L 64.738281 241.132812 L 64.738281 434.03125 C 64.671875 440.957031 64.363281 448.226562 64.523438 455.105469 C 64.652344 460.785156 66.25 460.121094 72.007812 459.980469 C 74.582031 459.917969 83.15625 460.125 84.808594 458.1875 C 86.402344 456.320312 85.714844 444.886719 85.691406 441.835938 C 85.671875 439.234375 85.652344 436.632812 85.640625 434.03125 Z M 117.363281 432.898438 L 117.363281 219.484375 C 117.363281 215.851562 115.136719 212.875 112.414062 212.875 L 108.386719 212.875 L 108.386719 237.683594 C 108.386719 240.703125 106.84375 243.171875 104.957031 243.171875 L 96.460938 243.171875 L 96.460938 432.902344 C 96.433594 440.277344 96.15625 448.078125 96.375 455.390625 C 96.492188 459.238281 97.148438 458.90625 101.382812 458.742188 C 104.414062 458.671875 115.269531 459.339844 116.761719 456.574219 C 118.140625 454.019531 117.421875 444.417969 117.359375 441.074219 C 117.355469 438.351562 117.363281 435.625 117.363281 432.898438 Z M 148.101562 433.265625 L 148.101562 243.929688 L 144.980469 243.929688 C 143.09375 243.929688 141.550781 241.460938 141.550781 238.441406 L 141.550781 213.242188 L 132.148438 213.242188 C 129.425781 213.242188 127.195312 216.21875 127.195312 219.851562 L 127.195312 433.269531 C 127.097656 437.109375 125.855469 455.09375 127.699219 457.132812 C 129.328125 458.9375 143.382812 457.652344 146.003906 457.023438 C 149.335938 456.222656 148.417969 451.40625 148.371094 448.550781 C 148.285156 443.449219 148.113281 438.367188 148.101562 433.265625 Z M 179.511719 433.632812 L 179.511719 220.21875 C 179.511719 216.585938 177.285156 213.609375 174.5625 213.609375 L 173.847656 213.609375 L 173.847656 238.441406 C 173.847656 241.460938 172.304688 243.929688 170.417969 243.929688 L 158.609375 243.929688 L 158.609375 433.636719 C 158.605469 437.195312 158.21875 452.199219 158.777344 454.4375 C 159.222656 456.207031 159.597656 456.183594 161.597656 456.550781 C 164.347656 457.054688 176.726562 456.953125 178.613281 455.019531 C 180.207031 453.382812 179.511719 442.535156 179.511719 439.714844 C 179.511719 437.6875 179.511719 435.660156 179.511719 433.632812 Z M 210.53125 432.929688 L 210.53125 260.449219 C 210.53125 253.507812 210.539062 246.5625 210.53125 239.617188 C 210.445312 239.976562 210.328125 240.320312 210.183594 240.644531 C 209.695312 242.164062 208.734375 243.585938 207.007812 243.589844 C 203.222656 243.605469 199.421875 243.605469 195.636719 243.59375 C 195.589844 243.589844 195.542969 243.589844 195.496094 243.589844 L 190.140625 243.589844 C 189.960938 243.589844 189.785156 243.578125 189.613281 243.554688 C 189.617188 243.804688 189.632812 244.042969 189.632812 244.089844 C 189.664062 248.21875 189.628906 252.347656 189.628906 256.476562 C 189.628906 257.800781 189.628906 259.125 189.628906 260.449219 L 189.628906 432.929688 C 189.628906 436.4375 189.292969 451.214844 189.773438 453.449219 C 190.175781 455.300781 190.4375 455.128906 192.617188 455.488281 C 195.839844 455.898438 208.175781 456.308594 209.828125 453.277344 C 211.183594 450.785156 210.53125 438.417969 210.53125 434.324219 Z M 241.578125 432.25 L 241.578125 243.089844 C 241.578125 243.660156 241.578125 242.847656 241.050781 243.4375 C 240.09375 244.34375 239.1875 244.257812 238.207031 244.257812 L 226.210938 244.257812 C 225.230469 244.257812 224.34375 243.589844 223.71875 242.527344 C 222.492188 242.359375 221.410156 241.605469 220.675781 240.507812 L 220.675781 432.25 C 220.65625 435.53125 219.996094 451.765625 220.761719 453.371094 C 221.898438 455.757812 230.097656 454.660156 232.34375 454.53125 C 243.816406 453.882812 241.671875 452.421875 241.578125 441.089844 C 241.554688 438.144531 241.574219 435.195312 241.578125 432.25 Z M 304.828125 412.082031 L 304.828125 241.613281 L 300.125 241.613281 C 298.242188 241.613281 296.699219 239.140625 296.699219 236.121094 L 296.699219 213.414062 L 288.875 213.414062 C 286.152344 213.414062 283.925781 216.386719 283.925781 220.019531 L 283.925781 412.082031 C 283.925781 422.972656 283.960938 433.710938 283.726562 444.605469 C 283.550781 452.882812 286.011719 452.742188 293.828125 452.5 C 295.855469 452.433594 302.554688 452.285156 303.992188 450.832031 C 305.527344 449.277344 304.828125 437.320312 304.828125 434.527344 C 304.828125 427.046875 304.828125 419.5625 304.828125 412.082031 Z M 336.125 411.914062 L 336.125 219.851562 C 336.125 216.21875 333.898438 213.242188 331.175781 213.242188 L 328.644531 213.242188 L 328.644531 235.613281 C 328.644531 238.632812 327.101562 241.105469 325.21875 241.105469 L 315.222656 241.105469 L 315.222656 411.914062 C 315.222656 422.816406 315.136719 433.585938 315.039062 444.484375 C 314.984375 450.503906 315.902344 451.429688 321.960938 451.5 C 324.824219 451.535156 333.257812 451.605469 335.152344 449.226562 C 336.976562 445.972656 336.179688 436.296875 336.125 432.25 C 336.125 425.472656 336.125 418.691406 336.125 411.914062 Z M 366.296875 411.574219 L 366.296875 236.996094 C 366.144531 237.015625 365.988281 237.023438 365.828125 237.023438 C 365.597656 239.695312 362.011719 241.769531 360.285156 241.769531 L 348.289062 241.769531 L 345.394531 242.109375 L 345.394531 411.574219 C 345.394531 422.207031 345.332031 432.695312 345.214844 443.328125 C 345.199219 444.523438 345.300781 448.609375 346.171875 449.457031 C 347.8125 451.050781 364.402344 450.222656 365.660156 448.96875 C 366.878906 447.75 366.296875 431.390625 366.296875 428.863281 C 366.296875 423.101562 366.296875 417.335938 366.296875 411.574219 Z M 429.261719 413.242188 L 429.261719 243.371094 L 427.113281 243.371094 C 425.441406 243.371094 421.898438 242.28125 419.1875 238.507812 L 419.1875 214.570312 L 413.308594 214.570312 C 410.585938 214.570312 408.359375 217.546875 408.359375 221.179688 L 408.359375 413.242188 C 408.359375 422.609375 408.34375 431.90625 408.238281 441.277344 C 408.210938 443.757812 408.265625 445.203125 408.867188 447.621094 C 413.171875 448.480469 420.128906 448.425781 424.464844 447.828125 C 429.621094 447.117188 429.582031 444.472656 429.488281 439.714844 C 429.3125 430.800781 429.261719 422.148438 429.261719 413.242188 Z M 460.28125 413.097656 L 460.28125 242.015625 L 454.992188 242.015625 C 453.320312 242.015625 451.953125 239.828125 451.953125 237.148438 L 451.953125 214.429688 L 448.480469 214.429688 L 448.480469 237.148438 C 448.480469 239.828125 447.113281 242.015625 445.441406 242.015625 L 439.378906 242.015625 L 439.378906 413.097656 C 439.378906 422.171875 439.289062 431.167969 439.207031 440.234375 C 439.199219 441.386719 439.296875 445.5 440.128906 446.308594 C 441.726562 447.859375 458 447.234375 459.542969 445.667969 C 460.953125 444.238281 460.28125 430.0625 460.28125 427.335938 C 460.28125 422.589844 460.28125 417.84375 460.28125 413.097656 Z M 491.488281 412.589844 L 491.488281 242.03125 L 488.480469 242.03125 C 486.808594 242.03125 485.441406 239.839844 485.441406 237.164062 L 485.441406 213.921875 L 482.054688 213.921875 L 482.054688 237.148438 C 482.054688 239.828125 480.6875 242.015625 479.015625 242.015625 L 470.585938 242.015625 L 470.585938 412.589844 C 470.585938 421.757812 470.433594 430.996094 470.453125 440.128906 C 470.457031 442.230469 470.523438 443.398438 471.183594 445.402344 C 474.941406 446.398438 482.871094 446.3125 486.691406 445.660156 C 490.339844 445.039062 491.191406 443.980469 491.5625 440.355469 C 491.929688 436.777344 491.488281 429.84375 491.488281 425.808594 C 491.488281 421.402344 491.488281 416.996094 491.488281 412.589844 Z M 522.402344 412.449219 L 522.402344 220.386719 C 522.402344 216.753906 520.175781 213.78125 517.453125 213.78125 L 515.34375 213.78125 L 515.34375 237.730469 C 515.34375 240.40625 513.976562 242.597656 512.304688 242.597656 L 501.671875 242.597656 C 501.613281 242.597656 501.554688 242.59375 501.5 242.589844 L 501.5 412.449219 C 501.5 421.015625 501.4375 429.460938 501.335938 438.023438 C 501.324219 439.195312 501.402344 443.347656 502.261719 444.175781 C 503.839844 445.691406 519.648438 445.359375 521.515625 443.382812 C 523.199219 441.605469 522.40625 428.785156 522.402344 425.667969 C 522.402344 421.261719 522.402344 416.855469 522.402344 412.449219 Z M 584.523438 411.941406 L 584.523438 233.898438 C 583.734375 234.921875 582.605469 235.566406 581.359375 235.566406 L 566.273438 235.566406 C 565.273438 235.566406 564.265625 233.738281 563.53125 233.050781 L 563.621094 243.441406 L 563.621094 411.941406 C 563.621094 419.726562 563.585938 427.292969 563.425781 435.082031 C 563.265625 442.777344 564.902344 443.234375 572.46875 443.089844 C 575.140625 443.039062 582.382812 443.21875 583.859375 440.566406 C 585.285156 438 584.523438 426.796875 584.523438 423.121094 C 584.523438 419.394531 584.523438 415.667969 584.523438 411.941406 Z M 615.136719 413.945312 L 615.136719 244.386719 C 615.136719 242.472656 615.09375 240.460938 615.148438 238.558594 C 615.222656 235.820312 613.953125 235.484375 611.515625 235.511719 L 607.554688 235.554688 C 605.777344 235.554688 601.511719 232.496094 601.511719 229.644531 L 601.511719 214.925781 L 599.183594 215.277344 C 596.460938 215.277344 594.234375 218.25 594.234375 221.882812 L 594.234375 413.945312 C 594.234375 421.011719 594.148438 427.957031 594.070312 435.015625 C 594.054688 436.191406 594.132812 440.191406 595.019531 441.015625 C 596.554688 442.441406 609.992188 441.84375 612.550781 441.511719 C 615.976562 441.058594 615.375 437.992188 615.316406 434.957031 C 615.175781 427.894531 615.136719 421.003906 615.136719 413.945312 Z M 646.925781 412.929688 L 646.925781 243.371094 C 646.933594 237.976562 647.042969 232.554688 647.085938 227.15625 C 647.085938 226.90625 647.136719 224.160156 647.070312 224.058594 C 646.761719 223.601562 645.832031 221.625 645.671875 221.070312 C 645.308594 219.8125 645.492188 218.539062 645.484375 217.253906 C 645.480469 216.609375 645.773438 214.890625 645.417969 214.503906 C 644.992188 214.03125 643.183594 214.207031 642.496094 214.214844 C 640.695312 214.230469 638.890625 214.246094 637.085938 214.261719 C 635.046875 214.277344 633.011719 214.261719 630.972656 214.261719 C 630.914062 214.261719 630.851562 214.261719 630.792969 214.265625 L 630.792969 230.378906 C 630.792969 233.230469 629.335938 235.558594 627.558594 235.558594 L 626.023438 235.558594 L 626.023438 412.929688 C 626.023438 419.972656 625.945312 426.898438 625.863281 433.9375 C 625.851562 435.132812 625.921875 439.074219 626.820312 439.921875 C 628.589844 441.597656 642.113281 440.988281 644.574219 439.820312 C 647.988281 437.476562 647.230469 432.949219 647.046875 429.207031 L 647.003906 428.320312 C 646.863281 423.21875 646.925781 418.042969 646.925781 412.929688 Z M 646.925781 412.929688 "/>
<path style=" stroke:none;fill-rule:evenodd;fill:rgb(60%,35.294118%,30.196078%);fill-opacity:1;" d="M 0.617188 414.230469 C 0.539062 423.441406 -2.996094 438.308594 9.300781 438.90625 C 15.335938 439.199219 24.101562 438.738281 30.472656 438.691406 L 30.507812 438.691406 L 30.507812 217.507812 C 30.507812 213.875 33.480469 210.902344 37.109375 210.902344 L 37.714844 210.902344 L 37.714844 81.453125 C 37.714844 81.238281 37.730469 81.027344 37.753906 80.816406 L 28.035156 80.109375 C 25.101562 79.855469 22.179688 79.589844 19.269531 79.3125 C 14.246094 78.832031 5.0625 76.351562 2.429688 82.3125 C 0.261719 87.226562 1.691406 108.4375 1.691406 115.125 Z M 58.382812 438.5 L 61.601562 438.476562 L 61.601562 244.167969 L 58.382812 244.167969 Z M 89.472656 438.28125 L 92.6875 438.261719 L 92.6875 244.167969 L 89.472656 244.167969 Z M 120.5625 438.066406 L 123.777344 438.042969 L 123.777344 217.507812 C 123.777344 213.875 126.75 210.902344 130.382812 210.902344 L 143.527344 210.902344 L 143.527344 88.464844 L 107.90625 85.867188 L 107.90625 210.902344 L 113.960938 210.902344 C 117.59375 210.902344 120.5625 213.875 120.5625 217.507812 Z M 151.652344 437.847656 L 154.867188 437.828125 L 154.867188 244.167969 L 151.652344 244.167969 Z M 182.742188 437.632812 L 185.957031 437.609375 L 185.957031 244.167969 L 182.742188 244.167969 Z M 213.832031 437.414062 L 217.050781 437.390625 L 217.050781 217.507812 C 217.050781 216.574219 217.246094 215.6875 217.597656 214.882812 L 217.597656 93.867188 L 213.714844 93.582031 L 213.714844 216.277344 C 213.792969 216.679688 213.832031 217.089844 213.832031 217.507812 Z M 244.921875 437.195312 L 249.210938 437.167969 L 249.210938 217.507812 C 249.210938 213.875 252.179688 210.902344 255.8125 210.902344 L 270.484375 210.902344 C 274.113281 210.902344 277.085938 213.875 277.085938 217.507812 L 277.085938 436.972656 L 280.300781 436.949219 L 280.300781 217.507812 C 280.300781 213.875 283.273438 210.902344 286.902344 210.902344 L 298.015625 210.902344 L 298.015625 99.730469 L 248.636719 96.128906 L 248.636719 237.480469 C 248.636719 239.910156 247.085938 241.992188 244.921875 242.785156 Z M 308.175781 436.753906 L 308.316406 436.753906 L 311.390625 436.734375 L 311.390625 242.597656 L 308.175781 242.597656 Z M 339.265625 436.539062 L 342.480469 436.515625 L 342.480469 242.597656 L 339.265625 242.597656 Z M 370.355469 436.324219 L 373.570312 436.300781 L 373.570312 217.507812 C 373.570312 213.875 376.542969 210.902344 380.171875 210.902344 L 394.84375 210.902344 C 398.476562 210.902344 401.445312 213.875 401.445312 217.507812 L 401.445312 436.105469 L 404.664062 436.082031 L 404.664062 217.507812 C 404.664062 213.875 407.632812 210.902344 411.261719 210.902344 L 419.699219 210.902344 L 419.699219 108.609375 L 368.203125 104.851562 L 368.203125 212.636719 C 369.523438 213.847656 370.355469 215.585938 370.355469 217.507812 Z M 432.535156 435.890625 L 435.75 435.867188 L 435.75 243.273438 L 432.535156 243.273438 Z M 463.625 435.671875 L 466.84375 435.652344 L 466.84375 243.273438 L 463.625 243.273438 Z M 494.71875 435.457031 L 497.929688 435.433594 L 497.929688 243.273438 L 494.71875 243.273438 Z M 525.804688 435.238281 L 529.023438 435.214844 L 529.023438 217.507812 C 529.023438 213.875 531.996094 210.902344 535.625 210.902344 L 550.292969 210.902344 C 553.925781 210.902344 556.898438 213.875 556.898438 217.507812 L 556.898438 435.019531 L 560.113281 435 L 560.113281 217.507812 C 560.113281 216.804688 560.222656 216.125 560.429688 215.488281 L 560.429688 118.875 L 514.929688 115.554688 L 514.929688 210.902344 L 519.203125 210.902344 C 522.835938 210.902344 525.804688 213.875 525.804688 217.507812 Z M 587.980469 434.777344 L 591.21875 434.75 C 591.207031 434.617188 591.203125 434.480469 591.203125 434.347656 L 591.203125 217.507812 C 591.203125 213.875 594.175781 210.902344 597.804688 210.902344 L 600.832031 210.375 L 600.804688 122.042969 L 589.707031 121.011719 L 589.707031 228.269531 C 589.707031 229.8125 589.042969 231.207031 587.984375 232.179688 L 587.984375 434.472656 C 587.984375 434.574219 587.984375 434.675781 587.980469 434.777344 Z M 618.964844 434.515625 L 622.425781 434.484375 C 622.339844 434.0625 622.292969 433.621094 622.292969 433.167969 L 622.292969 430.925781 L 622.335938 235.46875 L 619.035156 235.511719 L 619.078125 430.925781 L 619.078125 433.285156 C 619.078125 433.703125 619.039062 434.113281 618.964844 434.515625 Z M 649.804688 434.277344 L 653.792969 434.253906 C 653.53125 433.550781 653.382812 432.785156 653.382812 431.984375 L 653.382812 225.003906 L 650.167969 224.960938 L 650.167969 432.105469 C 650.167969 432.859375 650.039062 433.589844 649.804688 434.277344 Z M 680.449219 434.113281 C 684.777344 434.097656 689.109375 434.082031 693.4375 434.074219 C 706.917969 434.042969 710.066406 433.917969 709.542969 418.449219 L 708.878906 142.410156 C 708.753906 135.835938 708.3125 132.238281 701.515625 131.441406 C 692.839844 130.421875 684.070312 129.488281 675.265625 128.597656 C 675.363281 128.996094 675.414062 129.414062 675.414062 129.84375 L 675.414062 210.945312 C 678.363281 211.289062 680.730469 213.589844 681.179688 216.507812 L 681.203125 216.667969 L 681.203125 216.671875 L 681.222656 216.832031 L 681.222656 216.835938 L 681.238281 217 L 681.238281 217.003906 L 681.25 217.167969 L 681.253906 217.339844 L 681.257812 217.507812 L 681.257812 430.925781 L 681.253906 431.09375 L 681.25 431.265625 L 681.238281 431.429688 L 681.222656 431.597656 L 681.222656 431.601562 L 681.203125 431.761719 L 681.203125 431.765625 L 681.179688 431.925781 C 681.0625 432.703125 680.808594 433.4375 680.449219 434.113281 Z M 646.136719 211.425781 L 646.136719 129.84375 C 646.136719 122.574219 642.203125 125.675781 630.617188 124.527344 L 630.707031 210.902344 C 631.0625 210.839844 628.519531 210.902344 628.894531 210.902344 L 643.566406 210.902344 C 644.476562 210.902344 645.347656 211.089844 646.136719 211.425781 Z M 487.417969 210.902344 L 487.417969 113.546875 L 481.070312 113.085938 L 481.070312 210.902344 Z M 453.5625 210.902344 L 453.5625 111.078125 L 447.210938 110.617188 L 447.210938 210.902344 Z M 337.167969 212.6875 L 337.167969 102.585938 L 329.050781 101.996094 L 329.050781 210.902344 L 332.664062 210.902344 C 334.398438 210.902344 335.984375 211.582031 337.167969 212.6875 Z M 182.679688 216.578125 L 182.679688 91.316406 L 174.566406 90.726562 L 174.566406 210.902344 L 176.140625 210.902344 C 179.457031 210.902344 182.222656 213.378906 182.679688 216.578125 Z M 76.867188 210.902344 L 76.867188 83.664062 L 68.75 83.074219 L 68.75 210.902344 Z M 76.867188 210.902344 "/>
<path style=" stroke:none;fill-rule:evenodd;fill:rgb(60%,35.294118%,30.196078%);fill-opacity:1;" d="M 45.253906 78.179688 L 61.253906 78.179688 C 63.765625 78.179688 65.820312 80.652344 65.820312 83.671875 L 65.820312 233.269531 C 65.820312 236.292969 63.765625 238.757812 61.253906 238.757812 L 45.253906 238.757812 C 42.738281 238.757812 40.683594 236.292969 40.683594 233.269531 L 40.683594 83.671875 C 40.683594 80.652344 42.738281 78.179688 45.253906 78.179688 Z M 52.964844 104.257812 C 56.121094 104.257812 58.679688 107.328125 58.679688 111.121094 C 58.679688 114.910156 56.121094 117.980469 52.964844 117.980469 C 49.8125 117.980469 47.253906 114.910156 47.253906 111.121094 C 47.253906 107.328125 49.8125 104.257812 52.964844 104.257812 Z M 52.964844 187.636719 C 56.121094 187.636719 58.679688 190.707031 58.679688 194.5 C 58.679688 198.289062 56.121094 201.359375 52.964844 201.359375 C 49.8125 201.359375 47.253906 198.289062 47.253906 194.5 C 47.253906 190.707031 49.8125 187.636719 52.964844 187.636719 Z M 52.964844 171.164062 C 56.121094 171.164062 58.679688 174.242188 58.679688 178.027344 C 58.679688 181.820312 56.121094 184.894531 52.964844 184.894531 C 49.8125 184.894531 47.253906 181.820312 47.253906 178.027344 C 47.253906 174.242188 49.8125 171.164062 52.964844 171.164062 Z M 52.964844 121.757812 C 56.121094 121.757812 58.679688 124.828125 58.679688 128.617188 C 58.679688 132.410156 56.121094 135.480469 52.964844 135.480469 C 49.8125 135.480469 47.253906 132.410156 47.253906 128.617188 C 47.253906 124.828125 49.8125 121.757812 52.964844 121.757812 Z M 52.964844 121.757812 "/>
<path style=" stroke:none;fill-rule:evenodd;fill:rgb(60%,35.294118%,30.196078%);fill-opacity:1;" d="M 159.71875 190.796875 C 162.875 190.796875 165.433594 193.867188 165.433594 197.65625 C 165.433594 201.449219 162.875 204.519531 159.71875 204.519531 C 156.566406 204.519531 154.003906 201.449219 154.003906 197.65625 C 154.003906 193.867188 156.566406 190.796875 159.71875 190.796875 Z M 159.71875 174.328125 C 162.875 174.328125 165.433594 177.398438 165.433594 181.191406 C 165.433594 184.980469 162.875 188.050781 159.71875 188.050781 C 156.566406 188.050781 154.003906 184.980469 154.003906 181.191406 C 154.003906 177.398438 156.566406 174.328125 159.71875 174.328125 Z M 159.71875 124.914062 C 162.875 124.914062 165.433594 127.988281 165.433594 131.777344 C 165.433594 135.566406 162.875 138.640625 159.71875 138.640625 C 156.566406 138.640625 154.003906 135.566406 154.003906 131.777344 C 154.003906 127.988281 156.566406 124.914062 159.71875 124.914062 Z M 159.71875 107.417969 C 162.875 107.417969 165.433594 110.488281 165.433594 114.277344 C 165.433594 118.070312 162.875 121.144531 159.71875 121.144531 C 156.566406 121.144531 154.003906 118.070312 154.003906 114.277344 C 154.003906 110.488281 156.566406 107.417969 159.71875 107.417969 Z M 151.148438 82.027344 L 167.144531 82.027344 C 169.660156 82.027344 171.71875 84.5 171.71875 87.515625 L 171.71875 234.371094 C 171.71875 237.394531 169.660156 239.863281 167.144531 239.863281 L 151.148438 239.863281 C 148.636719 239.863281 146.578125 237.394531 146.578125 234.371094 L 146.578125 87.515625 C 146.578125 84.5 148.636719 82.027344 151.148438 82.027344 Z M 151.148438 82.027344 "/>
<path style=" stroke:none;fill-rule:evenodd;fill:rgb(60%,35.294118%,30.196078%);fill-opacity:1;" d="M 575.183594 197.527344 C 577.078125 197.527344 578.613281 199.371094 578.613281 201.644531 C 578.613281 203.921875 577.078125 205.765625 575.183594 205.765625 C 573.292969 205.765625 571.757812 203.921875 571.757812 201.644531 C 571.757812 199.371094 573.292969 197.527344 575.183594 197.527344 Z M 575.183594 184.144531 C 577.078125 184.144531 578.613281 185.988281 578.613281 188.265625 C 578.613281 190.539062 577.078125 192.382812 575.183594 192.382812 C 573.292969 192.382812 571.757812 190.539062 571.757812 188.265625 C 571.757812 185.988281 573.292969 184.144531 575.183594 184.144531 Z M 575.183594 146.058594 C 577.078125 146.058594 578.613281 147.902344 578.613281 150.179688 C 578.613281 152.449219 577.078125 154.296875 575.183594 154.296875 C 573.292969 154.296875 571.757812 152.449219 571.757812 150.179688 C 571.757812 147.902344 573.292969 146.058594 575.183594 146.058594 Z M 575.183594 131.695312 C 577.078125 131.695312 578.613281 133.539062 578.613281 135.8125 C 578.613281 138.085938 577.078125 139.929688 575.183594 139.929688 C 573.292969 139.929688 571.757812 138.085938 571.757812 135.8125 C 571.757812 133.539062 573.292969 131.695312 575.183594 131.695312 Z M 567.964844 112.4375 L 583.054688 112.4375 C 585.425781 112.4375 587.367188 114.761719 587.367188 117.613281 L 587.367188 226.320312 C 587.367188 229.167969 585.425781 231.5 583.054688 231.5 L 567.964844 231.5 C 565.59375 231.5 563.652344 229.167969 563.652344 226.320312 L 563.652344 117.613281 C 563.652344 114.761719 565.59375 112.4375 567.964844 112.4375 Z M 567.964844 112.4375 "/>
<path style=" stroke:none;fill-rule:evenodd;fill:rgb(60%,35.294118%,30.196078%);fill-opacity:1;" d="M 313.5 191.308594 C 315.730469 191.308594 317.539062 193.480469 317.539062 196.15625 C 317.539062 198.835938 315.730469 201.007812 313.5 201.007812 C 311.265625 201.007812 309.460938 198.835938 309.460938 196.15625 C 309.460938 193.480469 311.265625 191.308594 313.5 191.308594 Z M 313.5 176.554688 C 315.730469 176.554688 317.539062 178.726562 317.539062 181.402344 C 317.539062 184.078125 315.730469 186.253906 313.5 186.253906 C 311.265625 186.253906 309.460938 184.078125 309.460938 181.402344 C 309.460938 178.726562 311.265625 176.554688 313.5 176.554688 Z M 313.5 129.371094 C 315.730469 129.371094 317.539062 131.546875 317.539062 134.226562 C 317.539062 136.902344 315.730469 139.074219 313.5 139.074219 C 311.265625 139.074219 309.460938 136.902344 309.460938 134.226562 C 309.460938 131.546875 311.265625 129.371094 313.5 129.371094 Z M 313.5 112.828125 C 315.730469 112.828125 317.539062 114.996094 317.539062 117.675781 C 317.539062 120.351562 315.730469 122.527344 313.5 122.527344 C 311.265625 122.527344 309.460938 120.351562 309.460938 117.675781 C 309.460938 114.996094 311.265625 112.828125 313.5 112.828125 Z M 305.679688 87.089844 L 321.679688 87.089844 C 324.191406 87.089844 326.25 89.558594 326.25 92.582031 L 326.25 231.546875 C 326.25 234.566406 324.191406 237.035156 321.679688 237.035156 L 305.679688 237.035156 C 303.167969 237.035156 301.109375 234.566406 301.109375 231.546875 L 301.109375 92.582031 C 301.109375 89.558594 303.167969 87.089844 305.679688 87.089844 Z M 305.679688 87.089844 "/>
<path style=" stroke:none;fill-rule:evenodd;fill:rgb(60%,35.294118%,30.196078%);fill-opacity:1;" d="M 433.828125 199.761719 C 436.058594 199.761719 437.863281 201.933594 437.863281 204.613281 C 437.863281 207.292969 436.058594 209.464844 433.828125 209.464844 C 431.597656 209.464844 429.789062 207.292969 429.789062 204.613281 C 429.789062 201.933594 431.597656 199.761719 433.828125 199.761719 Z M 433.828125 185.007812 C 436.058594 185.007812 437.863281 187.179688 437.863281 189.859375 C 437.863281 192.539062 436.058594 194.710938 433.828125 194.710938 C 431.597656 194.710938 429.789062 192.539062 429.789062 189.859375 C 429.789062 187.179688 431.597656 185.007812 433.828125 185.007812 Z M 433.828125 142.980469 C 436.058594 142.980469 437.863281 145.148438 437.863281 147.828125 C 437.863281 150.507812 436.058594 152.679688 433.828125 152.679688 C 431.597656 152.679688 429.789062 150.507812 429.789062 147.828125 C 429.789062 145.148438 431.597656 142.980469 433.828125 142.980469 Z M 433.828125 128.484375 C 436.058594 128.484375 437.863281 130.660156 437.863281 133.339844 C 437.863281 136.015625 436.058594 138.1875 433.828125 138.1875 C 431.597656 138.1875 429.789062 136.015625 429.789062 133.339844 C 429.789062 130.660156 431.597656 128.484375 433.828125 128.484375 Z M 426.414062 105.5 L 440.59375 105.5 C 442.824219 105.5 444.644531 107.6875 444.644531 110.363281 L 444.644531 233.421875 C 444.644531 236.097656 442.824219 238.289062 440.59375 238.289062 L 426.414062 238.289062 C 424.183594 238.289062 422.363281 236.097656 422.363281 233.421875 L 422.363281 110.363281 C 422.363281 107.6875 424.183594 105.5 426.414062 105.5 Z M 426.414062 105.5 "/>
<path style=" stroke:none;fill-rule:evenodd;fill:rgb(60%,35.294118%,30.196078%);fill-opacity:1;" d="M 660.671875 192.367188 C 662.183594 192.367188 663.414062 193.84375 663.414062 195.660156 C 663.414062 197.480469 662.183594 198.953125 660.671875 198.953125 C 659.15625 198.953125 657.925781 197.480469 657.925781 195.660156 C 657.925781 193.84375 659.15625 192.367188 660.671875 192.367188 Z M 660.671875 180.601562 C 662.183594 180.601562 663.414062 182.078125 663.414062 183.898438 C 663.414062 185.714844 662.183594 187.1875 660.671875 187.1875 C 659.15625 187.1875 657.925781 185.714844 657.925781 183.898438 C 657.925781 182.078125 659.15625 180.601562 660.671875 180.601562 Z M 660.671875 151.191406 C 662.183594 151.191406 663.414062 152.664062 663.414062 154.488281 C 663.414062 156.304688 662.183594 157.777344 660.671875 157.777344 C 659.15625 157.777344 657.925781 156.304688 657.925781 154.488281 C 657.925781 152.664062 659.15625 151.191406 660.671875 151.191406 Z M 660.671875 139.699219 C 662.183594 139.699219 663.414062 141.171875 663.414062 142.988281 C 663.414062 144.808594 662.183594 146.285156 660.671875 146.285156 C 659.15625 146.285156 657.925781 144.808594 657.925781 142.988281 C 657.925781 141.171875 659.15625 139.699219 660.671875 139.699219 Z M 653.410156 125.011719 L 668.5 125.011719 C 670.871094 125.011719 672.8125 127.339844 672.8125 130.1875 L 672.8125 216.59375 C 672.8125 219.441406 670.871094 221.773438 668.5 221.773438 L 653.410156 221.773438 C 651.039062 221.773438 649.101562 219.441406 649.101562 216.59375 L 649.101562 130.1875 C 649.101562 127.339844 651.039062 125.011719 653.410156 125.011719 Z M 653.410156 125.011719 "/>
<path style=" stroke:none;fill-rule:evenodd;fill:rgb(60%,35.294118%,30.196078%);fill-opacity:1;" d="M 84.582031 78.183594 L 100.582031 78.183594 C 103.09375 78.183594 105.152344 80.65625 105.152344 83.675781 L 105.152344 233.277344 C 105.152344 236.296875 103.09375 238.765625 100.582031 238.765625 L 84.582031 238.765625 C 82.066406 238.765625 80.011719 236.296875 80.011719 233.277344 L 80.011719 83.675781 C 80.011719 80.65625 82.066406 78.183594 84.582031 78.183594 Z M 92.292969 104.261719 C 95.453125 104.261719 98.011719 107.332031 98.011719 111.125 C 98.011719 114.914062 95.453125 117.988281 92.292969 117.988281 C 89.140625 117.988281 86.582031 114.914062 86.582031 111.125 C 86.582031 107.335938 89.140625 104.261719 92.292969 104.261719 Z M 92.292969 187.640625 C 95.453125 187.640625 98.011719 190.714844 98.011719 194.503906 C 98.011719 198.292969 95.453125 201.367188 92.292969 201.367188 C 89.140625 201.367188 86.582031 198.292969 86.582031 194.503906 C 86.582031 190.714844 89.140625 187.640625 92.292969 187.640625 Z M 92.292969 171.171875 C 95.453125 171.171875 98.011719 174.246094 98.011719 178.035156 C 98.011719 181.824219 95.453125 184.898438 92.292969 184.898438 C 89.140625 184.898438 86.582031 181.824219 86.582031 178.035156 C 86.582031 174.246094 89.140625 171.171875 92.292969 171.171875 Z M 92.292969 121.761719 C 95.453125 121.761719 98.011719 124.835938 98.011719 128.621094 C 98.011719 132.414062 95.453125 135.488281 92.292969 135.488281 C 89.140625 135.488281 86.582031 132.414062 86.582031 128.621094 C 86.582031 124.835938 89.140625 121.761719 92.292969 121.761719 Z M 92.292969 121.761719 "/>
<path style=" stroke:none;fill-rule:evenodd;fill:rgb(60%,35.294118%,30.196078%);fill-opacity:1;" d="M 198.710938 190.796875 C 201.863281 190.796875 204.425781 193.867188 204.425781 197.65625 C 204.425781 201.449219 201.863281 204.519531 198.710938 204.519531 C 195.554688 204.519531 192.996094 201.449219 192.996094 197.65625 C 192.996094 193.867188 195.554688 190.796875 198.710938 190.796875 Z M 198.710938 174.328125 C 201.863281 174.328125 204.425781 177.398438 204.425781 181.191406 C 204.425781 184.980469 201.863281 188.050781 198.710938 188.050781 C 195.554688 188.050781 192.996094 184.980469 192.996094 181.191406 C 192.996094 177.398438 195.554688 174.328125 198.710938 174.328125 Z M 198.710938 124.914062 C 201.863281 124.914062 204.425781 127.988281 204.425781 131.777344 C 204.425781 135.566406 201.863281 138.640625 198.710938 138.640625 C 195.554688 138.640625 192.996094 135.566406 192.996094 131.777344 C 192.996094 127.988281 195.554688 124.914062 198.710938 124.914062 Z M 198.710938 107.417969 C 201.863281 107.417969 204.425781 110.488281 204.425781 114.277344 C 204.425781 118.070312 201.863281 121.144531 198.710938 121.144531 C 195.554688 121.144531 192.996094 118.070312 192.996094 114.277344 C 192.996094 110.488281 195.554688 107.417969 198.710938 107.417969 Z M 190.140625 82.027344 L 206.136719 82.027344 C 208.652344 82.027344 210.710938 84.5 210.710938 87.515625 L 210.710938 234.375 C 210.710938 237.394531 208.652344 239.863281 206.136719 239.863281 L 190.140625 239.863281 C 187.625 239.863281 185.566406 237.394531 185.566406 234.375 L 185.566406 87.515625 C 185.566406 84.5 187.625 82.027344 190.140625 82.027344 Z M 190.140625 82.027344 "/>
<path style=" stroke:none;fill-rule:evenodd;fill:rgb(60%,35.294118%,30.196078%);fill-opacity:1;" d="M 233.820312 190.785156 C 236.976562 190.785156 239.535156 193.855469 239.535156 197.644531 C 239.535156 201.4375 236.976562 204.511719 233.820312 204.511719 C 230.667969 204.511719 228.105469 201.4375 228.105469 197.644531 C 228.105469 193.855469 230.667969 190.785156 233.820312 190.785156 Z M 233.820312 174.3125 C 236.976562 174.3125 239.535156 177.386719 239.535156 181.179688 C 239.535156 184.96875 236.976562 188.039062 233.820312 188.039062 C 230.667969 188.039062 228.105469 184.96875 228.105469 181.179688 C 228.105469 177.386719 230.667969 174.3125 233.820312 174.3125 Z M 233.820312 124.902344 C 236.976562 124.902344 239.535156 127.976562 239.535156 131.765625 C 239.535156 135.554688 236.976562 138.632812 233.820312 138.632812 C 230.667969 138.632812 228.105469 135.554688 228.105469 131.765625 C 228.105469 127.976562 230.667969 124.902344 233.820312 124.902344 Z M 233.820312 107.40625 C 236.976562 107.40625 239.535156 110.476562 239.535156 114.265625 C 239.535156 118.058594 236.976562 121.132812 233.820312 121.132812 C 230.667969 121.132812 228.105469 118.058594 228.105469 114.265625 C 228.105469 110.476562 230.667969 107.40625 233.820312 107.40625 Z M 225.25 82.015625 L 241.246094 82.015625 C 243.761719 82.015625 245.820312 84.488281 245.820312 87.503906 L 245.820312 234.363281 C 245.820312 237.382812 243.761719 239.847656 241.246094 239.847656 L 225.25 239.847656 C 222.734375 239.847656 220.679688 237.382812 220.679688 234.363281 L 220.679688 87.503906 C 220.679688 84.488281 222.734375 82.015625 225.25 82.015625 Z M 225.25 82.015625 "/>
<path style=" stroke:none;fill-rule:evenodd;fill:rgb(60%,35.294118%,30.196078%);fill-opacity:1;" d="M 352.570312 191.296875 C 354.800781 191.296875 356.609375 193.46875 356.609375 196.144531 C 356.609375 198.824219 354.800781 200.996094 352.570312 200.996094 C 350.339844 200.996094 348.53125 198.824219 348.53125 196.144531 C 348.53125 193.46875 350.339844 191.296875 352.570312 191.296875 Z M 352.570312 176.539062 C 354.800781 176.539062 356.609375 178.714844 356.609375 181.390625 C 356.609375 184.066406 354.800781 186.242188 352.570312 186.242188 C 350.339844 186.242188 348.53125 184.066406 348.53125 181.390625 C 348.53125 178.714844 350.339844 176.539062 352.570312 176.539062 Z M 352.570312 129.359375 C 354.800781 129.359375 356.609375 131.53125 356.609375 134.214844 C 356.609375 136.890625 354.800781 139.0625 352.570312 139.0625 C 350.339844 139.0625 348.53125 136.890625 348.53125 134.214844 C 348.53125 131.53125 350.339844 129.359375 352.570312 129.359375 Z M 352.570312 112.8125 C 354.800781 112.8125 356.609375 114.984375 356.609375 117.664062 C 356.609375 120.339844 354.800781 122.515625 352.570312 122.515625 C 350.339844 122.515625 348.53125 120.339844 348.53125 117.664062 C 348.53125 114.984375 350.339844 112.8125 352.570312 112.8125 Z M 344.75 87.078125 L 360.75 87.078125 C 363.261719 87.078125 365.320312 89.550781 365.320312 92.570312 L 365.320312 231.535156 C 365.320312 234.554688 363.261719 237.023438 360.75 237.023438 L 344.75 237.023438 C 342.238281 237.023438 340.179688 234.554688 340.179688 231.535156 L 340.179688 92.570312 C 340.179688 89.550781 342.238281 87.078125 344.75 87.078125 Z M 344.75 87.078125 "/>
<path style=" stroke:none;fill-rule:evenodd;fill:rgb(60%,35.294118%,30.196078%);fill-opacity:1;" d="M 467.851562 199.761719 C 470.082031 199.761719 471.886719 201.933594 471.886719 204.613281 C 471.886719 207.292969 470.082031 209.464844 467.851562 209.464844 C 465.621094 209.464844 463.8125 207.292969 463.8125 204.613281 C 463.8125 201.933594 465.621094 199.761719 467.851562 199.761719 Z M 467.851562 185.007812 C 470.082031 185.007812 471.886719 187.179688 471.886719 189.859375 C 471.886719 192.539062 470.082031 194.710938 467.851562 194.710938 C 465.621094 194.710938 463.8125 192.539062 463.8125 189.859375 C 463.8125 187.179688 465.621094 185.007812 467.851562 185.007812 Z M 467.851562 142.980469 C 470.082031 142.980469 471.886719 145.148438 471.886719 147.828125 C 471.886719 150.507812 470.082031 152.679688 467.851562 152.679688 C 465.621094 152.679688 463.8125 150.507812 463.8125 147.828125 C 463.8125 145.148438 465.621094 142.980469 467.851562 142.980469 Z M 467.851562 128.484375 C 470.082031 128.484375 471.886719 130.660156 471.886719 133.339844 C 471.886719 136.015625 470.082031 138.1875 467.851562 138.1875 C 465.621094 138.1875 463.8125 136.015625 463.8125 133.339844 C 463.8125 130.660156 465.621094 128.484375 467.851562 128.484375 Z M 460.4375 105.5 L 474.617188 105.5 C 476.847656 105.5 478.667969 107.6875 478.667969 110.363281 L 478.667969 233.421875 C 478.667969 236.097656 476.847656 238.289062 474.617188 238.289062 L 460.4375 238.289062 C 458.207031 238.289062 456.386719 236.097656 456.386719 233.421875 L 456.386719 110.363281 C 456.386719 107.6875 458.207031 105.5 460.4375 105.5 Z M 460.4375 105.5 "/>
<path style=" stroke:none;fill-rule:evenodd;fill:rgb(60%,35.294118%,30.196078%);fill-opacity:1;" d="M 501.761719 199.777344 C 503.992188 199.777344 505.800781 201.949219 505.800781 204.628906 C 505.800781 207.308594 503.992188 209.480469 501.761719 209.480469 C 499.53125 209.480469 497.722656 207.308594 497.722656 204.628906 C 497.722656 201.949219 499.53125 199.777344 501.761719 199.777344 Z M 501.761719 185.023438 C 503.992188 185.023438 505.800781 187.195312 505.800781 189.875 C 505.800781 192.554688 503.992188 194.726562 501.761719 194.726562 C 499.53125 194.726562 497.722656 192.554688 497.722656 189.875 C 497.722656 187.195312 499.53125 185.023438 501.761719 185.023438 Z M 501.761719 142.996094 C 503.992188 142.996094 505.800781 145.164062 505.800781 147.84375 C 505.800781 150.519531 503.992188 152.695312 501.761719 152.695312 C 499.53125 152.695312 497.722656 150.519531 497.722656 147.84375 C 497.722656 145.164062 499.53125 142.996094 501.761719 142.996094 Z M 501.761719 128.5 C 503.992188 128.5 505.800781 130.671875 505.800781 133.351562 C 505.800781 136.03125 503.992188 138.203125 501.761719 138.203125 C 499.53125 138.203125 497.722656 136.03125 497.722656 133.351562 C 497.722656 130.671875 499.53125 128.5 501.761719 128.5 Z M 494.347656 105.511719 L 508.527344 105.511719 C 510.757812 105.511719 512.578125 107.703125 512.578125 110.378906 L 512.578125 233.4375 C 512.578125 236.113281 510.757812 238.300781 508.527344 238.300781 L 494.347656 238.300781 C 492.117188 238.300781 490.296875 236.113281 490.296875 233.4375 L 490.296875 110.378906 C 490.296875 107.703125 492.117188 105.511719 494.347656 105.511719 Z M 494.347656 105.511719 "/>
<path style=" stroke:none;fill-rule:evenodd;fill:rgb(60%,35.294118%,30.196078%);fill-opacity:1;" d="M 615.359375 198.539062 C 617.253906 198.539062 618.789062 200.382812 618.789062 202.65625 C 618.789062 204.929688 617.253906 206.777344 615.359375 206.777344 C 613.46875 206.777344 611.933594 204.929688 611.933594 202.65625 C 611.933594 200.382812 613.46875 198.539062 615.359375 198.539062 Z M 615.359375 185.15625 C 617.253906 185.15625 618.789062 187 618.789062 189.273438 C 618.789062 191.550781 617.253906 193.394531 615.359375 193.394531 C 613.46875 193.394531 611.933594 191.550781 611.933594 189.273438 C 611.933594 187 613.46875 185.15625 615.359375 185.15625 Z M 615.359375 147.070312 C 617.253906 147.070312 618.789062 148.914062 618.789062 151.191406 C 618.789062 153.460938 617.253906 155.308594 615.359375 155.308594 C 613.46875 155.308594 611.933594 153.460938 611.933594 151.191406 C 611.933594 148.914062 613.46875 147.070312 615.359375 147.070312 Z M 615.359375 132.707031 C 617.253906 132.707031 618.789062 134.550781 618.789062 136.820312 C 618.789062 139.097656 617.253906 140.941406 615.359375 140.941406 C 613.46875 140.941406 611.933594 139.097656 611.933594 136.820312 C 611.933594 134.550781 613.46875 132.707031 615.359375 132.707031 Z M 608.140625 113.445312 L 623.230469 113.445312 C 625.601562 113.445312 627.542969 115.773438 627.542969 118.621094 L 627.542969 227.328125 C 627.542969 230.179688 625.601562 232.507812 623.230469 232.507812 L 608.140625 232.507812 C 605.769531 232.507812 603.828125 230.179688 603.828125 227.328125 L 603.828125 118.621094 C 603.828125 115.773438 605.769531 113.445312 608.140625 113.445312 Z M 608.140625 113.445312 "/>
</g>
</svg>
