<?xml version="1.0" encoding="UTF-8"?>
<svg xmlns="http://www.w3.org/2000/svg" xmlns:xlink="http://www.w3.org/1999/xlink" width="711pt" height="535pt" viewBox="0 0 711 535" version="1.1">
<g id="surface1">
<path style=" stroke:none;fill-rule:evenodd;fill:rgb(60%,35.294118%,30.196078%);fill-opacity:1;" d="M 677.132812 412.632812 L 677.132812 243.039062 C 677.132812 235.695312 677.132812 228.460938 677.132812 221.117188 C 677.132812 220.214844 677.246094 215.128906 676.566406 214.453125 C 676.34375 214.339844 675.664062 214 675.550781 214.339844 C 675.4375 214.679688 675.4375 217.839844 675.4375 218.40625 C 675.4375 219.085938 675.4375 220.890625 675.214844 221.570312 C 673.632812 225.636719 667.085938 225.300781 666.292969 225.300781 L 656.019531 225.074219 L 656.246094 412.519531 C 656.246094 418.960938 656.132812 425.289062 656.019531 431.839844 C 655.910156 440.089844 658.167969 440.203125 666.179688 439.976562 C 678.824219 439.636719 677.472656 437.828125 677.246094 425.851562 C 677.132812 421.445312 677.246094 417.039062 677.246094 412.632812 Z M 44.59375 391.164062 C 47.753906 391.164062 50.238281 393.652344 50.238281 396.816406 C 50.238281 399.980469 47.753906 402.464844 44.59375 402.464844 C 41.433594 402.464844 38.949219 399.980469 38.949219 396.816406 C 38.949219 393.652344 41.433594 391.164062 44.59375 391.164062 Z M 667.308594 391.164062 C 670.472656 391.164062 672.953125 393.652344 672.953125 396.816406 C 672.953125 399.980469 670.472656 402.464844 667.308594 402.464844 C 664.148438 402.464844 661.664062 399.980469 661.664062 396.816406 C 661.664062 393.652344 664.148438 391.164062 667.308594 391.164062 Z M 667.308594 270.496094 C 670.472656 270.496094 672.953125 272.980469 672.953125 276.144531 C 672.953125 279.308594 670.472656 281.792969 667.308594 281.792969 C 664.148438 281.792969 661.664062 279.308594 661.664062 276.144531 C 661.664062 272.980469 664.148438 270.496094 667.308594 270.496094 Z M 667.308594 287.441406 C 670.472656 287.441406 672.953125 289.929688 672.953125 293.09375 C 672.953125 296.253906 670.472656 298.742188 667.308594 298.742188 C 664.148438 298.742188 661.664062 296.253906 661.664062 293.09375 C 661.664062 289.929688 664.148438 287.441406 667.308594 287.441406 Z M 667.308594 374.21875 C 670.472656 374.21875 672.953125 376.703125 672.953125 379.867188 C 672.953125 383.03125 670.472656 385.515625 667.308594 385.515625 C 664.148438 385.515625 661.664062 383.03125 661.664062 379.867188 C 661.664062 376.703125 664.148438 374.21875 667.308594 374.21875 Z M 636.492188 391.164062 C 639.652344 391.164062 642.136719 393.652344 642.136719 396.816406 C 642.136719 399.980469 639.652344 402.464844 636.492188 402.464844 C 633.328125 402.464844 630.847656 399.980469 630.847656 396.816406 C 630.847656 393.652344 633.328125 391.164062 636.492188 391.164062 Z M 636.492188 270.496094 C 639.652344 270.496094 642.136719 272.980469 642.136719 276.144531 C 642.136719 279.308594 639.652344 281.792969 636.492188 281.792969 C 633.328125 281.792969 630.847656 279.308594 630.847656 276.144531 C 630.847656 272.980469 633.328125 270.496094 636.492188 270.496094 Z M 636.492188 287.441406 C 639.652344 287.441406 642.136719 289.929688 642.136719 293.09375 C 642.136719 296.253906 639.652344 298.742188 636.492188 298.742188 C 633.328125 298.742188 630.847656 296.253906 630.847656 293.09375 C 630.847656 289.929688 633.328125 287.441406 636.492188 287.441406 Z M 636.492188 374.21875 C 639.652344 374.21875 642.136719 376.703125 642.136719 379.867188 C 642.136719 383.03125 639.652344 385.515625 636.492188 385.515625 C 633.328125 385.515625 630.847656 383.03125 630.847656 379.867188 C 630.847656 376.703125 633.328125 374.21875 636.492188 374.21875 Z M 604.65625 391.164062 C 607.816406 391.164062 610.300781 393.652344 610.300781 396.816406 C 610.300781 399.980469 607.816406 402.464844 604.65625 402.464844 C 601.492188 402.464844 599.011719 399.980469 599.011719 396.816406 C 599.011719 393.652344 601.492188 391.164062 604.65625 391.164062 Z M 604.65625 270.496094 C 607.816406 270.496094 610.300781 272.980469 610.300781 276.144531 C 610.300781 279.308594 607.816406 281.792969 604.65625 281.792969 C 601.492188 281.792969 599.011719 279.308594 599.011719 276.144531 C 599.011719 272.980469 601.492188 270.496094 604.65625 270.496094 Z M 604.65625 287.441406 C 607.816406 287.441406 610.300781 289.929688 610.300781 293.09375 C 610.300781 296.253906 607.816406 298.742188 604.65625 298.742188 C 601.492188 298.742188 599.011719 296.253906 599.011719 293.09375 C 599.011719 289.929688 601.492188 287.441406 604.65625 287.441406 Z M 604.65625 374.21875 C 607.816406 374.21875 610.300781 376.703125 610.300781 379.867188 C 610.300781 383.03125 607.816406 385.515625 604.65625 385.515625 C 601.492188 385.515625 599.011719 383.03125 599.011719 379.867188 C 599.011719 376.703125 601.492188 374.21875 604.65625 374.21875 Z M 574.511719 391.164062 C 577.671875 391.164062 580.15625 393.652344 580.15625 396.816406 C 580.15625 399.980469 577.671875 402.464844 574.511719 402.464844 C 571.351562 402.464844 568.867188 399.980469 568.867188 396.816406 C 568.867188 393.652344 571.351562 391.164062 574.511719 391.164062 Z M 574.511719 270.496094 C 577.671875 270.496094 580.15625 272.980469 580.15625 276.144531 C 580.15625 279.308594 577.671875 281.792969 574.511719 281.792969 C 571.351562 281.792969 568.867188 279.308594 568.867188 276.144531 C 568.867188 272.980469 571.351562 270.496094 574.511719 270.496094 Z M 574.511719 287.441406 C 577.671875 287.441406 580.15625 289.929688 580.15625 293.09375 C 580.15625 296.253906 577.671875 298.742188 574.511719 298.742188 C 571.351562 298.742188 568.867188 296.253906 568.867188 293.09375 C 568.867188 289.929688 571.351562 287.441406 574.511719 287.441406 Z M 574.511719 374.21875 C 577.671875 374.21875 580.15625 376.703125 580.15625 379.867188 C 580.15625 383.03125 577.671875 385.515625 574.511719 385.515625 C 571.351562 385.515625 568.867188 383.03125 568.867188 379.867188 C 568.867188 376.703125 571.351562 374.21875 574.511719 374.21875 Z M 543.691406 391.164062 C 546.855469 391.164062 549.335938 393.652344 549.335938 396.816406 C 549.335938 399.980469 546.855469 402.464844 543.691406 402.464844 C 540.53125 402.464844 538.046875 399.980469 538.046875 396.816406 C 538.046875 393.652344 540.53125 391.164062 543.691406 391.164062 Z M 543.691406 270.496094 C 546.855469 270.496094 549.335938 272.980469 549.335938 276.144531 C 549.335938 279.308594 546.855469 281.792969 543.691406 281.792969 C 540.53125 281.792969 538.046875 279.308594 538.046875 276.144531 C 538.046875 272.980469 540.53125 270.496094 543.691406 270.496094 Z M 543.691406 287.441406 C 546.855469 287.441406 549.335938 289.929688 549.335938 293.09375 C 549.335938 296.253906 546.855469 298.742188 543.691406 298.742188 C 540.53125 298.742188 538.046875 296.253906 538.046875 293.09375 C 538.046875 289.929688 540.53125 287.441406 543.691406 287.441406 Z M 543.691406 374.21875 C 546.855469 374.21875 549.335938 376.703125 549.335938 379.867188 C 549.335938 383.03125 546.855469 385.515625 543.691406 385.515625 C 540.53125 385.515625 538.046875 383.03125 538.046875 379.867188 C 538.046875 376.703125 540.53125 374.21875 543.691406 374.21875 Z M 511.96875 391.164062 C 515.128906 391.164062 517.613281 393.652344 517.613281 396.816406 C 517.613281 399.980469 515.128906 402.464844 511.96875 402.464844 C 508.808594 402.464844 506.324219 399.980469 506.324219 396.816406 C 506.324219 393.652344 508.808594 391.164062 511.96875 391.164062 Z M 511.96875 270.496094 C 515.128906 270.496094 517.613281 272.980469 517.613281 276.144531 C 517.613281 279.308594 515.128906 281.792969 511.96875 281.792969 C 508.808594 281.792969 506.324219 279.308594 506.324219 276.144531 C 506.324219 272.980469 508.808594 270.496094 511.96875 270.496094 Z M 511.96875 287.441406 C 515.128906 287.441406 517.613281 289.929688 517.613281 293.09375 C 517.613281 296.253906 515.128906 298.742188 511.96875 298.742188 C 508.808594 298.742188 506.324219 296.253906 506.324219 293.09375 C 506.324219 289.929688 508.808594 287.441406 511.96875 287.441406 Z M 511.96875 374.21875 C 515.128906 374.21875 517.613281 376.703125 517.613281 379.867188 C 517.613281 383.03125 515.128906 385.515625 511.96875 385.515625 C 508.808594 385.515625 506.324219 383.03125 506.324219 379.867188 C 506.324219 376.703125 508.808594 374.21875 511.96875 374.21875 Z M 481.148438 391.164062 C 484.3125 391.164062 486.792969 393.652344 486.792969 396.816406 C 486.792969 399.980469 484.3125 402.464844 481.148438 402.464844 C 477.988281 402.464844 475.503906 399.980469 475.503906 396.816406 C 475.503906 393.652344 477.988281 391.164062 481.148438 391.164062 Z M 481.148438 270.496094 C 484.3125 270.496094 486.792969 272.980469 486.792969 276.144531 C 486.792969 279.308594 484.3125 281.792969 481.148438 281.792969 C 477.988281 281.792969 475.503906 279.308594 475.503906 276.144531 C 475.503906 272.980469 477.988281 270.496094 481.148438 270.496094 Z M 481.148438 287.441406 C 484.3125 287.441406 486.792969 289.929688 486.792969 293.09375 C 486.792969 296.253906 484.3125 298.742188 481.148438 298.742188 C 477.988281 298.742188 475.503906 296.253906 475.503906 293.09375 C 475.503906 289.929688 477.988281 287.441406 481.148438 287.441406 Z M 481.148438 374.21875 C 484.3125 374.21875 486.792969 376.703125 486.792969 379.867188 C 486.792969 383.03125 484.3125 385.515625 481.148438 385.515625 C 477.988281 385.515625 475.503906 383.03125 475.503906 379.867188 C 475.503906 376.703125 477.988281 374.21875 481.148438 374.21875 Z M 450.332031 391.164062 C 453.492188 391.164062 455.976562 393.652344 455.976562 396.816406 C 455.976562 399.980469 453.492188 402.464844 450.332031 402.464844 C 447.167969 402.464844 444.683594 399.980469 444.683594 396.816406 C 444.683594 393.652344 447.167969 391.164062 450.332031 391.164062 Z M 450.332031 270.496094 C 453.492188 270.496094 455.976562 272.980469 455.976562 276.144531 C 455.976562 279.308594 453.492188 281.792969 450.332031 281.792969 C 447.167969 281.792969 444.683594 279.308594 444.683594 276.144531 C 444.683594 272.980469 447.167969 270.496094 450.332031 270.496094 Z M 450.332031 287.441406 C 453.492188 287.441406 455.976562 289.929688 455.976562 293.09375 C 455.976562 296.253906 453.492188 298.742188 450.332031 298.742188 C 447.167969 298.742188 444.683594 296.253906 444.683594 293.09375 C 444.683594 289.929688 447.167969 287.441406 450.332031 287.441406 Z M 450.332031 374.21875 C 453.492188 374.21875 455.976562 376.703125 455.976562 379.867188 C 455.976562 383.03125 453.492188 385.515625 450.332031 385.515625 C 447.167969 385.515625 444.683594 383.03125 444.683594 379.867188 C 444.683594 376.703125 447.167969 374.21875 450.332031 374.21875 Z M 418.832031 391.164062 C 421.992188 391.164062 424.476562 393.652344 424.476562 396.816406 C 424.476562 399.980469 421.992188 402.464844 418.832031 402.464844 C 415.671875 402.464844 413.1875 399.980469 413.1875 396.816406 C 413.1875 393.652344 415.671875 391.164062 418.832031 391.164062 Z M 418.832031 270.496094 C 421.992188 270.496094 424.476562 272.980469 424.476562 276.144531 C 424.476562 279.308594 421.992188 281.792969 418.832031 281.792969 C 415.671875 281.792969 413.1875 279.308594 413.1875 276.144531 C 413.1875 272.980469 415.671875 270.496094 418.832031 270.496094 Z M 418.832031 287.441406 C 421.992188 287.441406 424.476562 289.929688 424.476562 293.09375 C 424.476562 296.253906 421.992188 298.742188 418.832031 298.742188 C 415.671875 298.742188 413.1875 296.253906 413.1875 293.09375 C 413.1875 289.929688 415.671875 287.441406 418.832031 287.441406 Z M 418.832031 374.21875 C 421.992188 374.21875 424.476562 376.703125 424.476562 379.867188 C 424.476562 383.03125 421.992188 385.515625 418.832031 385.515625 C 415.671875 385.515625 413.1875 383.03125 413.1875 379.867188 C 413.1875 376.703125 415.671875 374.21875 418.832031 374.21875 Z M 388.011719 391.164062 C 391.175781 391.164062 393.65625 393.652344 393.65625 396.816406 C 393.65625 399.980469 391.175781 402.464844 388.011719 402.464844 C 384.851562 402.464844 382.367188 399.980469 382.367188 396.816406 C 382.367188 393.652344 384.851562 391.164062 388.011719 391.164062 Z M 388.011719 270.496094 C 391.175781 270.496094 393.65625 272.980469 393.65625 276.144531 C 393.65625 279.308594 391.175781 281.792969 388.011719 281.792969 C 384.851562 281.792969 382.367188 279.308594 382.367188 276.144531 C 382.367188 272.980469 384.851562 270.496094 388.011719 270.496094 Z M 388.011719 287.441406 C 391.175781 287.441406 393.65625 289.929688 393.65625 293.09375 C 393.65625 296.253906 391.175781 298.742188 388.011719 298.742188 C 384.851562 298.742188 382.367188 296.253906 382.367188 293.09375 C 382.367188 289.929688 384.851562 287.441406 388.011719 287.441406 Z M 388.011719 374.21875 C 391.175781 374.21875 393.65625 376.703125 393.65625 379.867188 C 393.65625 383.03125 391.175781 385.515625 388.011719 385.515625 C 384.851562 385.515625 382.367188 383.03125 382.367188 379.867188 C 382.367188 376.703125 384.851562 374.21875 388.011719 374.21875 Z M 355.5 391.164062 C 358.660156 391.164062 361.144531 393.652344 361.144531 396.816406 C 361.144531 399.980469 358.660156 402.464844 355.5 402.464844 C 352.339844 402.464844 349.855469 399.980469 349.855469 396.816406 C 349.855469 393.652344 352.339844 391.164062 355.5 391.164062 Z M 355.5 270.496094 C 358.660156 270.496094 361.144531 272.980469 361.144531 276.144531 C 361.144531 279.308594 358.660156 281.792969 355.5 281.792969 C 352.339844 281.792969 349.855469 279.308594 349.855469 276.144531 C 349.855469 272.980469 352.339844 270.496094 355.5 270.496094 Z M 355.5 287.441406 C 358.660156 287.441406 361.144531 289.929688 361.144531 293.09375 C 361.144531 296.253906 358.660156 298.742188 355.5 298.742188 C 352.339844 298.742188 349.855469 296.253906 349.855469 293.09375 C 349.855469 289.929688 352.339844 287.441406 355.5 287.441406 Z M 355.5 374.21875 C 358.660156 374.21875 361.144531 376.703125 361.144531 379.867188 C 361.144531 383.03125 358.660156 385.515625 355.5 385.515625 C 352.339844 385.515625 349.855469 383.03125 349.855469 379.867188 C 349.855469 376.703125 352.339844 374.21875 355.5 374.21875 Z M 326.035156 391.164062 C 329.195312 391.164062 331.679688 393.652344 331.679688 396.816406 C 331.679688 399.980469 329.195312 402.464844 326.035156 402.464844 C 322.875 402.464844 320.390625 399.980469 320.390625 396.816406 C 320.390625 393.652344 322.875 391.164062 326.035156 391.164062 Z M 326.035156 270.496094 C 329.195312 270.496094 331.679688 272.980469 331.679688 276.144531 C 331.679688 279.308594 329.195312 281.792969 326.035156 281.792969 C 322.875 281.792969 320.390625 279.308594 320.390625 276.144531 C 320.390625 272.980469 322.875 270.496094 326.035156 270.496094 Z M 326.035156 287.441406 C 329.195312 287.441406 331.679688 289.929688 331.679688 293.09375 C 331.679688 296.253906 329.195312 298.742188 326.035156 298.742188 C 322.875 298.742188 320.390625 296.253906 320.390625 293.09375 C 320.390625 289.929688 322.875 287.441406 326.035156 287.441406 Z M 326.035156 374.21875 C 329.195312 374.21875 331.679688 376.703125 331.679688 379.867188 C 331.679688 383.03125 329.195312 385.515625 326.035156 385.515625 C 322.875 385.515625 320.390625 383.03125 320.390625 379.867188 C 320.390625 376.703125 322.875 374.21875 326.035156 374.21875 Z M 294.199219 391.164062 C 297.359375 391.164062 299.84375 393.652344 299.84375 396.816406 C 299.84375 399.980469 297.359375 402.464844 294.199219 402.464844 C 291.039062 402.464844 288.554688 399.980469 288.554688 396.816406 C 288.554688 393.652344 291.039062 391.164062 294.199219 391.164062 Z M 294.199219 270.496094 C 297.359375 270.496094 299.84375 272.980469 299.84375 276.144531 C 299.84375 279.308594 297.359375 281.792969 294.199219 281.792969 C 291.039062 281.792969 288.554688 279.308594 288.554688 276.144531 C 288.554688 272.980469 291.039062 270.496094 294.199219 270.496094 Z M 294.199219 287.441406 C 297.359375 287.441406 299.84375 289.929688 299.84375 293.09375 C 299.84375 296.253906 297.359375 298.742188 294.199219 298.742188 C 291.039062 298.742188 288.554688 296.253906 288.554688 293.09375 C 288.554688 289.929688 291.039062 287.441406 294.199219 287.441406 Z M 294.199219 374.21875 C 297.359375 374.21875 299.84375 376.703125 299.84375 379.867188 C 299.84375 383.03125 297.359375 385.515625 294.199219 385.515625 C 291.039062 385.515625 288.554688 383.03125 288.554688 379.867188 C 288.554688 376.703125 291.039062 374.21875 294.199219 374.21875 Z M 263.71875 391.164062 C 266.878906 391.164062 269.363281 393.652344 269.363281 396.816406 C 269.363281 399.980469 266.878906 402.464844 263.71875 402.464844 C 260.558594 402.464844 258.074219 399.980469 258.074219 396.816406 C 258.074219 393.652344 260.558594 391.164062 263.71875 391.164062 Z M 263.71875 270.496094 C 266.878906 270.496094 269.363281 272.980469 269.363281 276.144531 C 269.363281 279.308594 266.878906 281.792969 263.71875 281.792969 C 260.558594 281.792969 258.074219 279.308594 258.074219 276.144531 C 258.074219 272.980469 260.558594 270.496094 263.71875 270.496094 Z M 263.71875 287.441406 C 266.878906 287.441406 269.363281 289.929688 269.363281 293.09375 C 269.363281 296.253906 266.878906 298.742188 263.71875 298.742188 C 260.558594 298.742188 258.074219 296.253906 258.074219 293.09375 C 258.074219 289.929688 260.558594 287.441406 263.71875 287.441406 Z M 263.71875 374.21875 C 266.878906 374.21875 269.363281 376.703125 269.363281 379.867188 C 269.363281 383.03125 266.878906 385.515625 263.71875 385.515625 C 260.558594 385.515625 258.074219 383.03125 258.074219 379.867188 C 258.074219 376.703125 260.558594 374.21875 263.71875 374.21875 Z M 231.542969 391.164062 C 234.703125 391.164062 237.1875 393.652344 237.1875 396.816406 C 237.1875 399.980469 234.703125 402.464844 231.542969 402.464844 C 228.382812 402.464844 225.898438 399.980469 225.898438 396.816406 C 225.898438 393.652344 228.382812 391.164062 231.542969 391.164062 Z M 231.542969 270.496094 C 234.703125 270.496094 237.1875 272.980469 237.1875 276.144531 C 237.1875 279.308594 234.703125 281.792969 231.542969 281.792969 C 228.382812 281.792969 225.898438 279.308594 225.898438 276.144531 C 225.898438 272.980469 228.382812 270.496094 231.542969 270.496094 Z M 231.542969 287.441406 C 234.703125 287.441406 237.1875 289.929688 237.1875 293.09375 C 237.1875 296.253906 234.703125 298.742188 231.542969 298.742188 C 228.382812 298.742188 225.898438 296.253906 225.898438 293.09375 C 225.898438 289.929688 228.382812 287.441406 231.542969 287.441406 Z M 231.542969 374.21875 C 234.703125 374.21875 237.1875 376.703125 237.1875 379.867188 C 237.1875 383.03125 234.703125 385.515625 231.542969 385.515625 C 228.382812 385.515625 225.898438 383.03125 225.898438 379.867188 C 225.898438 376.703125 228.382812 374.21875 231.542969 374.21875 Z M 200.386719 391.164062 C 203.546875 391.164062 206.03125 393.652344 206.03125 396.816406 C 206.03125 399.980469 203.546875 402.464844 200.386719 402.464844 C 197.222656 402.464844 194.742188 399.980469 194.742188 396.816406 C 194.742188 393.652344 197.222656 391.164062 200.386719 391.164062 Z M 200.386719 270.496094 C 203.546875 270.496094 206.03125 272.980469 206.03125 276.144531 C 206.03125 279.308594 203.546875 281.792969 200.386719 281.792969 C 197.222656 281.792969 194.742188 279.308594 194.742188 276.144531 C 194.742188 272.980469 197.222656 270.496094 200.386719 270.496094 Z M 200.386719 287.441406 C 203.546875 287.441406 206.03125 289.929688 206.03125 293.09375 C 206.03125 296.253906 203.546875 298.742188 200.386719 298.742188 C 197.222656 298.742188 194.742188 296.253906 194.742188 293.09375 C 194.742188 289.929688 197.222656 287.441406 200.386719 287.441406 Z M 200.386719 374.21875 C 203.546875 374.21875 206.03125 376.703125 206.03125 379.867188 C 206.03125 383.03125 203.546875 385.515625 200.386719 385.515625 C 197.222656 385.515625 194.742188 383.03125 194.742188 379.867188 C 194.742188 376.703125 197.222656 374.21875 200.386719 374.21875 Z M 169.226562 391.164062 C 172.386719 391.164062 174.871094 393.652344 174.871094 396.816406 C 174.871094 399.980469 172.386719 402.464844 169.226562 402.464844 C 166.066406 402.464844 163.582031 399.980469 163.582031 396.816406 C 163.582031 393.652344 166.066406 391.164062 169.226562 391.164062 Z M 169.226562 270.496094 C 172.386719 270.496094 174.871094 272.980469 174.871094 276.144531 C 174.871094 279.308594 172.386719 281.792969 169.226562 281.792969 C 166.066406 281.792969 163.582031 279.308594 163.582031 276.144531 C 163.582031 272.980469 166.066406 270.496094 169.226562 270.496094 Z M 169.226562 287.441406 C 172.386719 287.441406 174.871094 289.929688 174.871094 293.09375 C 174.871094 296.253906 172.386719 298.742188 169.226562 298.742188 C 166.066406 298.742188 163.582031 296.253906 163.582031 293.09375 C 163.582031 289.929688 166.066406 287.441406 169.226562 287.441406 Z M 169.226562 374.21875 C 172.386719 374.21875 174.871094 376.703125 174.871094 379.867188 C 174.871094 383.03125 172.386719 385.515625 169.226562 385.515625 C 166.066406 385.515625 163.582031 383.03125 163.582031 379.867188 C 163.582031 376.703125 166.066406 374.21875 169.226562 374.21875 Z M 137.730469 391.164062 C 140.890625 391.164062 143.375 393.652344 143.375 396.816406 C 143.375 399.980469 140.890625 402.464844 137.730469 402.464844 C 134.570312 402.464844 132.085938 399.980469 132.085938 396.816406 C 132.085938 393.652344 134.570312 391.164062 137.730469 391.164062 Z M 137.730469 270.496094 C 140.890625 270.496094 143.375 272.980469 143.375 276.144531 C 143.375 279.308594 140.890625 281.792969 137.730469 281.792969 C 134.570312 281.792969 132.085938 279.308594 132.085938 276.144531 C 132.085938 272.980469 134.570312 270.496094 137.730469 270.496094 Z M 137.730469 287.441406 C 140.890625 287.441406 143.375 289.929688 143.375 293.09375 C 143.375 296.253906 140.890625 298.742188 137.730469 298.742188 C 134.570312 298.742188 132.085938 296.253906 132.085938 293.09375 C 132.085938 289.929688 134.570312 287.441406 137.730469 287.441406 Z M 137.730469 374.21875 C 140.890625 374.21875 143.375 376.703125 143.375 379.867188 C 143.375 383.03125 140.890625 385.515625 137.730469 385.515625 C 134.570312 385.515625 132.085938 383.03125 132.085938 379.867188 C 132.085938 376.703125 134.570312 374.21875 137.730469 374.21875 Z M 107.25 391.164062 C 110.410156 391.164062 112.894531 393.652344 112.894531 396.816406 C 112.894531 399.980469 110.410156 402.464844 107.25 402.464844 C 104.085938 402.464844 101.605469 399.980469 101.605469 396.816406 C 101.605469 393.652344 104.085938 391.164062 107.25 391.164062 Z M 107.25 270.496094 C 110.410156 270.496094 112.894531 272.980469 112.894531 276.144531 C 112.894531 279.308594 110.410156 281.792969 107.25 281.792969 C 104.085938 281.792969 101.605469 279.308594 101.605469 276.144531 C 101.605469 272.980469 104.085938 270.496094 107.25 270.496094 Z M 107.25 287.441406 C 110.410156 287.441406 112.894531 289.929688 112.894531 293.09375 C 112.894531 296.253906 110.410156 298.742188 107.25 298.742188 C 104.085938 298.742188 101.605469 296.253906 101.605469 293.09375 C 101.605469 289.929688 104.085938 287.441406 107.25 287.441406 Z M 107.25 374.21875 C 110.410156 374.21875 112.894531 376.703125 112.894531 379.867188 C 112.894531 383.03125 110.410156 385.515625 107.25 385.515625 C 104.085938 385.515625 101.605469 383.03125 101.605469 379.867188 C 101.605469 376.703125 104.085938 374.21875 107.25 374.21875 Z M 75.414062 391.164062 C 78.574219 391.164062 81.058594 393.652344 81.058594 396.816406 C 81.058594 399.980469 78.574219 402.464844 75.414062 402.464844 C 72.25 402.464844 69.769531 399.980469 69.769531 396.816406 C 69.769531 393.652344 72.25 391.164062 75.414062 391.164062 Z M 75.414062 270.496094 C 78.574219 270.496094 81.058594 272.980469 81.058594 276.144531 C 81.058594 279.308594 78.574219 281.792969 75.414062 281.792969 C 72.25 281.792969 69.769531 279.308594 69.769531 276.144531 C 69.769531 272.980469 72.25 270.496094 75.414062 270.496094 Z M 75.414062 287.441406 C 78.574219 287.441406 81.058594 289.929688 81.058594 293.09375 C 81.058594 296.253906 78.574219 298.742188 75.414062 298.742188 C 72.25 298.742188 69.769531 296.253906 69.769531 293.09375 C 69.769531 289.929688 72.25 287.441406 75.414062 287.441406 Z M 75.414062 374.21875 C 78.574219 374.21875 81.058594 376.703125 81.058594 379.867188 C 81.058594 383.03125 78.574219 385.515625 75.414062 385.515625 C 72.25 385.515625 69.769531 383.03125 69.769531 379.867188 C 69.769531 376.703125 72.25 374.21875 75.414062 374.21875 Z M 44.59375 270.496094 C 47.753906 270.496094 50.238281 272.980469 50.238281 276.144531 C 50.238281 279.308594 47.753906 281.792969 44.59375 281.792969 C 41.433594 281.792969 38.949219 279.308594 38.949219 276.144531 C 38.949219 272.980469 41.433594 270.496094 44.59375 270.496094 Z M 44.59375 287.441406 C 47.753906 287.441406 50.238281 289.929688 50.238281 293.09375 C 50.238281 296.253906 47.753906 298.742188 44.59375 298.742188 C 41.433594 298.742188 38.949219 296.253906 38.949219 293.09375 C 38.949219 289.929688 41.433594 287.441406 44.59375 287.441406 Z M 44.59375 374.21875 C 47.753906 374.21875 50.238281 376.703125 50.238281 379.867188 C 50.238281 383.03125 47.753906 385.515625 44.59375 385.515625 C 41.433594 385.515625 38.949219 383.03125 38.949219 379.867188 C 38.949219 376.703125 41.433594 374.21875 44.59375 374.21875 Z M 398.171875 412.859375 L 398.171875 220.78125 C 398.171875 217.164062 395.914062 214.226562 393.207031 214.226562 L 382.253906 214.226562 C 379.546875 214.226562 377.289062 217.164062 377.289062 220.78125 L 377.289062 412.972656 C 377.289062 422.914062 377.289062 432.632812 377.175781 442.574219 C 377.175781 445.0625 377.289062 446.53125 377.851562 448.902344 C 382.03125 449.695312 390.382812 449.917969 394.335938 448.789062 C 397.949219 447.773438 398.398438 445.289062 398.511719 441.785156 C 398.625 437.378906 398.285156 431.839844 398.285156 427.210938 C 398.285156 422.464844 398.285156 417.71875 398.285156 412.972656 Z M 273.765625 412.40625 L 273.765625 220.328125 C 273.765625 216.710938 271.507812 213.773438 268.796875 213.773438 L 257.847656 213.773438 C 255.136719 213.773438 252.878906 216.710938 252.878906 220.328125 L 252.878906 433.875 C 252.878906 437.039062 252.429688 449.242188 253.105469 451.386719 C 253.671875 453.195312 254.914062 453.421875 256.71875 453.648438 C 259.878906 454.101562 270.605469 454.101562 272.75 451.5 C 274.667969 448.226562 273.878906 438.960938 273.765625 434.890625 C 273.765625 427.773438 273.765625 420.65625 273.765625 413.539062 Z M 553.738281 412.859375 L 553.738281 220.78125 C 553.738281 217.164062 551.480469 214.226562 548.773438 214.226562 L 537.820312 214.226562 C 535.113281 214.226562 532.855469 217.164062 532.855469 220.78125 L 532.855469 412.972656 C 532.855469 416.925781 532.402344 440.203125 532.96875 442.125 C 533.53125 443.820312 533.984375 443.707031 535.902344 443.929688 C 538.5 444.269531 552.722656 444.609375 553.402344 441.445312 C 554.644531 434.441406 553.851562 422.464844 553.738281 415.007812 C 553.738281 414.328125 553.738281 413.539062 553.738281 412.859375 Z M 54.527344 411.84375 L 54.527344 242.8125 C 54.414062 242.8125 54.300781 242.8125 54.300781 242.8125 L 42.335938 242.8125 C 40.414062 242.8125 38.949219 240.328125 38.949219 237.277344 L 38.949219 212.984375 L 38.722656 212.984375 C 36.011719 212.984375 33.753906 215.921875 33.753906 219.535156 L 33.753906 433.085938 C 33.753906 436.8125 33.304688 457.488281 34.207031 459.410156 C 35.109375 461.332031 38.15625 460.765625 39.964844 460.765625 C 41.542969 460.765625 52.042969 460.539062 53.058594 459.976562 C 56.332031 457.941406 54.753906 420.203125 54.753906 411.84375 Z M 85.574219 434.101562 L 85.574219 261.566406 L 85.460938 242.8125 C 81.394531 242.359375 76.65625 241.230469 77.21875 235.695312 L 77.21875 214 L 70.332031 214 C 70.332031 220.667969 70.332031 227.445312 70.332031 234.113281 C 70.332031 235.917969 69.992188 236.597656 69.203125 238.292969 C 67.847656 241.003906 67.621094 241.683594 64.800781 242.925781 L 64.574219 412.632812 L 64.574219 433.988281 C 64.460938 440.992188 64.125 448.113281 64.347656 455.117188 C 64.347656 457.039062 64.460938 459.523438 66.71875 459.976562 C 69.769531 460.539062 83.429688 460.089844 84.78125 457.941406 C 86.136719 455.457031 85.460938 444.382812 85.460938 440.878906 C 85.460938 438.621094 85.460938 436.25 85.460938 433.988281 Z M 117.296875 432.972656 L 117.296875 219.535156 C 117.296875 215.921875 115.039062 212.984375 112.328125 212.984375 L 107.8125 212.984375 C 107.699219 220.667969 107.925781 229.027344 107.8125 236.9375 C 107.8125 237.726562 107.472656 238.292969 107.023438 238.859375 C 105.78125 240.4375 102.84375 243.152344 100.699219 243.265625 L 96.410156 243.265625 L 96.410156 433.085938 C 96.410156 440.429688 96.070312 448.226562 96.296875 455.570312 C 96.410156 459.410156 97.089844 459.070312 101.265625 458.957031 C 104.3125 458.847656 115.152344 459.523438 116.617188 456.8125 C 117.972656 454.214844 117.296875 444.609375 117.183594 441.332031 C 117.183594 438.621094 117.183594 435.910156 117.183594 433.199219 Z M 148.003906 433.308594 L 148.003906 260.777344 C 148.003906 255.128906 148.003906 249.589844 148.003906 243.941406 C 147.324219 243.941406 145.746094 244.054688 145.179688 243.714844 C 143.9375 243.152344 143.148438 239.988281 143.148438 238.632812 C 143.035156 237.277344 143.148438 235.808594 143.148438 234.449219 C 143.148438 227.445312 143.148438 220.441406 143.148438 213.433594 L 132.085938 213.097656 C 129.375 213.097656 127.117188 216.035156 127.117188 219.648438 L 127.117188 433.199219 C 127.003906 437.039062 125.761719 455.003906 127.570312 457.039062 C 129.148438 458.847656 143.261719 457.601562 145.859375 456.925781 C 149.246094 456.132812 148.226562 451.277344 148.226562 448.449219 C 148.117188 443.367188 148.003906 438.28125 148.003906 433.199219 Z M 179.386719 433.648438 L 179.386719 220.214844 C 179.386719 216.597656 177.128906 213.660156 174.417969 213.660156 L 173.742188 213.660156 L 173.742188 238.519531 C 173.742188 241.570312 172.160156 244.054688 170.355469 244.054688 L 158.5 244.054688 L 158.5 433.761719 C 158.5 437.378906 158.164062 452.292969 158.613281 454.550781 C 159.066406 456.359375 159.40625 456.246094 161.4375 456.699219 C 164.144531 457.152344 176.566406 457.152344 178.484375 455.117188 C 180.0625 453.535156 179.386719 442.6875 179.386719 439.863281 C 179.386719 437.828125 179.386719 435.796875 179.386719 433.761719 Z M 210.433594 432.972656 L 210.433594 260.4375 C 210.433594 253.773438 210.433594 248.460938 210.433594 241.796875 C 210.433594 240.550781 210.769531 240.214844 210.433594 241.117188 C 209.867188 242.8125 208.738281 243.601562 206.707031 243.601562 C 202.980469 243.601562 199.257812 243.601562 195.53125 243.601562 C 195.53125 243.601562 195.417969 243.601562 195.417969 243.601562 L 190.113281 243.601562 C 189.886719 243.601562 189.773438 243.601562 189.546875 243.601562 C 189.546875 243.828125 189.546875 244.054688 189.546875 244.167969 C 189.546875 248.347656 189.546875 252.417969 189.546875 256.597656 C 189.546875 257.953125 189.546875 259.195312 189.546875 260.550781 L 189.546875 433.085938 C 189.546875 436.585938 189.207031 451.386719 189.660156 453.648438 C 190.113281 455.457031 190.335938 455.34375 192.484375 455.683594 C 195.757812 456.132812 208.0625 456.472656 209.640625 453.421875 C 210.996094 450.9375 210.320312 438.507812 210.320312 434.441406 L 210.320312 433.085938 Z M 241.476562 432.292969 L 241.476562 243.265625 L 225.335938 243.265625 C 224.429688 243.265625 221.042969 241.683594 220.59375 240.890625 L 220.59375 432.292969 C 220.59375 435.570312 219.914062 451.839844 220.707031 453.421875 C 221.835938 455.796875 230.074219 454.664062 232.332031 454.550781 C 243.847656 453.875 241.703125 452.40625 241.589844 441.105469 C 241.589844 438.167969 241.589844 435.230469 241.589844 432.292969 Z M 304.699219 412.070312 L 304.699219 241.570312 L 301.988281 241.570312 C 300.070312 241.570312 296.570312 238.179688 296.570312 234 L 296.570312 213.320312 L 288.78125 213.320312 C 286.070312 213.320312 283.8125 216.261719 283.8125 219.875 L 283.8125 412.070312 C 283.8125 422.914062 283.8125 433.648438 283.585938 444.609375 C 283.363281 452.859375 285.84375 452.746094 293.632812 452.519531 C 295.667969 452.40625 302.328125 452.292969 303.796875 450.824219 C 305.375 449.242188 304.585938 437.265625 304.585938 434.554688 C 304.585938 427.097656 304.585938 419.640625 304.585938 412.070312 Z M 335.96875 411.84375 L 335.96875 219.761719 C 335.96875 216.148438 333.710938 213.210938 331.003906 213.210938 L 328.519531 213.210938 L 328.519531 235.582031 C 328.519531 238.632812 326.9375 241.117188 325.132812 241.117188 L 315.085938 241.117188 L 315.085938 411.957031 C 315.085938 422.914062 314.972656 433.648438 314.859375 444.496094 C 314.859375 450.484375 315.761719 451.386719 321.746094 451.5 C 324.566406 451.5 333.035156 451.613281 334.953125 449.242188 C 336.757812 445.964844 335.96875 436.359375 335.96875 432.292969 C 335.96875 425.515625 335.96875 418.734375 335.96875 411.957031 Z M 366.113281 411.503906 L 366.113281 236.9375 C 366 236.9375 365.773438 236.9375 365.660156 236.9375 C 365.433594 239.648438 361.820312 241.683594 360.128906 241.683594 L 345.226562 241.683594 L 345.226562 411.617188 C 345.226562 422.238281 345.113281 432.746094 345 443.367188 C 345 444.609375 345.113281 448.675781 345.902344 449.46875 C 347.597656 451.050781 364.078125 450.257812 365.433594 449.015625 C 366.675781 447.773438 366.113281 431.390625 366.113281 428.902344 C 366.113281 423.140625 366.113281 417.378906 366.113281 411.617188 Z M 429.105469 413.199219 L 429.105469 242.019531 C 423.347656 241.683594 422.21875 242.246094 419.058594 238.40625 L 419.058594 214.453125 L 413.1875 214.453125 C 410.480469 214.453125 408.222656 217.390625 408.222656 221.003906 L 408.222656 413.199219 C 408.222656 422.578125 408.222656 431.839844 408.109375 441.21875 C 408.109375 443.707031 408.109375 445.175781 408.785156 447.546875 C 413.074219 448.449219 420.074219 448.339844 424.363281 447.773438 C 429.558594 447.09375 429.445312 444.382812 429.332031 439.636719 C 429.105469 430.710938 429.105469 422.125 429.105469 413.199219 Z M 460.152344 413.085938 L 460.152344 242.019531 L 458.007812 242.019531 C 456.3125 242.019531 451.796875 239.875 451.796875 237.164062 L 451.796875 214.453125 L 448.296875 214.453125 C 448.296875 221.570312 448.296875 228.6875 448.296875 235.808594 C 448.296875 237.613281 444.460938 242.246094 441.636719 242.132812 C 440.28125 242.132812 440.507812 242.019531 439.152344 242.019531 L 439.152344 413.199219 C 439.152344 422.238281 439.039062 431.277344 438.929688 440.316406 C 438.929688 441.445312 439.039062 445.625 439.832031 446.417969 C 441.410156 448 457.667969 447.320312 459.25 445.738281 C 460.601562 444.269531 460.039062 430.148438 460.039062 427.433594 C 460.039062 422.691406 460.039062 417.945312 460.039062 413.199219 Z M 491.308594 412.519531 L 491.308594 241.90625 L 488.261719 241.90625 C 486.570312 241.90625 485.214844 239.761719 485.214844 237.050781 L 485.214844 213.773438 L 481.828125 213.773438 L 481.828125 237.050781 C 481.828125 239.761719 480.472656 241.90625 478.777344 241.90625 L 470.3125 241.90625 L 470.3125 412.519531 C 470.3125 421.671875 470.199219 430.9375 470.199219 440.089844 C 470.199219 442.238281 470.3125 443.367188 470.875 445.398438 C 474.601562 446.417969 482.617188 446.304688 486.34375 445.625 C 489.957031 444.949219 490.859375 443.929688 491.199219 440.316406 C 491.535156 436.699219 491.085938 429.808594 491.085938 425.738281 C 491.085938 421.332031 491.085938 416.925781 491.085938 412.519531 Z M 522.242188 412.40625 L 522.242188 220.328125 C 522.242188 216.710938 519.984375 213.773438 517.277344 213.773438 L 515.128906 213.773438 L 515.242188 236.824219 C 515.242188 238.632812 511.632812 242.132812 509.484375 242.132812 L 503.164062 242.246094 C 502.488281 242.246094 501.808594 242.246094 501.132812 242.246094 L 501.132812 412.519531 C 501.132812 421.109375 501.019531 429.582031 501.019531 438.054688 C 501.019531 439.1875 501.132812 443.367188 501.921875 444.15625 C 503.503906 445.625 519.308594 445.289062 521.226562 443.367188 C 522.921875 441.558594 522.128906 428.789062 522.128906 425.628906 C 522.128906 421.21875 522.128906 416.8125 522.128906 412.40625 Z M 584.335938 411.84375 L 584.335938 233.773438 C 583.542969 234.789062 582.414062 235.46875 581.171875 235.46875 L 566.046875 235.46875 C 565.03125 235.46875 564.011719 233.660156 563.335938 232.980469 L 563.449219 243.378906 L 563.449219 411.957031 C 563.449219 419.75 563.449219 427.320312 563.222656 435.117188 C 563.109375 442.800781 564.691406 443.253906 572.253906 443.140625 C 574.964844 443.140625 582.1875 443.253906 583.65625 440.65625 C 585.125 438.054688 584.335938 426.871094 584.335938 423.253906 C 584.335938 419.527344 584.335938 415.796875 584.335938 412.070312 Z M 614.929688 413.875 L 614.929688 244.28125 C 614.929688 242.359375 614.929688 240.328125 614.929688 238.40625 L 614.929688 234.902344 L 608.378906 234.902344 C 606.574219 234.902344 601.382812 232.078125 601.382812 229.140625 L 601.382812 214.679688 L 599.011719 215.015625 C 596.300781 215.015625 594.042969 217.953125 594.042969 221.570312 L 594.042969 413.761719 C 594.042969 420.882812 593.929688 427.773438 593.929688 434.78125 C 593.929688 435.910156 594.042969 439.976562 594.832031 440.769531 C 596.414062 442.238281 609.847656 441.558594 612.332031 441.21875 C 615.71875 440.769531 615.152344 437.71875 615.152344 434.667969 C 615.039062 427.546875 614.929688 420.769531 614.929688 413.652344 Z M 646.765625 412.859375 L 647.667969 224.847656 C 646.652344 224.734375 645.746094 223.378906 645.746094 222.25 C 645.636719 219.648438 645.746094 217.617188 645.746094 215.015625 C 645.746094 214.902344 645.746094 214.226562 645.746094 214.113281 L 641.34375 214.113281 C 639.878906 214.113281 638.410156 214.113281 636.828125 214.113281 C 634.796875 214.113281 632.765625 214.113281 630.734375 214.113281 C 630.621094 214.113281 630.621094 214.113281 630.507812 214.113281 C 630.507812 219.199219 630.394531 224.28125 630.394531 229.367188 C 630.394531 231.738281 628.589844 234.789062 626.105469 234.902344 L 625.425781 234.902344 L 625.539062 433.875 C 625.539062 435.117188 625.652344 438.960938 626.441406 439.863281 C 628.25 441.558594 641.683594 440.878906 644.167969 439.75 C 647.554688 437.378906 646.875 432.859375 646.652344 429.128906 L 646.652344 428.226562 C 646.539062 423.140625 646.539062 417.945312 646.539062 412.859375 Z M 646.765625 412.859375 "/>
<path style=" stroke:none;fill-rule:evenodd;fill:rgb(60%,35.294118%,30.196078%);fill-opacity:1;" d="M 0.566406 414.214844 C 0.453125 423.480469 -3.046875 438.28125 9.257812 438.847656 C 15.242188 439.1875 24.046875 438.734375 30.480469 438.621094 L 30.480469 217.390625 C 30.480469 213.773438 33.417969 210.835938 37.027344 210.835938 L 37.59375 210.835938 L 37.59375 81.351562 C 37.59375 81.125 37.59375 80.898438 37.59375 80.671875 L 27.882812 79.996094 C 24.949219 79.769531 22.015625 79.429688 19.078125 79.203125 C 14 78.753906 4.855469 76.265625 2.257812 82.253906 C 0.113281 87.226562 1.46875 108.355469 1.46875 115.023438 L 0.339844 414.101562 Z M 58.367188 438.507812 L 61.640625 438.507812 L 61.640625 243.039062 L 58.367188 243.152344 Z M 89.410156 438.28125 L 92.683594 438.28125 L 92.683594 430.9375 L 92.910156 242.8125 L 89.410156 242.8125 Z M 120.457031 438.054688 L 123.617188 438.054688 L 123.617188 217.503906 C 123.617188 213.886719 126.554688 210.949219 130.277344 210.949219 L 143.375 210.949219 L 143.375 88.46875 L 107.699219 85.871094 L 107.699219 210.949219 L 113.796875 210.949219 C 117.410156 210.949219 120.34375 213.886719 120.34375 217.503906 L 120.34375 438.054688 Z M 151.503906 437.828125 L 154.777344 437.828125 L 154.777344 244.167969 L 151.503906 244.167969 Z M 182.546875 437.605469 L 185.707031 437.605469 L 185.707031 243.488281 C 184.355469 243.265625 182.886719 240.664062 182.886719 238.632812 L 182.546875 430.9375 Z M 213.59375 437.378906 L 216.867188 437.378906 L 216.867188 217.503906 C 216.867188 216.597656 217.09375 215.695312 217.433594 214.902344 L 217.433594 93.894531 L 213.59375 93.554688 L 213.59375 216.261719 C 213.707031 216.710938 213.707031 217.050781 213.707031 217.503906 L 213.707031 437.378906 Z M 244.640625 437.152344 L 248.929688 437.152344 L 248.929688 217.617188 C 248.929688 214 251.863281 211.0625 255.589844 211.0625 L 270.265625 211.0625 C 273.878906 211.0625 276.8125 214 276.8125 217.617188 L 276.8125 437.152344 L 280.085938 437.152344 L 280.085938 217.730469 C 280.085938 214.113281 283.023438 211.175781 286.636719 211.175781 L 297.699219 211.175781 L 297.699219 99.996094 L 248.363281 96.378906 L 248.363281 237.726562 C 248.363281 240.101562 246.21875 242.246094 244.074219 243.039062 L 244.640625 431.164062 L 244.640625 437.492188 Z M 307.859375 436.699219 L 311.019531 436.699219 L 311.019531 241.683594 L 307.859375 241.683594 L 307.859375 436.8125 Z M 338.90625 436.472656 L 342.179688 436.472656 L 342.179688 430.9375 L 342.40625 241.683594 L 338.679688 241.683594 L 338.90625 430.9375 L 338.90625 436.585938 Z M 369.949219 436.25 L 373.109375 436.25 L 373.109375 217.390625 C 373.109375 213.773438 376.046875 210.835938 379.660156 210.835938 L 394.335938 210.835938 C 397.949219 210.835938 400.882812 213.773438 400.882812 217.390625 L 400.882812 436.023438 L 404.15625 436.023438 L 404.15625 217.390625 C 404.15625 213.773438 407.09375 210.835938 410.703125 210.835938 L 419.171875 210.835938 L 419.171875 108.582031 L 367.691406 104.851562 L 367.691406 212.644531 C 369.046875 213.886719 369.835938 215.582031 369.835938 217.503906 L 369.835938 436.359375 Z M 432.15625 435.796875 L 435.316406 435.796875 L 435.316406 430.824219 L 435.542969 242.019531 L 432.042969 242.019531 L 432.15625 430.824219 Z M 463.199219 435.570312 L 466.472656 435.570312 L 466.472656 430.824219 L 466.699219 242.019531 L 463.3125 242.019531 L 463.3125 435.570312 Z M 494.246094 435.34375 L 497.40625 435.34375 L 497.40625 242.132812 L 494.246094 242.132812 Z M 525.292969 435.117188 L 528.566406 435.117188 L 528.566406 217.390625 C 528.566406 213.773438 531.5 210.835938 535.113281 210.835938 L 549.789062 210.835938 C 553.402344 210.835938 556.449219 213.773438 556.449219 217.390625 L 556.449219 434.890625 L 560.289062 434.890625 L 559.949219 215.355469 L 559.949219 118.75 L 514.453125 115.472656 L 514.453125 210.835938 L 518.742188 210.835938 C 522.355469 210.835938 525.292969 213.773438 525.292969 217.390625 Z M 587.496094 434.667969 L 590.769531 434.667969 C 590.769531 434.554688 590.769531 434.441406 590.769531 434.214844 L 590.769531 217.390625 C 590.769531 213.773438 593.703125 210.835938 597.316406 210.835938 L 600.363281 210.269531 L 600.363281 121.914062 L 589.300781 120.898438 L 589.300781 228.125 C 589.300781 229.707031 588.625 231.0625 587.609375 232.078125 L 587.609375 434.328125 C 587.609375 434.441406 587.609375 434.554688 587.609375 434.667969 Z M 618.429688 434.441406 L 621.925781 434.441406 C 621.816406 433.988281 621.816406 433.535156 621.816406 433.085938 L 621.816406 430.824219 L 621.925781 234.902344 L 618.539062 234.902344 L 618.539062 433.199219 C 618.539062 433.648438 618.539062 433.988281 618.429688 434.441406 Z M 649.246094 434.214844 L 653.199219 434.214844 C 652.972656 433.535156 652.746094 432.746094 652.746094 431.953125 L 652.746094 224.960938 L 649.472656 224.960938 L 649.472656 432.066406 C 649.472656 432.859375 649.359375 433.535156 649.132812 434.214844 Z M 679.839844 434.101562 C 684.132812 434.101562 688.535156 434.101562 692.824219 434.101562 C 706.257812 434.101562 709.417969 433.988281 708.96875 418.507812 L 708.289062 142.476562 C 708.175781 135.925781 707.726562 132.308594 700.953125 131.519531 C 692.257812 130.5 683.453125 129.597656 674.648438 128.695312 C 674.761719 129.144531 674.761719 129.484375 674.761719 129.9375 L 674.761719 211.0625 C 677.695312 211.402344 680.066406 213.660156 680.519531 216.597656 L 680.519531 431.839844 C 680.40625 432.632812 680.179688 433.308594 679.730469 433.988281 Z M 645.183594 210.835938 L 645.523438 129.824219 C 645.523438 122.59375 641.570312 125.644531 629.941406 124.511719 L 630.054688 210.835938 C 630.394531 210.722656 640.328125 210.835938 642.925781 210.835938 Z M 486.792969 210.835938 L 486.792969 113.441406 L 480.472656 112.988281 L 480.472656 210.835938 Z M 452.925781 210.835938 L 452.925781 111.066406 L 446.605469 110.617188 L 446.605469 210.949219 L 452.925781 210.949219 Z M 336.535156 212.644531 L 336.535156 102.59375 L 328.40625 102.027344 L 328.40625 210.949219 L 332.019531 210.949219 C 333.710938 210.949219 335.292969 211.628906 336.535156 212.757812 Z M 182.097656 216.484375 L 182.097656 91.179688 L 173.96875 90.617188 L 173.96875 210.835938 L 175.546875 210.835938 C 178.824219 210.835938 181.644531 213.320312 182.097656 216.484375 Z M 76.316406 210.835938 L 76.316406 83.613281 L 69.089844 83.046875 L 69.542969 210.835938 Z M 76.316406 210.835938 "/>
<path style=" stroke:none;fill-rule:evenodd;fill:rgb(60%,35.294118%,30.196078%);fill-opacity:1;" d="M 45.949219 78.867188 L 61.976562 78.867188 C 64.460938 78.867188 66.492188 81.351562 66.492188 84.402344 L 66.492188 234 C 66.492188 237.050781 64.460938 239.535156 61.976562 239.535156 L 45.949219 239.535156 C 43.464844 239.535156 41.433594 237.050781 41.433594 234 L 41.433594 84.402344 C 41.433594 81.351562 43.464844 78.867188 45.949219 78.867188 Z M 53.625 104.964844 C 56.785156 104.964844 59.382812 108.015625 59.382812 111.859375 C 59.382812 115.699219 56.785156 118.75 53.625 118.75 C 50.464844 118.75 47.867188 115.699219 47.867188 111.859375 C 47.867188 108.015625 50.464844 104.964844 53.625 104.964844 Z M 53.625 188.351562 C 56.785156 188.351562 59.382812 191.402344 59.382812 195.242188 C 59.382812 199.085938 56.785156 202.136719 53.625 202.136719 C 50.464844 202.136719 47.867188 199.085938 47.867188 195.242188 C 47.867188 191.402344 50.464844 188.351562 53.625 188.351562 Z M 53.625 171.855469 C 56.785156 171.855469 59.382812 174.90625 59.382812 178.746094 C 59.382812 182.589844 56.785156 185.640625 53.625 185.640625 C 50.464844 185.640625 47.867188 182.589844 47.867188 178.746094 C 47.867188 174.90625 50.464844 171.855469 53.625 171.855469 Z M 53.625 122.480469 C 56.785156 122.480469 59.382812 125.53125 59.382812 129.371094 C 59.382812 133.214844 56.785156 136.265625 53.625 136.265625 C 50.464844 136.265625 47.867188 133.214844 47.867188 129.371094 C 47.867188 125.53125 50.464844 122.480469 53.625 122.480469 Z M 53.625 122.480469 "/>
<path style=" stroke:none;fill-rule:evenodd;fill:rgb(60%,35.294118%,30.196078%);fill-opacity:1;" d="M 159.519531 191.515625 C 162.679688 191.515625 165.273438 194.566406 165.273438 198.40625 C 165.273438 202.25 162.679688 205.300781 159.519531 205.300781 C 156.355469 205.300781 153.761719 202.25 153.761719 198.40625 C 153.761719 194.566406 156.355469 191.515625 159.519531 191.515625 Z M 159.519531 175.019531 C 162.679688 175.019531 165.273438 178.070312 165.273438 181.910156 C 165.273438 185.753906 162.679688 188.804688 159.519531 188.804688 C 156.355469 188.804688 153.761719 185.753906 153.761719 181.910156 C 153.761719 178.070312 156.355469 175.019531 159.519531 175.019531 Z M 159.519531 125.644531 C 162.679688 125.644531 165.273438 128.695312 165.273438 132.535156 C 165.273438 136.378906 162.679688 139.425781 159.519531 139.425781 C 156.355469 139.425781 153.761719 136.378906 153.761719 132.535156 C 153.761719 128.695312 156.355469 125.644531 159.519531 125.644531 Z M 159.519531 108.128906 C 162.679688 108.128906 165.273438 111.179688 165.273438 115.023438 C 165.273438 118.863281 162.679688 121.914062 159.519531 121.914062 C 156.355469 121.914062 153.761719 118.863281 153.761719 115.023438 C 153.761719 111.179688 156.355469 108.128906 159.519531 108.128906 Z M 150.9375 82.707031 L 166.96875 82.707031 C 169.453125 82.707031 171.597656 85.191406 171.597656 88.242188 L 171.597656 235.128906 C 171.597656 238.179688 169.566406 240.664062 166.96875 240.664062 L 150.9375 240.664062 C 148.453125 240.664062 146.308594 238.179688 146.308594 235.128906 L 146.308594 88.242188 C 146.308594 85.191406 148.339844 82.707031 150.9375 82.707031 Z M 150.9375 82.707031 "/>
<path style=" stroke:none;fill-rule:evenodd;fill:rgb(60%,35.294118%,30.196078%);fill-opacity:1;" d="M 575.191406 198.179688 C 577.109375 198.179688 578.578125 199.988281 578.578125 202.25 C 578.578125 204.507812 576.996094 206.316406 575.191406 206.316406 C 573.269531 206.316406 571.804688 204.507812 571.804688 202.25 C 571.804688 199.988281 573.382812 198.179688 575.191406 198.179688 Z M 575.191406 184.847656 C 577.109375 184.847656 578.578125 186.65625 578.578125 188.917969 C 578.578125 191.175781 576.996094 192.984375 575.191406 192.984375 C 573.269531 192.984375 571.804688 191.175781 571.804688 188.917969 C 571.804688 186.65625 573.382812 184.847656 575.191406 184.847656 Z M 575.191406 146.773438 C 577.109375 146.773438 578.578125 148.578125 578.578125 150.839844 C 578.578125 153.097656 576.996094 154.90625 575.191406 154.90625 C 573.269531 154.90625 571.804688 153.097656 571.804688 150.839844 C 571.804688 148.578125 573.382812 146.773438 575.191406 146.773438 Z M 575.191406 132.421875 C 577.109375 132.421875 578.578125 134.230469 578.578125 136.488281 C 578.578125 138.75 576.996094 140.558594 575.191406 140.558594 C 573.269531 140.558594 571.804688 138.75 571.804688 136.488281 C 571.804688 134.230469 573.382812 132.421875 575.191406 132.421875 Z M 567.964844 113.214844 L 583.09375 113.214844 C 585.464844 113.214844 587.382812 115.585938 587.382812 118.410156 L 587.382812 227.105469 C 587.382812 229.929688 585.464844 232.304688 583.09375 232.304688 L 567.964844 232.304688 C 565.59375 232.304688 563.675781 229.929688 563.675781 227.105469 L 563.675781 118.410156 C 563.675781 115.585938 565.59375 113.214844 567.964844 113.214844 Z M 567.964844 113.214844 "/>
<path style=" stroke:none;fill-rule:evenodd;fill:rgb(60%,35.294118%,30.196078%);fill-opacity:1;" d="M 313.164062 192.984375 C 315.421875 192.984375 317.230469 195.132812 317.230469 197.84375 C 317.230469 200.554688 315.421875 202.699219 313.164062 202.699219 C 310.90625 202.699219 309.101562 200.554688 309.101562 197.84375 C 309.101562 195.132812 310.90625 192.984375 313.164062 192.984375 Z M 313.164062 178.183594 C 315.421875 178.183594 317.230469 180.328125 317.230469 183.042969 C 317.230469 185.753906 315.421875 187.898438 313.164062 187.898438 C 310.90625 187.898438 309.101562 185.753906 309.101562 183.042969 C 309.101562 180.328125 310.90625 178.183594 313.164062 178.183594 Z M 313.164062 130.953125 C 315.421875 130.953125 317.230469 133.101562 317.230469 135.8125 C 317.230469 138.523438 315.421875 140.671875 313.164062 140.671875 C 310.90625 140.671875 309.101562 138.523438 309.101562 135.8125 C 309.101562 133.101562 310.90625 130.953125 313.164062 130.953125 Z M 313.164062 114.457031 C 315.421875 114.457031 317.230469 116.605469 317.230469 119.316406 C 317.230469 122.027344 315.421875 124.175781 313.164062 124.175781 C 310.90625 124.175781 309.101562 122.027344 309.101562 119.316406 C 309.101562 116.605469 310.90625 114.457031 313.164062 114.457031 Z M 305.375 88.695312 L 321.40625 88.695312 C 323.890625 88.695312 326.035156 91.179688 326.035156 94.230469 L 326.035156 233.207031 C 326.035156 236.257812 324.003906 238.746094 321.40625 238.746094 L 305.375 238.746094 C 302.890625 238.746094 300.746094 236.257812 300.746094 233.207031 L 300.746094 94.230469 C 300.746094 91.179688 302.777344 88.695312 305.375 88.695312 Z M 305.375 88.695312 "/>
<path style=" stroke:none;fill-rule:evenodd;fill:rgb(60%,35.294118%,30.196078%);fill-opacity:1;" d="M 433.847656 200.441406 C 436.105469 200.441406 437.910156 202.589844 437.910156 205.300781 C 437.910156 208.011719 436.105469 210.160156 433.847656 210.160156 C 431.589844 210.160156 429.785156 208.011719 429.785156 205.300781 C 429.785156 202.589844 431.589844 200.441406 433.847656 200.441406 Z M 433.847656 185.640625 C 436.105469 185.640625 437.910156 187.785156 437.910156 190.5 C 437.910156 193.210938 436.105469 195.355469 433.847656 195.355469 C 431.589844 195.355469 429.785156 193.210938 429.785156 190.5 C 429.785156 187.785156 431.589844 185.640625 433.847656 185.640625 Z M 433.847656 143.609375 C 436.105469 143.609375 437.910156 145.753906 437.910156 148.464844 C 437.910156 151.179688 436.105469 153.324219 433.847656 153.324219 C 431.589844 153.324219 429.785156 151.179688 429.785156 148.464844 C 429.785156 145.753906 431.589844 143.609375 433.847656 143.609375 Z M 433.847656 129.144531 C 436.105469 129.144531 437.910156 131.292969 437.910156 134.003906 C 437.910156 136.714844 436.105469 138.863281 433.847656 138.863281 C 431.589844 138.863281 429.785156 136.714844 429.785156 134.003906 C 429.785156 131.292969 431.589844 129.144531 433.847656 129.144531 Z M 426.398438 106.210938 L 440.621094 106.210938 C 442.878906 106.210938 444.683594 108.355469 444.683594 111.066406 L 444.683594 234.113281 C 444.683594 236.824219 442.878906 238.96875 440.621094 238.96875 L 426.398438 238.96875 C 424.140625 238.96875 422.332031 236.824219 422.332031 234.113281 L 422.332031 111.066406 C 422.332031 108.355469 424.140625 106.210938 426.398438 106.210938 Z M 426.398438 106.210938 "/>
<path style=" stroke:none;fill-rule:evenodd;fill:rgb(60%,35.294118%,30.196078%);fill-opacity:1;" d="M 660.3125 193.210938 C 661.777344 193.210938 663.019531 194.679688 663.019531 196.488281 C 663.019531 198.292969 661.777344 199.761719 660.3125 199.761719 C 658.84375 199.761719 657.601562 198.292969 657.601562 196.488281 C 657.601562 194.679688 658.84375 193.210938 660.3125 193.210938 Z M 660.3125 181.460938 C 661.777344 181.460938 663.019531 182.929688 663.019531 184.734375 C 663.019531 186.542969 661.777344 188.011719 660.3125 188.011719 C 658.84375 188.011719 657.601562 186.542969 657.601562 184.734375 C 657.601562 182.929688 658.84375 181.460938 660.3125 181.460938 Z M 660.3125 152.082031 C 661.777344 152.082031 663.019531 153.550781 663.019531 155.359375 C 663.019531 157.167969 661.777344 158.636719 660.3125 158.636719 C 658.84375 158.636719 657.601562 157.167969 657.601562 155.359375 C 657.601562 153.550781 658.84375 152.082031 660.3125 152.082031 Z M 660.3125 140.558594 C 661.777344 140.558594 663.019531 142.027344 663.019531 143.835938 C 663.019531 145.640625 661.777344 147.109375 660.3125 147.109375 C 658.84375 147.109375 657.601562 145.640625 657.601562 143.835938 C 657.601562 142.027344 658.84375 140.558594 660.3125 140.558594 Z M 653.085938 125.867188 L 668.214844 125.867188 C 670.585938 125.867188 672.503906 128.242188 672.503906 131.066406 L 672.503906 217.503906 C 672.503906 220.328125 670.585938 222.699219 668.214844 222.699219 L 653.085938 222.699219 C 650.714844 222.699219 648.796875 220.328125 648.796875 217.503906 L 648.796875 131.066406 C 648.796875 128.242188 650.714844 125.867188 653.085938 125.867188 Z M 653.085938 125.867188 "/>
<path style=" stroke:none;fill-rule:evenodd;fill:rgb(60%,35.294118%,30.196078%);fill-opacity:1;" d="M 84.558594 78.867188 L 100.585938 78.867188 C 103.070312 78.867188 105.101562 81.351562 105.101562 84.402344 L 105.101562 234 C 105.101562 237.050781 103.070312 239.535156 100.585938 239.535156 L 84.558594 239.535156 C 82.074219 239.535156 80.042969 237.050781 80.042969 234 L 80.042969 84.402344 C 80.042969 81.351562 82.074219 78.867188 84.558594 78.867188 Z M 92.234375 104.964844 C 95.394531 104.964844 97.992188 108.015625 97.992188 111.859375 C 97.992188 115.699219 95.394531 118.75 92.234375 118.75 C 89.074219 118.75 86.476562 115.699219 86.476562 111.859375 C 86.476562 108.015625 89.074219 104.964844 92.234375 104.964844 Z M 92.234375 188.351562 C 95.394531 188.351562 97.992188 191.402344 97.992188 195.242188 C 97.992188 199.085938 95.394531 202.136719 92.234375 202.136719 C 89.074219 202.136719 86.476562 199.085938 86.476562 195.242188 C 86.476562 191.402344 89.074219 188.351562 92.234375 188.351562 Z M 92.234375 171.855469 C 95.394531 171.855469 97.992188 174.90625 97.992188 178.746094 C 97.992188 182.589844 95.394531 185.640625 92.234375 185.640625 C 89.074219 185.640625 86.476562 182.589844 86.476562 178.746094 C 86.476562 174.90625 89.074219 171.855469 92.234375 171.855469 Z M 92.234375 122.480469 C 95.394531 122.480469 97.992188 125.53125 97.992188 129.371094 C 97.992188 133.214844 95.394531 136.265625 92.234375 136.265625 C 89.074219 136.265625 86.476562 133.214844 86.476562 129.371094 C 86.476562 125.53125 89.074219 122.480469 92.234375 122.480469 Z M 92.234375 122.480469 "/>
<path style=" stroke:none;fill-rule:evenodd;fill:rgb(60%,35.294118%,30.196078%);fill-opacity:1;" d="M 198.351562 191.175781 C 201.515625 191.175781 204.109375 194.226562 204.109375 198.070312 C 204.109375 201.910156 201.515625 204.960938 198.351562 204.960938 C 195.191406 204.960938 192.59375 201.910156 192.59375 198.070312 C 192.59375 194.226562 195.191406 191.175781 198.351562 191.175781 Z M 198.351562 174.679688 C 201.515625 174.679688 204.109375 177.730469 204.109375 181.574219 C 204.109375 185.414062 201.515625 188.464844 198.351562 188.464844 C 195.191406 188.464844 192.59375 185.414062 192.59375 181.574219 C 192.59375 177.730469 195.191406 174.679688 198.351562 174.679688 Z M 198.351562 125.304688 C 201.515625 125.304688 204.109375 128.355469 204.109375 132.195312 C 204.109375 136.039062 201.515625 139.089844 198.351562 139.089844 C 195.191406 139.089844 192.59375 136.039062 192.59375 132.195312 C 192.59375 128.355469 195.191406 125.304688 198.351562 125.304688 Z M 198.351562 107.789062 C 201.515625 107.789062 204.109375 110.839844 204.109375 114.683594 C 204.109375 118.523438 201.515625 121.574219 198.351562 121.574219 C 195.191406 121.574219 192.59375 118.523438 192.59375 114.683594 C 192.59375 110.839844 195.191406 107.789062 198.351562 107.789062 Z M 189.773438 82.367188 L 205.804688 82.367188 C 208.289062 82.367188 210.433594 84.855469 210.433594 87.90625 L 210.433594 234.789062 C 210.433594 237.839844 208.402344 240.328125 205.804688 240.328125 L 189.773438 240.328125 C 187.289062 240.328125 185.144531 237.839844 185.144531 234.789062 L 185.144531 87.90625 C 185.144531 84.855469 187.175781 82.367188 189.773438 82.367188 Z M 189.773438 82.367188 "/>
<path style=" stroke:none;fill-rule:evenodd;fill:rgb(60%,35.294118%,30.196078%);fill-opacity:1;" d="M 233.800781 191.175781 C 236.960938 191.175781 239.558594 194.226562 239.558594 198.070312 C 239.558594 201.910156 236.960938 204.960938 233.800781 204.960938 C 230.640625 204.960938 228.042969 201.910156 228.042969 198.070312 C 228.042969 194.226562 230.640625 191.175781 233.800781 191.175781 Z M 233.800781 174.679688 C 236.960938 174.679688 239.558594 177.730469 239.558594 181.574219 C 239.558594 185.414062 236.960938 188.464844 233.800781 188.464844 C 230.640625 188.464844 228.042969 185.414062 228.042969 181.574219 C 228.042969 177.730469 230.640625 174.679688 233.800781 174.679688 Z M 233.800781 125.304688 C 236.960938 125.304688 239.558594 128.355469 239.558594 132.195312 C 239.558594 136.039062 236.960938 139.089844 233.800781 139.089844 C 230.640625 139.089844 228.042969 136.039062 228.042969 132.195312 C 228.042969 128.355469 230.640625 125.304688 233.800781 125.304688 Z M 233.800781 107.789062 C 236.960938 107.789062 239.558594 110.839844 239.558594 114.683594 C 239.558594 118.523438 236.960938 121.574219 233.800781 121.574219 C 230.640625 121.574219 228.042969 118.523438 228.042969 114.683594 C 228.042969 110.839844 230.640625 107.789062 233.800781 107.789062 Z M 225.222656 82.367188 L 241.253906 82.367188 C 243.734375 82.367188 245.882812 84.855469 245.882812 87.90625 L 245.882812 234.789062 C 245.882812 237.839844 243.847656 240.328125 241.253906 240.328125 L 225.222656 240.328125 C 222.738281 240.328125 220.59375 237.839844 220.59375 234.789062 L 220.59375 87.90625 C 220.59375 84.855469 222.625 82.367188 225.222656 82.367188 Z M 225.222656 82.367188 "/>
<path style=" stroke:none;fill-rule:evenodd;fill:rgb(60%,35.294118%,30.196078%);fill-opacity:1;" d="M 352.566406 192.871094 C 354.824219 192.871094 356.628906 195.019531 356.628906 197.730469 C 356.628906 200.441406 354.824219 202.589844 352.566406 202.589844 C 350.308594 202.589844 348.5 200.441406 348.5 197.730469 C 348.5 195.019531 350.308594 192.871094 352.566406 192.871094 Z M 352.566406 178.070312 C 354.824219 178.070312 356.628906 180.214844 356.628906 182.929688 C 356.628906 185.640625 354.824219 187.785156 352.566406 187.785156 C 350.308594 187.785156 348.5 185.640625 348.5 182.929688 C 348.5 180.214844 350.308594 178.070312 352.566406 178.070312 Z M 352.566406 130.839844 C 354.824219 130.839844 356.628906 132.988281 356.628906 135.699219 C 356.628906 138.410156 354.824219 140.558594 352.566406 140.558594 C 350.308594 140.558594 348.5 138.410156 348.5 135.699219 C 348.5 132.988281 350.308594 130.839844 352.566406 130.839844 Z M 352.566406 114.34375 C 354.824219 114.34375 356.628906 116.492188 356.628906 119.203125 C 356.628906 121.914062 354.824219 124.0625 352.566406 124.0625 C 350.308594 124.0625 348.5 121.914062 348.5 119.203125 C 348.5 116.492188 350.308594 114.34375 352.566406 114.34375 Z M 344.773438 88.582031 L 360.804688 88.582031 C 363.289062 88.582031 365.433594 91.070312 365.433594 94.121094 L 365.433594 233.09375 C 365.433594 236.144531 363.402344 238.632812 360.804688 238.632812 L 344.773438 238.632812 C 342.292969 238.632812 340.148438 236.144531 340.148438 233.09375 L 340.148438 94.121094 C 340.148438 91.070312 342.179688 88.582031 344.773438 88.582031 Z M 344.773438 88.582031 "/>
<path style=" stroke:none;fill-rule:evenodd;fill:rgb(60%,35.294118%,30.196078%);fill-opacity:1;" d="M 467.488281 200.441406 C 469.746094 200.441406 471.554688 202.589844 471.554688 205.300781 C 471.554688 208.011719 469.746094 210.160156 467.488281 210.160156 C 465.230469 210.160156 463.425781 208.011719 463.425781 205.300781 C 463.425781 202.589844 465.230469 200.441406 467.488281 200.441406 Z M 467.488281 185.640625 C 469.746094 185.640625 471.554688 187.785156 471.554688 190.5 C 471.554688 193.210938 469.746094 195.355469 467.488281 195.355469 C 465.230469 195.355469 463.425781 193.210938 463.425781 190.5 C 463.425781 187.785156 465.230469 185.640625 467.488281 185.640625 Z M 467.488281 143.609375 C 469.746094 143.609375 471.554688 145.753906 471.554688 148.464844 C 471.554688 151.179688 469.746094 153.324219 467.488281 153.324219 C 465.230469 153.324219 463.425781 151.179688 463.425781 148.464844 C 463.425781 145.753906 465.230469 143.609375 467.488281 143.609375 Z M 467.488281 129.144531 C 469.746094 129.144531 471.554688 131.292969 471.554688 134.003906 C 471.554688 136.714844 469.746094 138.863281 467.488281 138.863281 C 465.230469 138.863281 463.425781 136.714844 463.425781 134.003906 C 463.425781 131.292969 465.230469 129.144531 467.488281 129.144531 Z M 460.039062 106.210938 L 474.261719 106.210938 C 476.519531 106.210938 478.328125 108.355469 478.328125 111.066406 L 478.328125 234.113281 C 478.328125 236.824219 476.519531 238.96875 474.261719 238.96875 L 460.039062 238.96875 C 457.78125 238.96875 455.976562 236.824219 455.976562 234.113281 L 455.976562 111.066406 C 455.976562 108.355469 457.78125 106.210938 460.039062 106.210938 Z M 460.039062 106.210938 "/>
<path style=" stroke:none;fill-rule:evenodd;fill:rgb(60%,35.294118%,30.196078%);fill-opacity:1;" d="M 501.46875 200.441406 C 503.726562 200.441406 505.535156 202.589844 505.535156 205.300781 C 505.535156 208.011719 503.726562 210.160156 501.46875 210.160156 C 499.210938 210.160156 497.40625 208.011719 497.40625 205.300781 C 497.40625 202.589844 499.210938 200.441406 501.46875 200.441406 Z M 501.46875 185.640625 C 503.726562 185.640625 505.535156 187.785156 505.535156 190.5 C 505.535156 193.210938 503.726562 195.355469 501.46875 195.355469 C 499.210938 195.355469 497.40625 193.210938 497.40625 190.5 C 497.40625 187.785156 499.210938 185.640625 501.46875 185.640625 Z M 501.46875 143.609375 C 503.726562 143.609375 505.535156 145.753906 505.535156 148.464844 C 505.535156 151.179688 503.726562 153.324219 501.46875 153.324219 C 499.210938 153.324219 497.40625 151.179688 497.40625 148.464844 C 497.40625 145.753906 499.210938 143.609375 501.46875 143.609375 Z M 501.46875 129.144531 C 503.726562 129.144531 505.535156 131.292969 505.535156 134.003906 C 505.535156 136.714844 503.726562 138.863281 501.46875 138.863281 C 499.210938 138.863281 497.40625 136.714844 497.40625 134.003906 C 497.40625 131.292969 499.210938 129.144531 501.46875 129.144531 Z M 494.019531 106.210938 L 508.246094 106.210938 C 510.503906 106.210938 512.308594 108.355469 512.308594 111.066406 L 512.308594 234.113281 C 512.308594 236.824219 510.503906 238.96875 508.246094 238.96875 L 494.019531 238.96875 C 491.761719 238.96875 489.957031 236.824219 489.957031 234.113281 L 489.957031 111.066406 C 489.957031 108.355469 491.761719 106.210938 494.019531 106.210938 Z M 494.019531 106.210938 "/>
<path style=" stroke:none;fill-rule:evenodd;fill:rgb(60%,35.294118%,30.196078%);fill-opacity:1;" d="M 615.832031 197.84375 C 617.75 197.84375 619.21875 199.652344 619.21875 201.910156 C 619.21875 204.171875 617.636719 205.976562 615.832031 205.976562 C 613.910156 205.976562 612.445312 204.171875 612.445312 201.910156 C 612.445312 199.652344 614.023438 197.84375 615.832031 197.84375 Z M 615.832031 184.511719 C 617.75 184.511719 619.21875 186.316406 619.21875 188.578125 C 619.21875 190.835938 617.636719 192.644531 615.832031 192.644531 C 613.910156 192.644531 612.445312 190.835938 612.445312 188.578125 C 612.445312 186.316406 614.023438 184.511719 615.832031 184.511719 Z M 615.832031 146.433594 C 617.75 146.433594 619.21875 148.242188 619.21875 150.5 C 619.21875 152.761719 617.636719 154.566406 615.832031 154.566406 C 613.910156 154.566406 612.445312 152.761719 612.445312 150.5 C 612.445312 148.242188 614.023438 146.433594 615.832031 146.433594 Z M 615.832031 132.082031 C 617.75 132.082031 619.21875 133.890625 619.21875 136.152344 C 619.21875 138.410156 617.636719 140.21875 615.832031 140.21875 C 613.910156 140.21875 612.445312 138.410156 612.445312 136.152344 C 612.445312 133.890625 614.023438 132.082031 615.832031 132.082031 Z M 608.605469 112.875 L 623.734375 112.875 C 626.105469 112.875 628.023438 115.25 628.023438 118.074219 L 628.023438 226.769531 C 628.023438 229.59375 626.105469 231.964844 623.734375 231.964844 L 608.605469 231.964844 C 606.234375 231.964844 604.316406 229.59375 604.316406 226.769531 L 604.316406 118.074219 C 604.316406 115.25 606.234375 112.875 608.605469 112.875 Z M 608.605469 112.875 "/>
</g>
</svg>
